<?xml version="1.0" encoding="utf-8" standalone="no"?>
<!DOCTYPE svg PUBLIC "-//W3C//DTD SVG 1.1//EN"
  "http://www.w3.org/Graphics/SVG/1.1/DTD/svg11.dtd">
<!-- Created with matplotlib (https://matplotlib.org/) -->
<svg height="260.727334pt" version="1.1" viewBox="0 0 738.438687 260.727334" width="738.438687pt" xmlns="http://www.w3.org/2000/svg" xmlns:xlink="http://www.w3.org/1999/xlink">
 <defs>
  <style type="text/css">
*{stroke-linecap:butt;stroke-linejoin:round;}
  </style>
 </defs>
 <g id="figure_1">
  <g id="patch_1">
   <path d="M 0 260.727334 
L 738.438687 260.727334 
L 738.438687 0 
L 0 0 
z
" style="fill:none;"/>
  </g>
  <g id="axes_1">
   <g id="patch_2">
    <path d="M 61.638688 228.96 
L 731.238688 228.96 
L 731.238688 7.2 
L 61.638688 7.2 
z
" style="fill:none;"/>
   </g>
   <g id="matplotlib.axis_1">
    <g id="xtick_1">
     <g id="line2d_1">
      <path clip-path="url(#p9c4c702214)" d="M 187.188688 228.96 
L 187.188688 7.2 
" style="fill:none;stroke:#e5e5e5;stroke-width:0.8;"/>
     </g>
     <g id="text_1">
      <!-- A -->
      <defs>
       <path d="M 34.1875 63.1875 
L 20.796875 26.90625 
L 47.609375 26.90625 
z
M 28.609375 72.90625 
L 39.796875 72.90625 
L 67.578125 0 
L 57.328125 0 
L 50.6875 18.703125 
L 17.828125 18.703125 
L 11.1875 0 
L 0.78125 0 
z
" id="DejaVuSans-65"/>
      </defs>
      <g style="fill:#4d4d4d;" transform="translate(181.637988 252.144764)rotate(-45)scale(0.088 -0.088)">
       <use xlink:href="#DejaVuSans-65"/>
      </g>
     </g>
    </g>
    <g id="xtick_2">
     <g id="line2d_2">
      <path clip-path="url(#p9c4c702214)" d="M 396.438688 228.96 
L 396.438688 7.2 
" style="fill:none;stroke:#e5e5e5;stroke-width:0.8;"/>
     </g>
     <g id="text_2">
      <!-- B -->
      <defs>
       <path d="M 19.671875 34.8125 
L 19.671875 8.109375 
L 35.5 8.109375 
Q 43.453125 8.109375 47.28125 11.40625 
Q 51.125 14.703125 51.125 21.484375 
Q 51.125 28.328125 47.28125 31.5625 
Q 43.453125 34.8125 35.5 34.8125 
z
M 19.671875 64.796875 
L 19.671875 42.828125 
L 34.28125 42.828125 
Q 41.5 42.828125 45.03125 45.53125 
Q 48.578125 48.25 48.578125 53.8125 
Q 48.578125 59.328125 45.03125 62.0625 
Q 41.5 64.796875 34.28125 64.796875 
z
M 9.8125 72.90625 
L 35.015625 72.90625 
Q 46.296875 72.90625 52.390625 68.21875 
Q 58.5 63.53125 58.5 54.890625 
Q 58.5 48.1875 55.375 44.234375 
Q 52.25 40.28125 46.1875 39.3125 
Q 53.46875 37.75 57.5 32.78125 
Q 61.53125 27.828125 61.53125 20.40625 
Q 61.53125 10.640625 54.890625 5.3125 
Q 48.25 0 35.984375 0 
L 9.8125 0 
z
" id="DejaVuSans-66"/>
      </defs>
      <g style="fill:#4d4d4d;" transform="translate(390.875348 252.157403)rotate(-45)scale(0.088 -0.088)">
       <use xlink:href="#DejaVuSans-66"/>
      </g>
     </g>
    </g>
    <g id="xtick_3">
     <g id="line2d_3">
      <path clip-path="url(#p9c4c702214)" d="M 605.688688 228.96 
L 605.688688 7.2 
" style="fill:none;stroke:#e5e5e5;stroke-width:0.8;"/>
     </g>
     <g id="text_3">
      <!-- C -->
      <defs>
       <path d="M 64.40625 67.28125 
L 64.40625 56.890625 
Q 59.421875 61.53125 53.78125 63.8125 
Q 48.140625 66.109375 41.796875 66.109375 
Q 29.296875 66.109375 22.65625 58.46875 
Q 16.015625 50.828125 16.015625 36.375 
Q 16.015625 21.96875 22.65625 14.328125 
Q 29.296875 6.6875 41.796875 6.6875 
Q 48.140625 6.6875 53.78125 8.984375 
Q 59.421875 11.28125 64.40625 15.921875 
L 64.40625 5.609375 
Q 59.234375 2.09375 53.4375 0.328125 
Q 47.65625 -1.421875 41.21875 -1.421875 
Q 24.65625 -1.421875 15.125 8.703125 
Q 5.609375 18.84375 5.609375 36.375 
Q 5.609375 53.953125 15.125 64.078125 
Q 24.65625 74.21875 41.21875 74.21875 
Q 47.75 74.21875 53.53125 72.484375 
Q 59.328125 70.75 64.40625 67.28125 
z
" id="DejaVuSans-67"/>
      </defs>
      <g style="fill:#4d4d4d;" transform="translate(600.049511 252.233241)rotate(-45)scale(0.088 -0.088)">
       <use xlink:href="#DejaVuSans-67"/>
      </g>
     </g>
    </g>
   </g>
   <g id="matplotlib.axis_2">
    <g id="ytick_1">
     <g id="line2d_4">
      <path clip-path="url(#p9c4c702214)" d="M 61.638688 218.703098 
L 731.238688 218.703098 
" style="fill:none;stroke:#e5e5e5;stroke-width:0.8;"/>
     </g>
     <g id="text_4">
      <!-- 0.003 -->
      <defs>
       <path d="M 31.78125 66.40625 
Q 24.171875 66.40625 20.328125 58.90625 
Q 16.5 51.421875 16.5 36.375 
Q 16.5 21.390625 20.328125 13.890625 
Q 24.171875 6.390625 31.78125 6.390625 
Q 39.453125 6.390625 43.28125 13.890625 
Q 47.125 21.390625 47.125 36.375 
Q 47.125 51.421875 43.28125 58.90625 
Q 39.453125 66.40625 31.78125 66.40625 
z
M 31.78125 74.21875 
Q 44.046875 74.21875 50.515625 64.515625 
Q 56.984375 54.828125 56.984375 36.375 
Q 56.984375 17.96875 50.515625 8.265625 
Q 44.046875 -1.421875 31.78125 -1.421875 
Q 19.53125 -1.421875 13.0625 8.265625 
Q 6.59375 17.96875 6.59375 36.375 
Q 6.59375 54.828125 13.0625 64.515625 
Q 19.53125 74.21875 31.78125 74.21875 
z
" id="DejaVuSans-48"/>
       <path d="M 10.6875 12.40625 
L 21 12.40625 
L 21 0 
L 10.6875 0 
z
" id="DejaVuSans-46"/>
       <path d="M 40.578125 39.3125 
Q 47.65625 37.796875 51.625 33 
Q 55.609375 28.21875 55.609375 21.1875 
Q 55.609375 10.40625 48.1875 4.484375 
Q 40.765625 -1.421875 27.09375 -1.421875 
Q 22.515625 -1.421875 17.65625 -0.515625 
Q 12.796875 0.390625 7.625 2.203125 
L 7.625 11.71875 
Q 11.71875 9.328125 16.59375 8.109375 
Q 21.484375 6.890625 26.8125 6.890625 
Q 36.078125 6.890625 40.9375 10.546875 
Q 45.796875 14.203125 45.796875 21.1875 
Q 45.796875 27.640625 41.28125 31.265625 
Q 36.765625 34.90625 28.71875 34.90625 
L 20.21875 34.90625 
L 20.21875 43.015625 
L 29.109375 43.015625 
Q 36.375 43.015625 40.234375 45.921875 
Q 44.09375 48.828125 44.09375 54.296875 
Q 44.09375 59.90625 40.109375 62.90625 
Q 36.140625 65.921875 28.71875 65.921875 
Q 24.65625 65.921875 20.015625 65.03125 
Q 15.375 64.15625 9.8125 62.3125 
L 9.8125 71.09375 
Q 15.4375 72.65625 20.34375 73.4375 
Q 25.25 74.21875 29.59375 74.21875 
Q 40.828125 74.21875 47.359375 69.109375 
Q 53.90625 64.015625 53.90625 55.328125 
Q 53.90625 49.265625 50.4375 45.09375 
Q 46.96875 40.921875 40.578125 39.3125 
z
" id="DejaVuSans-51"/>
      </defs>
      <g style="fill:#4d4d4d;" transform="translate(22.245938 221.131348)scale(0.088 -0.088)">
       <use xlink:href="#DejaVuSans-48"/>
       <use x="63.623047" xlink:href="#DejaVuSans-46"/>
       <use x="95.410156" xlink:href="#DejaVuSans-48"/>
       <use x="159.033203" xlink:href="#DejaVuSans-48"/>
       <use x="222.65625" xlink:href="#DejaVuSans-51"/>
      </g>
     </g>
    </g>
    <g id="ytick_2">
     <g id="line2d_5">
      <path clip-path="url(#p9c4c702214)" d="M 61.638688 132.228875 
L 731.238688 132.228875 
" style="fill:none;stroke:#e5e5e5;stroke-width:0.8;"/>
     </g>
     <g id="text_5">
      <!-- 0.01 -->
      <defs>
       <path d="M 12.40625 8.296875 
L 28.515625 8.296875 
L 28.515625 63.921875 
L 10.984375 60.40625 
L 10.984375 69.390625 
L 28.421875 72.90625 
L 38.28125 72.90625 
L 38.28125 8.296875 
L 54.390625 8.296875 
L 54.390625 0 
L 12.40625 0 
z
" id="DejaVuSans-49"/>
      </defs>
      <g style="fill:#4d4d4d;" transform="translate(27.844938 134.657125)scale(0.088 -0.088)">
       <use xlink:href="#DejaVuSans-48"/>
       <use x="63.623047" xlink:href="#DejaVuSans-46"/>
       <use x="95.410156" xlink:href="#DejaVuSans-48"/>
       <use x="159.033203" xlink:href="#DejaVuSans-49"/>
      </g>
     </g>
    </g>
    <g id="ytick_3">
     <g id="line2d_6">
      <path clip-path="url(#p9c4c702214)" d="M 61.638688 53.322073 
L 731.238688 53.322073 
" style="fill:none;stroke:#e5e5e5;stroke-width:0.8;"/>
     </g>
     <g id="text_6">
      <!-- 0.03 -->
      <g style="fill:#4d4d4d;" transform="translate(27.844938 55.750323)scale(0.088 -0.088)">
       <use xlink:href="#DejaVuSans-48"/>
       <use x="63.623047" xlink:href="#DejaVuSans-46"/>
       <use x="95.410156" xlink:href="#DejaVuSans-48"/>
       <use x="159.033203" xlink:href="#DejaVuSans-51"/>
      </g>
     </g>
    </g>
    <g id="ytick_4">
     <g id="line2d_7">
      <path clip-path="url(#p9c4c702214)" d="M 61.638688 224.230753 
L 731.238688 224.230753 
" style="fill:none;stroke:#fafafa;"/>
     </g>
    </g>
    <g id="ytick_5">
     <g id="line2d_8">
      <path clip-path="url(#p9c4c702214)" d="M 61.638688 202.145952 
L 731.238688 202.145952 
" style="fill:none;stroke:#fafafa;"/>
     </g>
    </g>
    <g id="ytick_6">
     <g id="line2d_9">
      <path clip-path="url(#p9c4c702214)" d="M 61.638688 188.699657 
L 731.238688 188.699657 
" style="fill:none;stroke:#fafafa;"/>
     </g>
    </g>
    <g id="ytick_7">
     <g id="line2d_10">
      <path clip-path="url(#p9c4c702214)" d="M 61.638688 177.378106 
L 731.238688 177.378106 
" style="fill:none;stroke:#fafafa;"/>
     </g>
    </g>
    <g id="ytick_8">
     <g id="line2d_11">
      <path clip-path="url(#p9c4c702214)" d="M 61.638688 167.600539 
L 731.238688 167.600539 
" style="fill:none;stroke:#fafafa;"/>
     </g>
    </g>
    <g id="ytick_9">
     <g id="line2d_12">
      <path clip-path="url(#p9c4c702214)" d="M 61.638688 158.99593 
L 731.238688 158.99593 
" style="fill:none;stroke:#fafafa;"/>
     </g>
    </g>
    <g id="ytick_10">
     <g id="line2d_13">
      <path clip-path="url(#p9c4c702214)" d="M 61.638688 151.312757 
L 731.238688 151.312757 
" style="fill:none;stroke:#fafafa;"/>
     </g>
    </g>
    <g id="ytick_11">
     <g id="line2d_14">
      <path clip-path="url(#p9c4c702214)" d="M 61.638688 144.372625 
L 731.238688 144.372625 
" style="fill:none;stroke:#fafafa;"/>
     </g>
    </g>
    <g id="ytick_12">
     <g id="line2d_15">
      <path clip-path="url(#p9c4c702214)" d="M 61.638688 138.044403 
L 731.238688 138.044403 
" style="fill:none;stroke:#fafafa;"/>
     </g>
    </g>
    <g id="ytick_13">
     <g id="line2d_16">
      <path clip-path="url(#p9c4c702214)" d="M 61.638688 117.81589 
L 731.238688 117.81589 
" style="fill:none;stroke:#fafafa;"/>
     </g>
    </g>
    <g id="ytick_14">
     <g id="line2d_17">
      <path clip-path="url(#p9c4c702214)" d="M 61.638688 105.817386 
L 731.238688 105.817386 
" style="fill:none;stroke:#fafafa;"/>
     </g>
    </g>
    <g id="ytick_15">
     <g id="line2d_18">
      <path clip-path="url(#p9c4c702214)" d="M 61.638688 95.539302 
L 731.238688 95.539302 
" style="fill:none;stroke:#fafafa;"/>
     </g>
    </g>
    <g id="ytick_16">
     <g id="line2d_19">
      <path clip-path="url(#p9c4c702214)" d="M 61.638688 86.549576 
L 731.238688 86.549576 
" style="fill:none;stroke:#fafafa;"/>
     </g>
    </g>
    <g id="ytick_17">
     <g id="line2d_20">
      <path clip-path="url(#p9c4c702214)" d="M 61.638688 78.560899 
L 731.238688 78.560899 
" style="fill:none;stroke:#fafafa;"/>
     </g>
    </g>
    <g id="ytick_18">
     <g id="line2d_21">
      <path clip-path="url(#p9c4c702214)" d="M 61.638688 71.372498 
L 731.238688 71.372498 
" style="fill:none;stroke:#fafafa;"/>
     </g>
    </g>
    <g id="ytick_19">
     <g id="line2d_22">
      <path clip-path="url(#p9c4c702214)" d="M 61.638688 64.838535 
L 731.238688 64.838535 
" style="fill:none;stroke:#fafafa;"/>
     </g>
    </g>
    <g id="ytick_20">
     <g id="line2d_23">
      <path clip-path="url(#p9c4c702214)" d="M 61.638688 58.849728 
L 731.238688 58.849728 
" style="fill:none;stroke:#fafafa;"/>
     </g>
    </g>
    <g id="ytick_21">
     <g id="line2d_24">
      <path clip-path="url(#p9c4c702214)" d="M 61.638688 36.764927 
L 731.238688 36.764927 
" style="fill:none;stroke:#fafafa;"/>
     </g>
    </g>
    <g id="ytick_22">
     <g id="line2d_25">
      <path clip-path="url(#p9c4c702214)" d="M 61.638688 23.318633 
L 731.238688 23.318633 
" style="fill:none;stroke:#fafafa;"/>
     </g>
    </g>
    <g id="ytick_23">
     <g id="line2d_26">
      <path clip-path="url(#p9c4c702214)" d="M 61.638688 11.997081 
L 731.238688 11.997081 
" style="fill:none;stroke:#fafafa;"/>
     </g>
    </g>
    <g id="text_7">
     <!-- growth rate [1/h] -->
     <defs>
      <path d="M 45.40625 27.984375 
Q 45.40625 37.75 41.375 43.109375 
Q 37.359375 48.484375 30.078125 48.484375 
Q 22.859375 48.484375 18.828125 43.109375 
Q 14.796875 37.75 14.796875 27.984375 
Q 14.796875 18.265625 18.828125 12.890625 
Q 22.859375 7.515625 30.078125 7.515625 
Q 37.359375 7.515625 41.375 12.890625 
Q 45.40625 18.265625 45.40625 27.984375 
z
M 54.390625 6.78125 
Q 54.390625 -7.171875 48.1875 -13.984375 
Q 42 -20.796875 29.203125 -20.796875 
Q 24.46875 -20.796875 20.265625 -20.09375 
Q 16.0625 -19.390625 12.109375 -17.921875 
L 12.109375 -9.1875 
Q 16.0625 -11.328125 19.921875 -12.34375 
Q 23.78125 -13.375 27.78125 -13.375 
Q 36.625 -13.375 41.015625 -8.765625 
Q 45.40625 -4.15625 45.40625 5.171875 
L 45.40625 9.625 
Q 42.625 4.78125 38.28125 2.390625 
Q 33.9375 0 27.875 0 
Q 17.828125 0 11.671875 7.65625 
Q 5.515625 15.328125 5.515625 27.984375 
Q 5.515625 40.671875 11.671875 48.328125 
Q 17.828125 56 27.875 56 
Q 33.9375 56 38.28125 53.609375 
Q 42.625 51.21875 45.40625 46.390625 
L 45.40625 54.6875 
L 54.390625 54.6875 
z
" id="DejaVuSans-103"/>
      <path d="M 41.109375 46.296875 
Q 39.59375 47.171875 37.8125 47.578125 
Q 36.03125 48 33.890625 48 
Q 26.265625 48 22.1875 43.046875 
Q 18.109375 38.09375 18.109375 28.8125 
L 18.109375 0 
L 9.078125 0 
L 9.078125 54.6875 
L 18.109375 54.6875 
L 18.109375 46.1875 
Q 20.953125 51.171875 25.484375 53.578125 
Q 30.03125 56 36.53125 56 
Q 37.453125 56 38.578125 55.875 
Q 39.703125 55.765625 41.0625 55.515625 
z
" id="DejaVuSans-114"/>
      <path d="M 30.609375 48.390625 
Q 23.390625 48.390625 19.1875 42.75 
Q 14.984375 37.109375 14.984375 27.296875 
Q 14.984375 17.484375 19.15625 11.84375 
Q 23.34375 6.203125 30.609375 6.203125 
Q 37.796875 6.203125 41.984375 11.859375 
Q 46.1875 17.53125 46.1875 27.296875 
Q 46.1875 37.015625 41.984375 42.703125 
Q 37.796875 48.390625 30.609375 48.390625 
z
M 30.609375 56 
Q 42.328125 56 49.015625 48.375 
Q 55.71875 40.765625 55.71875 27.296875 
Q 55.71875 13.875 49.015625 6.21875 
Q 42.328125 -1.421875 30.609375 -1.421875 
Q 18.84375 -1.421875 12.171875 6.21875 
Q 5.515625 13.875 5.515625 27.296875 
Q 5.515625 40.765625 12.171875 48.375 
Q 18.84375 56 30.609375 56 
z
" id="DejaVuSans-111"/>
      <path d="M 4.203125 54.6875 
L 13.1875 54.6875 
L 24.421875 12.015625 
L 35.59375 54.6875 
L 46.1875 54.6875 
L 57.421875 12.015625 
L 68.609375 54.6875 
L 77.59375 54.6875 
L 63.28125 0 
L 52.6875 0 
L 40.921875 44.828125 
L 29.109375 0 
L 18.5 0 
z
" id="DejaVuSans-119"/>
      <path d="M 18.3125 70.21875 
L 18.3125 54.6875 
L 36.8125 54.6875 
L 36.8125 47.703125 
L 18.3125 47.703125 
L 18.3125 18.015625 
Q 18.3125 11.328125 20.140625 9.421875 
Q 21.96875 7.515625 27.59375 7.515625 
L 36.8125 7.515625 
L 36.8125 0 
L 27.59375 0 
Q 17.1875 0 13.234375 3.875 
Q 9.28125 7.765625 9.28125 18.015625 
L 9.28125 47.703125 
L 2.6875 47.703125 
L 2.6875 54.6875 
L 9.28125 54.6875 
L 9.28125 70.21875 
z
" id="DejaVuSans-116"/>
      <path d="M 54.890625 33.015625 
L 54.890625 0 
L 45.90625 0 
L 45.90625 32.71875 
Q 45.90625 40.484375 42.875 44.328125 
Q 39.84375 48.1875 33.796875 48.1875 
Q 26.515625 48.1875 22.3125 43.546875 
Q 18.109375 38.921875 18.109375 30.90625 
L 18.109375 0 
L 9.078125 0 
L 9.078125 75.984375 
L 18.109375 75.984375 
L 18.109375 46.1875 
Q 21.34375 51.125 25.703125 53.5625 
Q 30.078125 56 35.796875 56 
Q 45.21875 56 50.046875 50.171875 
Q 54.890625 44.34375 54.890625 33.015625 
z
" id="DejaVuSans-104"/>
      <path id="DejaVuSans-32"/>
      <path d="M 34.28125 27.484375 
Q 23.390625 27.484375 19.1875 25 
Q 14.984375 22.515625 14.984375 16.5 
Q 14.984375 11.71875 18.140625 8.90625 
Q 21.296875 6.109375 26.703125 6.109375 
Q 34.1875 6.109375 38.703125 11.40625 
Q 43.21875 16.703125 43.21875 25.484375 
L 43.21875 27.484375 
z
M 52.203125 31.203125 
L 52.203125 0 
L 43.21875 0 
L 43.21875 8.296875 
Q 40.140625 3.328125 35.546875 0.953125 
Q 30.953125 -1.421875 24.3125 -1.421875 
Q 15.921875 -1.421875 10.953125 3.296875 
Q 6 8.015625 6 15.921875 
Q 6 25.140625 12.171875 29.828125 
Q 18.359375 34.515625 30.609375 34.515625 
L 43.21875 34.515625 
L 43.21875 35.40625 
Q 43.21875 41.609375 39.140625 45 
Q 35.0625 48.390625 27.6875 48.390625 
Q 23 48.390625 18.546875 47.265625 
Q 14.109375 46.140625 10.015625 43.890625 
L 10.015625 52.203125 
Q 14.9375 54.109375 19.578125 55.046875 
Q 24.21875 56 28.609375 56 
Q 40.484375 56 46.34375 49.84375 
Q 52.203125 43.703125 52.203125 31.203125 
z
" id="DejaVuSans-97"/>
      <path d="M 56.203125 29.59375 
L 56.203125 25.203125 
L 14.890625 25.203125 
Q 15.484375 15.921875 20.484375 11.0625 
Q 25.484375 6.203125 34.421875 6.203125 
Q 39.59375 6.203125 44.453125 7.46875 
Q 49.3125 8.734375 54.109375 11.28125 
L 54.109375 2.78125 
Q 49.265625 0.734375 44.1875 -0.34375 
Q 39.109375 -1.421875 33.890625 -1.421875 
Q 20.796875 -1.421875 13.15625 6.1875 
Q 5.515625 13.8125 5.515625 26.8125 
Q 5.515625 40.234375 12.765625 48.109375 
Q 20.015625 56 32.328125 56 
Q 43.359375 56 49.78125 48.890625 
Q 56.203125 41.796875 56.203125 29.59375 
z
M 47.21875 32.234375 
Q 47.125 39.59375 43.09375 43.984375 
Q 39.0625 48.390625 32.421875 48.390625 
Q 24.90625 48.390625 20.390625 44.140625 
Q 15.875 39.890625 15.1875 32.171875 
z
" id="DejaVuSans-101"/>
      <path d="M 8.59375 75.984375 
L 29.296875 75.984375 
L 29.296875 69 
L 17.578125 69 
L 17.578125 -6.203125 
L 29.296875 -6.203125 
L 29.296875 -13.1875 
L 8.59375 -13.1875 
z
" id="DejaVuSans-91"/>
      <path d="M 25.390625 72.90625 
L 33.6875 72.90625 
L 8.296875 -9.28125 
L 0 -9.28125 
z
" id="DejaVuSans-47"/>
      <path d="M 30.421875 75.984375 
L 30.421875 -13.1875 
L 9.71875 -13.1875 
L 9.71875 -6.203125 
L 21.390625 -6.203125 
L 21.390625 69 
L 9.71875 69 
L 9.71875 75.984375 
z
" id="DejaVuSans-93"/>
     </defs>
     <g transform="translate(15.558281 163.693359)rotate(-90)scale(0.11 -0.11)">
      <use xlink:href="#DejaVuSans-103"/>
      <use x="63.476562" xlink:href="#DejaVuSans-114"/>
      <use x="104.558594" xlink:href="#DejaVuSans-111"/>
      <use x="165.740234" xlink:href="#DejaVuSans-119"/>
      <use x="247.527344" xlink:href="#DejaVuSans-116"/>
      <use x="286.736328" xlink:href="#DejaVuSans-104"/>
      <use x="350.115234" xlink:href="#DejaVuSans-32"/>
      <use x="381.902344" xlink:href="#DejaVuSans-114"/>
      <use x="423.015625" xlink:href="#DejaVuSans-97"/>
      <use x="484.294922" xlink:href="#DejaVuSans-116"/>
      <use x="523.503906" xlink:href="#DejaVuSans-101"/>
      <use x="585.027344" xlink:href="#DejaVuSans-32"/>
      <use x="616.814453" xlink:href="#DejaVuSans-91"/>
      <use x="655.828125" xlink:href="#DejaVuSans-49"/>
      <use x="719.451172" xlink:href="#DejaVuSans-47"/>
      <use x="753.142578" xlink:href="#DejaVuSans-104"/>
      <use x="816.521484" xlink:href="#DejaVuSans-93"/>
     </g>
    </g>
   </g>
   <g id="PathCollection_1">
    <path clip-path="url(#p9c4c702214)" d="M 146.061403 220.652454 
C 146.531464 220.652454 146.982335 220.465697 147.314717 220.133314 
C 147.6471 219.800931 147.833857 219.35006 147.833857 218.88 
C 147.833857 218.40994 147.6471 217.959069 147.314717 217.626686 
C 146.982335 217.294303 146.531464 217.107546 146.061403 217.107546 
C 145.591343 217.107546 145.140472 217.294303 144.808089 217.626686 
C 144.475706 217.959069 144.288949 218.40994 144.288949 218.88 
C 144.288949 219.35006 144.475706 219.800931 144.808089 220.133314 
C 145.140472 220.465697 145.591343 220.652454 146.061403 220.652454 
z
" style="fill:#440154;fill-opacity:0.501961;"/>
    <path clip-path="url(#p9c4c702214)" d="M 407.053043 115.334164 
C 407.523103 115.334164 407.973974 115.147407 408.306357 114.815024 
C 408.63874 114.482641 408.825496 114.03177 408.825496 113.56171 
C 408.825496 113.09165 408.63874 112.640779 408.306357 112.308396 
C 407.973974 111.976013 407.523103 111.789256 407.053043 111.789256 
C 406.582982 111.789256 406.132111 111.976013 405.799729 112.308396 
C 405.467346 112.640779 405.280589 113.09165 405.280589 113.56171 
C 405.280589 114.03177 405.467346 114.482641 405.799729 114.815024 
C 406.132111 115.147407 406.582982 115.334164 407.053043 115.334164 
z
" style="fill:#21918c;fill-opacity:0.501961;"/>
    <path clip-path="url(#p9c4c702214)" d="M 578.001647 95.017804 
C 578.471707 95.017804 578.922578 94.831047 579.254961 94.498665 
C 579.587344 94.166282 579.774101 93.715411 579.774101 93.245351 
C 579.774101 92.77529 579.587344 92.324419 579.254961 91.992036 
C 578.922578 91.659654 578.471707 91.472897 578.001647 91.472897 
C 577.531587 91.472897 577.080715 91.659654 576.748333 91.992036 
C 576.41595 92.324419 576.229193 92.77529 576.229193 93.245351 
C 576.229193 93.715411 576.41595 94.166282 576.748333 94.498665 
C 577.080715 94.831047 577.531587 95.017804 578.001647 95.017804 
z
" style="fill:#fde725;fill-opacity:0.501961;"/>
    <path clip-path="url(#p9c4c702214)" d="M 180.428288 122.593724 
C 180.898349 122.593724 181.34922 122.406967 181.681603 122.074584 
C 182.013985 121.742202 182.200742 121.29133 182.200742 120.82127 
C 182.200742 120.35121 182.013985 119.900339 181.681603 119.567956 
C 181.34922 119.235573 180.898349 119.048816 180.428288 119.048816 
C 179.958228 119.048816 179.507357 119.235573 179.174974 119.567956 
C 178.842592 119.900339 178.655835 120.35121 178.655835 120.82127 
C 178.655835 121.29133 178.842592 121.742202 179.174974 122.074584 
C 179.507357 122.406967 179.958228 122.593724 180.428288 122.593724 
z
" style="fill:#440154;fill-opacity:0.501961;"/>
    <path clip-path="url(#p9c4c702214)" d="M 601.343211 19.052454 
C 601.813272 19.052454 602.264143 18.865697 602.596526 18.533314 
C 602.928908 18.200931 603.115665 17.75006 603.115665 17.28 
C 603.115665 16.80994 602.928908 16.359069 602.596526 16.026686 
C 602.264143 15.694303 601.813272 15.507546 601.343211 15.507546 
C 600.873151 15.507546 600.42228 15.694303 600.089897 16.026686 
C 599.757514 16.359069 599.570758 16.80994 599.570758 17.28 
C 599.570758 17.75006 599.757514 18.200931 600.089897 18.533314 
C 600.42228 18.865697 600.873151 19.052454 601.343211 19.052454 
z
" style="fill:#fde725;fill-opacity:0.501961;"/>
   </g>
   <g id="PathCollection_2">
    <path clip-path="url(#p9c4c702214)" d="M 187.188688 172.509316 
C 187.893778 172.509316 188.570085 172.229181 189.068659 171.730606 
C 189.567233 171.232032 189.847368 170.555725 189.847368 169.850635 
C 189.847368 169.145545 189.567233 168.469238 189.068659 167.970664 
C 188.570085 167.47209 187.893778 167.191954 187.188688 167.191954 
C 186.483597 167.191954 185.80729 167.47209 185.308716 167.970664 
C 184.810142 168.469238 184.530007 169.145545 184.530007 169.850635 
C 184.530007 170.555725 184.810142 171.232032 185.308716 171.730606 
C 185.80729 172.229181 186.483597 172.509316 187.188688 172.509316 
z
" style="fill:#ffffff;stroke:#440154;stroke-width:1.772454;"/>
    <path clip-path="url(#p9c4c702214)" d="M 396.438688 116.220391 
C 397.143778 116.220391 397.820085 115.940256 398.318659 115.441681 
C 398.817233 114.943107 399.097368 114.266801 399.097368 113.56171 
C 399.097368 112.85662 398.817233 112.180313 398.318659 111.681739 
C 397.820085 111.183165 397.143778 110.903029 396.438688 110.903029 
C 395.733597 110.903029 395.05729 111.183165 394.558716 111.681739 
C 394.060142 112.180313 393.780007 112.85662 393.780007 113.56171 
C 393.780007 114.266801 394.060142 114.943107 394.558716 115.441681 
C 395.05729 115.940256 395.733597 116.220391 396.438688 116.220391 
z
" style="fill:#ffffff;stroke:#21918c;stroke-width:1.772454;"/>
    <path clip-path="url(#p9c4c702214)" d="M 605.688688 57.921356 
C 606.393778 57.921356 607.070085 57.641221 607.568659 57.142646 
C 608.067233 56.644072 608.347368 55.967766 608.347368 55.262675 
C 608.347368 54.557585 608.067233 53.881278 607.568659 53.382704 
C 607.070085 52.88413 606.393778 52.603995 605.688688 52.603995 
C 604.983597 52.603995 604.30729 52.88413 603.808716 53.382704 
C 603.310142 53.881278 603.030007 54.557585 603.030007 55.262675 
C 603.030007 55.967766 603.310142 56.644072 603.808716 57.142646 
C 604.30729 57.641221 604.983597 57.921356 605.688688 57.921356 
z
" style="fill:#ffffff;stroke:#fde725;stroke-width:1.772454;"/>
   </g>
  </g>
 </g>
 <defs>
  <clipPath id="p9c4c702214">
   <rect height="221.76" width="669.6" x="61.638688" y="7.2"/>
  </clipPath>
 </defs>
</svg>
