<?xml version="1.0" encoding="utf-8" standalone="no"?>
<!DOCTYPE svg PUBLIC "-//W3C//DTD SVG 1.1//EN"
  "http://www.w3.org/Graphics/SVG/1.1/DTD/svg11.dtd">
<!-- Created with matplotlib (https://matplotlib.org/) -->
<svg height="320.112687pt" version="1.1" viewBox="0 0 388.789688 320.112687" width="388.789688pt" xmlns="http://www.w3.org/2000/svg" xmlns:xlink="http://www.w3.org/1999/xlink">
 <defs>
  <style type="text/css">
*{stroke-linecap:butt;stroke-linejoin:round;}
  </style>
 </defs>
 <g id="figure_1">
  <g id="patch_1">
   <path d="M -0 320.112687 
L 388.789688 320.112687 
L 388.789688 0 
L -0 0 
z
" style="fill:#ffffff;stroke:#ffffff;stroke-linejoin:miter;"/>
  </g>
  <g id="axes_1">
   <g id="patch_2">
    <path d="M 46.789688 284.4 
L 381.589688 284.4 
L 381.589688 7.2 
L 46.789688 7.2 
z
" style="fill:#ffffff;"/>
   </g>
   <g id="matplotlib.axis_1">
    <g id="xtick_1">
     <g id="line2d_1">
      <path d="M 62.007869 284.4 
" style="fill:none;stroke:#333333;stroke-width:1.5;"/>
      <defs>
       <path d="M 0 0 
L 0 2.75 
" id="mb7ce5055d9" style="stroke:#333333;"/>
      </defs>
      <g>
       <use style="fill:#333333;stroke:#333333;" x="62.007869" xlink:href="#mb7ce5055d9" y="284.4"/>
      </g>
     </g>
     <g id="text_1">
      <!-- 0 -->
      <defs>
       <path d="M 31.78125 66.40625 
Q 24.171875 66.40625 20.328125 58.90625 
Q 16.5 51.421875 16.5 36.375 
Q 16.5 21.390625 20.328125 13.890625 
Q 24.171875 6.390625 31.78125 6.390625 
Q 39.453125 6.390625 43.28125 13.890625 
Q 47.125 21.390625 47.125 36.375 
Q 47.125 51.421875 43.28125 58.90625 
Q 39.453125 66.40625 31.78125 66.40625 
z
M 31.78125 74.21875 
Q 44.046875 74.21875 50.515625 64.515625 
Q 56.984375 54.828125 56.984375 36.375 
Q 56.984375 17.96875 50.515625 8.265625 
Q 44.046875 -1.421875 31.78125 -1.421875 
Q 19.53125 -1.421875 13.0625 8.265625 
Q 6.59375 17.96875 6.59375 36.375 
Q 6.59375 54.828125 13.0625 64.515625 
Q 19.53125 74.21875 31.78125 74.21875 
z
" id="DejaVuSans-48"/>
      </defs>
      <g style="fill:#4d4d4d;" transform="translate(59.208369 296.036625)scale(0.088 -0.088)">
       <use xlink:href="#DejaVuSans-48"/>
      </g>
     </g>
    </g>
    <g id="xtick_2">
     <g id="line2d_2">
      <path d="M 138.098778 284.4 
" style="fill:none;stroke:#333333;stroke-width:1.5;"/>
      <g>
       <use style="fill:#333333;stroke:#333333;" x="138.098778" xlink:href="#mb7ce5055d9" y="284.4"/>
      </g>
     </g>
     <g id="text_2">
      <!-- 0.25 -->
      <defs>
       <path d="M 10.6875 12.40625 
L 21 12.40625 
L 21 0 
L 10.6875 0 
z
" id="DejaVuSans-46"/>
       <path d="M 19.1875 8.296875 
L 53.609375 8.296875 
L 53.609375 0 
L 7.328125 0 
L 7.328125 8.296875 
Q 12.9375 14.109375 22.625 23.890625 
Q 32.328125 33.6875 34.8125 36.53125 
Q 39.546875 41.84375 41.421875 45.53125 
Q 43.3125 49.21875 43.3125 52.78125 
Q 43.3125 58.59375 39.234375 62.25 
Q 35.15625 65.921875 28.609375 65.921875 
Q 23.96875 65.921875 18.8125 64.3125 
Q 13.671875 62.703125 7.8125 59.421875 
L 7.8125 69.390625 
Q 13.765625 71.78125 18.9375 73 
Q 24.125 74.21875 28.421875 74.21875 
Q 39.75 74.21875 46.484375 68.546875 
Q 53.21875 62.890625 53.21875 53.421875 
Q 53.21875 48.921875 51.53125 44.890625 
Q 49.859375 40.875 45.40625 35.40625 
Q 44.1875 33.984375 37.640625 27.21875 
Q 31.109375 20.453125 19.1875 8.296875 
z
" id="DejaVuSans-50"/>
       <path d="M 10.796875 72.90625 
L 49.515625 72.90625 
L 49.515625 64.59375 
L 19.828125 64.59375 
L 19.828125 46.734375 
Q 21.96875 47.46875 24.109375 47.828125 
Q 26.265625 48.1875 28.421875 48.1875 
Q 40.625 48.1875 47.75 41.5 
Q 54.890625 34.8125 54.890625 23.390625 
Q 54.890625 11.625 47.5625 5.09375 
Q 40.234375 -1.421875 26.90625 -1.421875 
Q 22.3125 -1.421875 17.546875 -0.640625 
Q 12.796875 0.140625 7.71875 1.703125 
L 7.71875 11.625 
Q 12.109375 9.234375 16.796875 8.0625 
Q 21.484375 6.890625 26.703125 6.890625 
Q 35.15625 6.890625 40.078125 11.328125 
Q 45.015625 15.765625 45.015625 23.390625 
Q 45.015625 31 40.078125 35.4375 
Q 35.15625 39.890625 26.703125 39.890625 
Q 22.75 39.890625 18.8125 39.015625 
Q 14.890625 38.140625 10.796875 36.28125 
z
" id="DejaVuSans-53"/>
      </defs>
      <g style="fill:#4d4d4d;" transform="translate(128.301903 296.036625)scale(0.088 -0.088)">
       <use xlink:href="#DejaVuSans-48"/>
       <use x="63.623047" xlink:href="#DejaVuSans-46"/>
       <use x="95.410156" xlink:href="#DejaVuSans-50"/>
       <use x="159.033203" xlink:href="#DejaVuSans-53"/>
      </g>
     </g>
    </g>
    <g id="xtick_3">
     <g id="line2d_3">
      <path d="M 214.189688 284.4 
" style="fill:none;stroke:#333333;stroke-width:1.5;"/>
      <g>
       <use style="fill:#333333;stroke:#333333;" x="214.189688" xlink:href="#mb7ce5055d9" y="284.4"/>
      </g>
     </g>
     <g id="text_3">
      <!-- 0.50 -->
      <g style="fill:#4d4d4d;" transform="translate(204.392813 296.036625)scale(0.088 -0.088)">
       <use xlink:href="#DejaVuSans-48"/>
       <use x="63.623047" xlink:href="#DejaVuSans-46"/>
       <use x="95.410156" xlink:href="#DejaVuSans-53"/>
       <use x="159.033203" xlink:href="#DejaVuSans-48"/>
      </g>
     </g>
    </g>
    <g id="xtick_4">
     <g id="line2d_4">
      <path d="M 290.280597 284.4 
" style="fill:none;stroke:#333333;stroke-width:1.5;"/>
      <g>
       <use style="fill:#333333;stroke:#333333;" x="290.280597" xlink:href="#mb7ce5055d9" y="284.4"/>
      </g>
     </g>
     <g id="text_4">
      <!-- 0.75 -->
      <defs>
       <path d="M 8.203125 72.90625 
L 55.078125 72.90625 
L 55.078125 68.703125 
L 28.609375 0 
L 18.3125 0 
L 43.21875 64.59375 
L 8.203125 64.59375 
z
" id="DejaVuSans-55"/>
      </defs>
      <g style="fill:#4d4d4d;" transform="translate(280.483722 296.036625)scale(0.088 -0.088)">
       <use xlink:href="#DejaVuSans-48"/>
       <use x="63.623047" xlink:href="#DejaVuSans-46"/>
       <use x="95.410156" xlink:href="#DejaVuSans-55"/>
       <use x="159.033203" xlink:href="#DejaVuSans-53"/>
      </g>
     </g>
    </g>
    <g id="xtick_5">
     <g id="line2d_5">
      <path d="M 366.371506 284.4 
" style="fill:none;stroke:#333333;stroke-width:1.5;"/>
      <g>
       <use style="fill:#333333;stroke:#333333;" x="366.371506" xlink:href="#mb7ce5055d9" y="284.4"/>
      </g>
     </g>
     <g id="text_5">
      <!-- 1 -->
      <defs>
       <path d="M 12.40625 8.296875 
L 28.515625 8.296875 
L 28.515625 63.921875 
L 10.984375 60.40625 
L 10.984375 69.390625 
L 28.421875 72.90625 
L 38.28125 72.90625 
L 38.28125 8.296875 
L 54.390625 8.296875 
L 54.390625 0 
L 12.40625 0 
z
" id="DejaVuSans-49"/>
      </defs>
      <g style="fill:#4d4d4d;" transform="translate(363.572006 296.036625)scale(0.088 -0.088)">
       <use xlink:href="#DejaVuSans-49"/>
      </g>
     </g>
    </g>
    <g id="xtick_6"/>
    <g id="xtick_7"/>
    <g id="xtick_8"/>
    <g id="xtick_9"/>
    <g id="text_6">
     <!-- abundance [%] -->
     <defs>
      <path d="M 34.28125 27.484375 
Q 23.390625 27.484375 19.1875 25 
Q 14.984375 22.515625 14.984375 16.5 
Q 14.984375 11.71875 18.140625 8.90625 
Q 21.296875 6.109375 26.703125 6.109375 
Q 34.1875 6.109375 38.703125 11.40625 
Q 43.21875 16.703125 43.21875 25.484375 
L 43.21875 27.484375 
z
M 52.203125 31.203125 
L 52.203125 0 
L 43.21875 0 
L 43.21875 8.296875 
Q 40.140625 3.328125 35.546875 0.953125 
Q 30.953125 -1.421875 24.3125 -1.421875 
Q 15.921875 -1.421875 10.953125 3.296875 
Q 6 8.015625 6 15.921875 
Q 6 25.140625 12.171875 29.828125 
Q 18.359375 34.515625 30.609375 34.515625 
L 43.21875 34.515625 
L 43.21875 35.40625 
Q 43.21875 41.609375 39.140625 45 
Q 35.0625 48.390625 27.6875 48.390625 
Q 23 48.390625 18.546875 47.265625 
Q 14.109375 46.140625 10.015625 43.890625 
L 10.015625 52.203125 
Q 14.9375 54.109375 19.578125 55.046875 
Q 24.21875 56 28.609375 56 
Q 40.484375 56 46.34375 49.84375 
Q 52.203125 43.703125 52.203125 31.203125 
z
" id="DejaVuSans-97"/>
      <path d="M 48.6875 27.296875 
Q 48.6875 37.203125 44.609375 42.84375 
Q 40.53125 48.484375 33.40625 48.484375 
Q 26.265625 48.484375 22.1875 42.84375 
Q 18.109375 37.203125 18.109375 27.296875 
Q 18.109375 17.390625 22.1875 11.75 
Q 26.265625 6.109375 33.40625 6.109375 
Q 40.53125 6.109375 44.609375 11.75 
Q 48.6875 17.390625 48.6875 27.296875 
z
M 18.109375 46.390625 
Q 20.953125 51.265625 25.265625 53.625 
Q 29.59375 56 35.59375 56 
Q 45.5625 56 51.78125 48.09375 
Q 58.015625 40.1875 58.015625 27.296875 
Q 58.015625 14.40625 51.78125 6.484375 
Q 45.5625 -1.421875 35.59375 -1.421875 
Q 29.59375 -1.421875 25.265625 0.953125 
Q 20.953125 3.328125 18.109375 8.203125 
L 18.109375 0 
L 9.078125 0 
L 9.078125 75.984375 
L 18.109375 75.984375 
z
" id="DejaVuSans-98"/>
      <path d="M 8.5 21.578125 
L 8.5 54.6875 
L 17.484375 54.6875 
L 17.484375 21.921875 
Q 17.484375 14.15625 20.5 10.265625 
Q 23.53125 6.390625 29.59375 6.390625 
Q 36.859375 6.390625 41.078125 11.03125 
Q 45.3125 15.671875 45.3125 23.6875 
L 45.3125 54.6875 
L 54.296875 54.6875 
L 54.296875 0 
L 45.3125 0 
L 45.3125 8.40625 
Q 42.046875 3.421875 37.71875 1 
Q 33.40625 -1.421875 27.6875 -1.421875 
Q 18.265625 -1.421875 13.375 4.4375 
Q 8.5 10.296875 8.5 21.578125 
z
M 31.109375 56 
z
" id="DejaVuSans-117"/>
      <path d="M 54.890625 33.015625 
L 54.890625 0 
L 45.90625 0 
L 45.90625 32.71875 
Q 45.90625 40.484375 42.875 44.328125 
Q 39.84375 48.1875 33.796875 48.1875 
Q 26.515625 48.1875 22.3125 43.546875 
Q 18.109375 38.921875 18.109375 30.90625 
L 18.109375 0 
L 9.078125 0 
L 9.078125 54.6875 
L 18.109375 54.6875 
L 18.109375 46.1875 
Q 21.34375 51.125 25.703125 53.5625 
Q 30.078125 56 35.796875 56 
Q 45.21875 56 50.046875 50.171875 
Q 54.890625 44.34375 54.890625 33.015625 
z
" id="DejaVuSans-110"/>
      <path d="M 45.40625 46.390625 
L 45.40625 75.984375 
L 54.390625 75.984375 
L 54.390625 0 
L 45.40625 0 
L 45.40625 8.203125 
Q 42.578125 3.328125 38.25 0.953125 
Q 33.9375 -1.421875 27.875 -1.421875 
Q 17.96875 -1.421875 11.734375 6.484375 
Q 5.515625 14.40625 5.515625 27.296875 
Q 5.515625 40.1875 11.734375 48.09375 
Q 17.96875 56 27.875 56 
Q 33.9375 56 38.25 53.625 
Q 42.578125 51.265625 45.40625 46.390625 
z
M 14.796875 27.296875 
Q 14.796875 17.390625 18.875 11.75 
Q 22.953125 6.109375 30.078125 6.109375 
Q 37.203125 6.109375 41.296875 11.75 
Q 45.40625 17.390625 45.40625 27.296875 
Q 45.40625 37.203125 41.296875 42.84375 
Q 37.203125 48.484375 30.078125 48.484375 
Q 22.953125 48.484375 18.875 42.84375 
Q 14.796875 37.203125 14.796875 27.296875 
z
" id="DejaVuSans-100"/>
      <path d="M 48.78125 52.59375 
L 48.78125 44.1875 
Q 44.96875 46.296875 41.140625 47.34375 
Q 37.3125 48.390625 33.40625 48.390625 
Q 24.65625 48.390625 19.8125 42.84375 
Q 14.984375 37.3125 14.984375 27.296875 
Q 14.984375 17.28125 19.8125 11.734375 
Q 24.65625 6.203125 33.40625 6.203125 
Q 37.3125 6.203125 41.140625 7.25 
Q 44.96875 8.296875 48.78125 10.40625 
L 48.78125 2.09375 
Q 45.015625 0.34375 40.984375 -0.53125 
Q 36.96875 -1.421875 32.421875 -1.421875 
Q 20.0625 -1.421875 12.78125 6.34375 
Q 5.515625 14.109375 5.515625 27.296875 
Q 5.515625 40.671875 12.859375 48.328125 
Q 20.21875 56 33.015625 56 
Q 37.15625 56 41.109375 55.140625 
Q 45.0625 54.296875 48.78125 52.59375 
z
" id="DejaVuSans-99"/>
      <path d="M 56.203125 29.59375 
L 56.203125 25.203125 
L 14.890625 25.203125 
Q 15.484375 15.921875 20.484375 11.0625 
Q 25.484375 6.203125 34.421875 6.203125 
Q 39.59375 6.203125 44.453125 7.46875 
Q 49.3125 8.734375 54.109375 11.28125 
L 54.109375 2.78125 
Q 49.265625 0.734375 44.1875 -0.34375 
Q 39.109375 -1.421875 33.890625 -1.421875 
Q 20.796875 -1.421875 13.15625 6.1875 
Q 5.515625 13.8125 5.515625 26.8125 
Q 5.515625 40.234375 12.765625 48.109375 
Q 20.015625 56 32.328125 56 
Q 43.359375 56 49.78125 48.890625 
Q 56.203125 41.796875 56.203125 29.59375 
z
M 47.21875 32.234375 
Q 47.125 39.59375 43.09375 43.984375 
Q 39.0625 48.390625 32.421875 48.390625 
Q 24.90625 48.390625 20.390625 44.140625 
Q 15.875 39.890625 15.1875 32.171875 
z
" id="DejaVuSans-101"/>
      <path id="DejaVuSans-32"/>
      <path d="M 8.59375 75.984375 
L 29.296875 75.984375 
L 29.296875 69 
L 17.578125 69 
L 17.578125 -6.203125 
L 29.296875 -6.203125 
L 29.296875 -13.1875 
L 8.59375 -13.1875 
z
" id="DejaVuSans-91"/>
      <path d="M 72.703125 32.078125 
Q 68.453125 32.078125 66.03125 28.46875 
Q 63.625 24.859375 63.625 18.40625 
Q 63.625 12.0625 66.03125 8.421875 
Q 68.453125 4.78125 72.703125 4.78125 
Q 76.859375 4.78125 79.265625 8.421875 
Q 81.6875 12.0625 81.6875 18.40625 
Q 81.6875 24.8125 79.265625 28.4375 
Q 76.859375 32.078125 72.703125 32.078125 
z
M 72.703125 38.28125 
Q 80.421875 38.28125 84.953125 32.90625 
Q 89.5 27.546875 89.5 18.40625 
Q 89.5 9.28125 84.9375 3.921875 
Q 80.375 -1.421875 72.703125 -1.421875 
Q 64.890625 -1.421875 60.34375 3.921875 
Q 55.8125 9.28125 55.8125 18.40625 
Q 55.8125 27.59375 60.375 32.9375 
Q 64.9375 38.28125 72.703125 38.28125 
z
M 22.3125 68.015625 
Q 18.109375 68.015625 15.6875 64.375 
Q 13.28125 60.75 13.28125 54.390625 
Q 13.28125 47.953125 15.671875 44.328125 
Q 18.0625 40.71875 22.3125 40.71875 
Q 26.5625 40.71875 28.96875 44.328125 
Q 31.390625 47.953125 31.390625 54.390625 
Q 31.390625 60.6875 28.953125 64.34375 
Q 26.515625 68.015625 22.3125 68.015625 
z
M 66.40625 74.21875 
L 74.21875 74.21875 
L 28.609375 -1.421875 
L 20.796875 -1.421875 
z
M 22.3125 74.21875 
Q 30.03125 74.21875 34.609375 68.875 
Q 39.203125 63.53125 39.203125 54.390625 
Q 39.203125 45.171875 34.640625 39.84375 
Q 30.078125 34.515625 22.3125 34.515625 
Q 14.546875 34.515625 10.03125 39.859375 
Q 5.515625 45.21875 5.515625 54.390625 
Q 5.515625 63.484375 10.046875 68.84375 
Q 14.59375 74.21875 22.3125 74.21875 
z
" id="DejaVuSans-37"/>
      <path d="M 30.421875 75.984375 
L 30.421875 -13.1875 
L 9.71875 -13.1875 
L 9.71875 -6.203125 
L 21.390625 -6.203125 
L 21.390625 69 
L 9.71875 69 
L 9.71875 75.984375 
z
" id="DejaVuSans-93"/>
     </defs>
     <g transform="translate(166.934688 310.625031)scale(0.11 -0.11)">
      <use xlink:href="#DejaVuSans-97"/>
      <use x="61.279297" xlink:href="#DejaVuSans-98"/>
      <use x="124.755859" xlink:href="#DejaVuSans-117"/>
      <use x="188.134766" xlink:href="#DejaVuSans-110"/>
      <use x="251.513672" xlink:href="#DejaVuSans-100"/>
      <use x="314.990234" xlink:href="#DejaVuSans-97"/>
      <use x="376.269531" xlink:href="#DejaVuSans-110"/>
      <use x="439.648438" xlink:href="#DejaVuSans-99"/>
      <use x="494.628906" xlink:href="#DejaVuSans-101"/>
      <use x="556.152344" xlink:href="#DejaVuSans-32"/>
      <use x="587.939453" xlink:href="#DejaVuSans-91"/>
      <use x="626.953125" xlink:href="#DejaVuSans-37"/>
      <use x="721.972656" xlink:href="#DejaVuSans-93"/>
     </g>
    </g>
   </g>
   <g id="matplotlib.axis_2">
    <g id="ytick_1">
     <g id="line2d_6">
      <path d="M 46.789688 271.8 
" style="fill:none;stroke:#333333;stroke-width:1.5;"/>
      <defs>
       <path d="M 0 0 
L -2.75 0 
" id="m43f50e9008" style="stroke:#333333;"/>
      </defs>
      <g>
       <use style="fill:#333333;stroke:#333333;" x="46.789688" xlink:href="#m43f50e9008" y="271.8"/>
      </g>
     </g>
     <g id="text_7">
      <!-- 0 -->
      <g style="fill:#4d4d4d;" transform="translate(36.240688 274.22825)scale(0.088 -0.088)">
       <use xlink:href="#DejaVuSans-48"/>
      </g>
     </g>
    </g>
    <g id="ytick_2">
     <g id="line2d_7">
      <path d="M 46.789688 220.943585 
" style="fill:none;stroke:#333333;stroke-width:1.5;"/>
      <g>
       <use style="fill:#333333;stroke:#333333;" x="46.789688" xlink:href="#m43f50e9008" y="220.943585"/>
      </g>
     </g>
     <g id="text_8">
      <!-- 0.01 -->
      <g style="fill:#4d4d4d;" transform="translate(22.245938 223.371835)scale(0.088 -0.088)">
       <use xlink:href="#DejaVuSans-48"/>
       <use x="63.623047" xlink:href="#DejaVuSans-46"/>
       <use x="95.410156" xlink:href="#DejaVuSans-48"/>
       <use x="159.033203" xlink:href="#DejaVuSans-49"/>
      </g>
     </g>
    </g>
    <g id="ytick_3">
     <g id="line2d_8">
      <path d="M 46.789688 170.087171 
" style="fill:none;stroke:#333333;stroke-width:1.5;"/>
      <g>
       <use style="fill:#333333;stroke:#333333;" x="46.789688" xlink:href="#m43f50e9008" y="170.087171"/>
      </g>
     </g>
     <g id="text_9">
      <!-- 0.02 -->
      <g style="fill:#4d4d4d;" transform="translate(22.245938 172.515421)scale(0.088 -0.088)">
       <use xlink:href="#DejaVuSans-48"/>
       <use x="63.623047" xlink:href="#DejaVuSans-46"/>
       <use x="95.410156" xlink:href="#DejaVuSans-48"/>
       <use x="159.033203" xlink:href="#DejaVuSans-50"/>
      </g>
     </g>
    </g>
    <g id="ytick_4">
     <g id="line2d_9">
      <path d="M 46.789688 119.230756 
" style="fill:none;stroke:#333333;stroke-width:1.5;"/>
      <g>
       <use style="fill:#333333;stroke:#333333;" x="46.789688" xlink:href="#m43f50e9008" y="119.230756"/>
      </g>
     </g>
     <g id="text_10">
      <!-- 0.03 -->
      <defs>
       <path d="M 40.578125 39.3125 
Q 47.65625 37.796875 51.625 33 
Q 55.609375 28.21875 55.609375 21.1875 
Q 55.609375 10.40625 48.1875 4.484375 
Q 40.765625 -1.421875 27.09375 -1.421875 
Q 22.515625 -1.421875 17.65625 -0.515625 
Q 12.796875 0.390625 7.625 2.203125 
L 7.625 11.71875 
Q 11.71875 9.328125 16.59375 8.109375 
Q 21.484375 6.890625 26.8125 6.890625 
Q 36.078125 6.890625 40.9375 10.546875 
Q 45.796875 14.203125 45.796875 21.1875 
Q 45.796875 27.640625 41.28125 31.265625 
Q 36.765625 34.90625 28.71875 34.90625 
L 20.21875 34.90625 
L 20.21875 43.015625 
L 29.109375 43.015625 
Q 36.375 43.015625 40.234375 45.921875 
Q 44.09375 48.828125 44.09375 54.296875 
Q 44.09375 59.90625 40.109375 62.90625 
Q 36.140625 65.921875 28.71875 65.921875 
Q 24.65625 65.921875 20.015625 65.03125 
Q 15.375 64.15625 9.8125 62.3125 
L 9.8125 71.09375 
Q 15.4375 72.65625 20.34375 73.4375 
Q 25.25 74.21875 29.59375 74.21875 
Q 40.828125 74.21875 47.359375 69.109375 
Q 53.90625 64.015625 53.90625 55.328125 
Q 53.90625 49.265625 50.4375 45.09375 
Q 46.96875 40.921875 40.578125 39.3125 
z
" id="DejaVuSans-51"/>
      </defs>
      <g style="fill:#4d4d4d;" transform="translate(22.245938 121.659006)scale(0.088 -0.088)">
       <use xlink:href="#DejaVuSans-48"/>
       <use x="63.623047" xlink:href="#DejaVuSans-46"/>
       <use x="95.410156" xlink:href="#DejaVuSans-48"/>
       <use x="159.033203" xlink:href="#DejaVuSans-51"/>
      </g>
     </g>
    </g>
    <g id="ytick_5">
     <g id="line2d_10">
      <path d="M 46.789688 68.374342 
" style="fill:none;stroke:#333333;stroke-width:1.5;"/>
      <g>
       <use style="fill:#333333;stroke:#333333;" x="46.789688" xlink:href="#m43f50e9008" y="68.374342"/>
      </g>
     </g>
     <g id="text_11">
      <!-- 0.04 -->
      <defs>
       <path d="M 37.796875 64.3125 
L 12.890625 25.390625 
L 37.796875 25.390625 
z
M 35.203125 72.90625 
L 47.609375 72.90625 
L 47.609375 25.390625 
L 58.015625 25.390625 
L 58.015625 17.1875 
L 47.609375 17.1875 
L 47.609375 0 
L 37.796875 0 
L 37.796875 17.1875 
L 4.890625 17.1875 
L 4.890625 26.703125 
z
" id="DejaVuSans-52"/>
      </defs>
      <g style="fill:#4d4d4d;" transform="translate(22.245938 70.802592)scale(0.088 -0.088)">
       <use xlink:href="#DejaVuSans-48"/>
       <use x="63.623047" xlink:href="#DejaVuSans-46"/>
       <use x="95.410156" xlink:href="#DejaVuSans-48"/>
       <use x="159.033203" xlink:href="#DejaVuSans-52"/>
      </g>
     </g>
    </g>
    <g id="ytick_6">
     <g id="line2d_11">
      <path d="M 46.789688 17.517927 
" style="fill:none;stroke:#333333;stroke-width:1.5;"/>
      <g>
       <use style="fill:#333333;stroke:#333333;" x="46.789688" xlink:href="#m43f50e9008" y="17.517927"/>
      </g>
     </g>
     <g id="text_12">
      <!-- 0.05 -->
      <g style="fill:#4d4d4d;" transform="translate(22.245938 19.946177)scale(0.088 -0.088)">
       <use xlink:href="#DejaVuSans-48"/>
       <use x="63.623047" xlink:href="#DejaVuSans-46"/>
       <use x="95.410156" xlink:href="#DejaVuSans-48"/>
       <use x="159.033203" xlink:href="#DejaVuSans-53"/>
      </g>
     </g>
    </g>
    <g id="ytick_7"/>
    <g id="ytick_8"/>
    <g id="ytick_9"/>
    <g id="ytick_10"/>
    <g id="ytick_11"/>
    <g id="text_13">
     <!-- growth rate [1/h] -->
     <defs>
      <path d="M 45.40625 27.984375 
Q 45.40625 37.75 41.375 43.109375 
Q 37.359375 48.484375 30.078125 48.484375 
Q 22.859375 48.484375 18.828125 43.109375 
Q 14.796875 37.75 14.796875 27.984375 
Q 14.796875 18.265625 18.828125 12.890625 
Q 22.859375 7.515625 30.078125 7.515625 
Q 37.359375 7.515625 41.375 12.890625 
Q 45.40625 18.265625 45.40625 27.984375 
z
M 54.390625 6.78125 
Q 54.390625 -7.171875 48.1875 -13.984375 
Q 42 -20.796875 29.203125 -20.796875 
Q 24.46875 -20.796875 20.265625 -20.09375 
Q 16.0625 -19.390625 12.109375 -17.921875 
L 12.109375 -9.1875 
Q 16.0625 -11.328125 19.921875 -12.34375 
Q 23.78125 -13.375 27.78125 -13.375 
Q 36.625 -13.375 41.015625 -8.765625 
Q 45.40625 -4.15625 45.40625 5.171875 
L 45.40625 9.625 
Q 42.625 4.78125 38.28125 2.390625 
Q 33.9375 0 27.875 0 
Q 17.828125 0 11.671875 7.65625 
Q 5.515625 15.328125 5.515625 27.984375 
Q 5.515625 40.671875 11.671875 48.328125 
Q 17.828125 56 27.875 56 
Q 33.9375 56 38.28125 53.609375 
Q 42.625 51.21875 45.40625 46.390625 
L 45.40625 54.6875 
L 54.390625 54.6875 
z
" id="DejaVuSans-103"/>
      <path d="M 41.109375 46.296875 
Q 39.59375 47.171875 37.8125 47.578125 
Q 36.03125 48 33.890625 48 
Q 26.265625 48 22.1875 43.046875 
Q 18.109375 38.09375 18.109375 28.8125 
L 18.109375 0 
L 9.078125 0 
L 9.078125 54.6875 
L 18.109375 54.6875 
L 18.109375 46.1875 
Q 20.953125 51.171875 25.484375 53.578125 
Q 30.03125 56 36.53125 56 
Q 37.453125 56 38.578125 55.875 
Q 39.703125 55.765625 41.0625 55.515625 
z
" id="DejaVuSans-114"/>
      <path d="M 30.609375 48.390625 
Q 23.390625 48.390625 19.1875 42.75 
Q 14.984375 37.109375 14.984375 27.296875 
Q 14.984375 17.484375 19.15625 11.84375 
Q 23.34375 6.203125 30.609375 6.203125 
Q 37.796875 6.203125 41.984375 11.859375 
Q 46.1875 17.53125 46.1875 27.296875 
Q 46.1875 37.015625 41.984375 42.703125 
Q 37.796875 48.390625 30.609375 48.390625 
z
M 30.609375 56 
Q 42.328125 56 49.015625 48.375 
Q 55.71875 40.765625 55.71875 27.296875 
Q 55.71875 13.875 49.015625 6.21875 
Q 42.328125 -1.421875 30.609375 -1.421875 
Q 18.84375 -1.421875 12.171875 6.21875 
Q 5.515625 13.875 5.515625 27.296875 
Q 5.515625 40.765625 12.171875 48.375 
Q 18.84375 56 30.609375 56 
z
" id="DejaVuSans-111"/>
      <path d="M 4.203125 54.6875 
L 13.1875 54.6875 
L 24.421875 12.015625 
L 35.59375 54.6875 
L 46.1875 54.6875 
L 57.421875 12.015625 
L 68.609375 54.6875 
L 77.59375 54.6875 
L 63.28125 0 
L 52.6875 0 
L 40.921875 44.828125 
L 29.109375 0 
L 18.5 0 
z
" id="DejaVuSans-119"/>
      <path d="M 18.3125 70.21875 
L 18.3125 54.6875 
L 36.8125 54.6875 
L 36.8125 47.703125 
L 18.3125 47.703125 
L 18.3125 18.015625 
Q 18.3125 11.328125 20.140625 9.421875 
Q 21.96875 7.515625 27.59375 7.515625 
L 36.8125 7.515625 
L 36.8125 0 
L 27.59375 0 
Q 17.1875 0 13.234375 3.875 
Q 9.28125 7.765625 9.28125 18.015625 
L 9.28125 47.703125 
L 2.6875 47.703125 
L 2.6875 54.6875 
L 9.28125 54.6875 
L 9.28125 70.21875 
z
" id="DejaVuSans-116"/>
      <path d="M 54.890625 33.015625 
L 54.890625 0 
L 45.90625 0 
L 45.90625 32.71875 
Q 45.90625 40.484375 42.875 44.328125 
Q 39.84375 48.1875 33.796875 48.1875 
Q 26.515625 48.1875 22.3125 43.546875 
Q 18.109375 38.921875 18.109375 30.90625 
L 18.109375 0 
L 9.078125 0 
L 9.078125 75.984375 
L 18.109375 75.984375 
L 18.109375 46.1875 
Q 21.34375 51.125 25.703125 53.5625 
Q 30.078125 56 35.796875 56 
Q 45.21875 56 50.046875 50.171875 
Q 54.890625 44.34375 54.890625 33.015625 
z
" id="DejaVuSans-104"/>
      <path d="M 25.390625 72.90625 
L 33.6875 72.90625 
L 8.296875 -9.28125 
L 0 -9.28125 
z
" id="DejaVuSans-47"/>
     </defs>
     <g transform="translate(15.558281 191.053359)rotate(-90)scale(0.11 -0.11)">
      <use xlink:href="#DejaVuSans-103"/>
      <use x="63.476562" xlink:href="#DejaVuSans-114"/>
      <use x="104.558594" xlink:href="#DejaVuSans-111"/>
      <use x="165.740234" xlink:href="#DejaVuSans-119"/>
      <use x="247.527344" xlink:href="#DejaVuSans-116"/>
      <use x="286.736328" xlink:href="#DejaVuSans-104"/>
      <use x="350.115234" xlink:href="#DejaVuSans-32"/>
      <use x="381.902344" xlink:href="#DejaVuSans-114"/>
      <use x="423.015625" xlink:href="#DejaVuSans-97"/>
      <use x="484.294922" xlink:href="#DejaVuSans-116"/>
      <use x="523.503906" xlink:href="#DejaVuSans-101"/>
      <use x="585.027344" xlink:href="#DejaVuSans-32"/>
      <use x="616.814453" xlink:href="#DejaVuSans-91"/>
      <use x="655.828125" xlink:href="#DejaVuSans-49"/>
      <use x="719.451172" xlink:href="#DejaVuSans-47"/>
      <use x="753.142578" xlink:href="#DejaVuSans-104"/>
      <use x="816.521484" xlink:href="#DejaVuSans-93"/>
     </g>
    </g>
   </g>
   <g id="PathCollection_1">
    <path clip-path="url(#pdf99cde225)" d="M 89.46925 258.796174 
C 90.056825 258.796174 90.620414 258.562728 91.035892 258.14725 
C 91.451371 257.731771 91.684817 257.168182 91.684817 256.580607 
C 91.684817 255.993032 91.451371 255.429443 91.035892 255.013964 
C 90.620414 254.598486 90.056825 254.36504 89.46925 254.36504 
C 88.881674 254.36504 88.318085 254.598486 87.902607 255.013964 
C 87.487129 255.429443 87.253682 255.993032 87.253682 256.580607 
C 87.253682 257.168182 87.487129 257.731771 87.902607 258.14725 
C 88.318085 258.562728 88.881674 258.796174 89.46925 258.796174 
z
" style="fill:#440154;stroke:#440154;stroke-width:0.886227;"/>
    <path clip-path="url(#pdf99cde225)" d="M 181.007182 208.064866 
C 181.594757 208.064866 182.158346 207.831419 182.573825 207.415941 
C 182.989303 207.000462 183.222749 206.436874 183.222749 205.849298 
C 183.222749 205.261723 182.989303 204.698134 182.573825 204.282656 
C 182.158346 203.867177 181.594757 203.633731 181.007182 203.633731 
C 180.419607 203.633731 179.856018 203.867177 179.440539 204.282656 
C 179.025061 204.698134 178.791615 205.261723 178.791615 205.849298 
C 178.791615 206.436874 179.025061 207.000462 179.440539 207.415941 
C 179.856018 207.831419 180.419607 208.064866 181.007182 208.064866 
z
" style="fill:#440154;stroke:#440154;stroke-width:0.886227;"/>
    <path clip-path="url(#pdf99cde225)" d="M 219.910812 186.504054 
C 220.498388 186.504054 221.061977 186.270608 221.477455 185.85513 
C 221.892934 185.439651 222.12638 184.876062 222.12638 184.288487 
C 222.12638 183.700912 221.892934 183.137323 221.477455 182.721844 
C 221.061977 182.306366 220.498388 182.07292 219.910812 182.07292 
C 219.323237 182.07292 218.759648 182.306366 218.34417 182.721844 
C 217.928691 183.137323 217.695245 183.700912 217.695245 184.288487 
C 217.695245 184.876062 217.928691 185.439651 218.34417 185.85513 
C 218.759648 186.270608 219.323237 186.504054 219.910812 186.504054 
z
" style="fill:#440154;stroke:#440154;stroke-width:0.886227;"/>
    <path clip-path="url(#pdf99cde225)" d="M 236.686134 214.404973 
C 237.27371 214.404973 237.837299 214.171527 238.252777 213.756048 
C 238.668256 213.34057 238.901702 212.776981 238.901702 212.189405 
C 238.901702 211.60183 238.668256 211.038241 238.252777 210.622763 
C 237.837299 210.207284 237.27371 209.973838 236.686134 209.973838 
C 236.098559 209.973838 235.53497 210.207284 235.119492 210.622763 
C 234.704013 211.038241 234.470567 211.60183 234.470567 212.189405 
C 234.470567 212.776981 234.704013 213.34057 235.119492 213.756048 
C 235.53497 214.171527 236.098559 214.404973 236.686134 214.404973 
z
" style="fill:#fde725;stroke:#fde725;stroke-width:0.886227;"/>
    <path clip-path="url(#pdf99cde225)" d="M 145.377034 274.015567 
C 145.96461 274.015567 146.528199 273.782121 146.943677 273.366643 
C 147.359156 272.951164 147.592602 272.387575 147.592602 271.8 
C 147.592602 271.212425 147.359156 270.648836 146.943677 270.233357 
C 146.528199 269.817879 145.96461 269.584433 145.377034 269.584433 
C 144.789459 269.584433 144.22587 269.817879 143.810392 270.233357 
C 143.394913 270.648836 143.161467 271.212425 143.161467 271.8 
C 143.161467 272.387575 143.394913 272.951164 143.810392 273.366643 
C 144.22587 273.782121 144.789459 274.015567 145.377034 274.015567 
z
" style="fill:#fde725;stroke:#fde725;stroke-width:0.886227;"/>
    <path clip-path="url(#pdf99cde225)" d="M 108.324076 22.015567 
C 108.911651 22.015567 109.47524 21.782121 109.890718 21.366643 
C 110.306197 20.951164 110.539643 20.387575 110.539643 19.8 
C 110.539643 19.212425 110.306197 18.648836 109.890718 18.233357 
C 109.47524 17.817879 108.911651 17.584433 108.324076 17.584433 
C 107.7365 17.584433 107.172911 17.817879 106.757433 18.233357 
C 106.341954 18.648836 106.108508 19.212425 106.108508 19.8 
C 106.108508 20.387575 106.341954 20.951164 106.757433 21.366643 
C 107.172911 21.782121 107.7365 22.015567 108.324076 22.015567 
z
" style="fill:#fde725;stroke:#fde725;stroke-width:0.886227;"/>
   </g>
   <g id="LineCollection_1">
    <path clip-path="url(#pdf99cde225)" d="M 62.007869 271.8 
L 62.007869 271.8 
" style="fill:none;stroke:#440154;stroke-dasharray:3.27904,1.417963;stroke-dashoffset:0;stroke-width:0.886227;"/>
    <path clip-path="url(#pdf99cde225)" d="M 62.007869 271.8 
L 65.082249 270.096145 
" style="fill:none;stroke:#fde725;stroke-dasharray:3.27904,1.417963;stroke-dashoffset:0;stroke-width:0.886227;"/>
    <path clip-path="url(#pdf99cde225)" d="M 65.082249 270.096145 
L 65.082249 270.085813 
" style="fill:none;stroke:#440154;stroke-dasharray:3.27904,1.417963;stroke-dashoffset:0;stroke-width:0.886227;"/>
    <path clip-path="url(#pdf99cde225)" d="M 65.082249 270.085813 
L 68.15663 268.392291 
" style="fill:none;stroke:#fde725;stroke-dasharray:3.27904,1.417963;stroke-dashoffset:0;stroke-width:0.886227;"/>
    <path clip-path="url(#pdf99cde225)" d="M 68.15663 268.392291 
L 68.15663 268.371625 
" style="fill:none;stroke:#440154;stroke-dasharray:3.27904,1.417963;stroke-dashoffset:0;stroke-width:0.886227;"/>
    <path clip-path="url(#pdf99cde225)" d="M 68.15663 268.371625 
L 71.23101 266.688436 
" style="fill:none;stroke:#fde725;stroke-dasharray:3.27904,1.417963;stroke-dashoffset:0;stroke-width:0.886227;"/>
    <path clip-path="url(#pdf99cde225)" d="M 71.23101 266.688436 
L 71.23101 266.657438 
" style="fill:none;stroke:#440154;stroke-dasharray:3.27904,1.417963;stroke-dashoffset:0;stroke-width:0.886227;"/>
    <path clip-path="url(#pdf99cde225)" d="M 71.23101 266.657438 
L 74.30539 264.984582 
" style="fill:none;stroke:#fde725;stroke-dasharray:3.27904,1.417963;stroke-dashoffset:0;stroke-width:0.886227;"/>
    <path clip-path="url(#pdf99cde225)" d="M 74.30539 264.984582 
L 74.30539 264.94325 
" style="fill:none;stroke:#440154;stroke-dasharray:3.27904,1.417963;stroke-dashoffset:0;stroke-width:0.886227;"/>
    <path clip-path="url(#pdf99cde225)" d="M 74.30539 264.94325 
L 77.37977 263.280727 
" style="fill:none;stroke:#fde725;stroke-dasharray:3.27904,1.417963;stroke-dashoffset:0;stroke-width:0.886227;"/>
    <path clip-path="url(#pdf99cde225)" d="M 77.37977 263.280727 
L 77.37977 263.229063 
" style="fill:none;stroke:#440154;stroke-dasharray:3.27904,1.417963;stroke-dashoffset:0;stroke-width:0.886227;"/>
    <path clip-path="url(#pdf99cde225)" d="M 77.37977 263.229063 
L 80.45415 261.576872 
" style="fill:none;stroke:#fde725;stroke-dasharray:3.27904,1.417963;stroke-dashoffset:0;stroke-width:0.886227;"/>
    <path clip-path="url(#pdf99cde225)" d="M 80.45415 261.576872 
L 80.45415 261.514875 
" style="fill:none;stroke:#440154;stroke-dasharray:3.27904,1.417963;stroke-dashoffset:0;stroke-width:0.886227;"/>
    <path clip-path="url(#pdf99cde225)" d="M 80.45415 261.514875 
L 83.52853 259.873018 
" style="fill:none;stroke:#fde725;stroke-dasharray:3.27904,1.417963;stroke-dashoffset:0;stroke-width:0.886227;"/>
    <path clip-path="url(#pdf99cde225)" d="M 83.52853 259.873018 
L 83.52853 259.800688 
" style="fill:none;stroke:#440154;stroke-dasharray:3.27904,1.417963;stroke-dashoffset:0;stroke-width:0.886227;"/>
    <path clip-path="url(#pdf99cde225)" d="M 83.52853 259.800688 
L 86.602911 258.169163 
" style="fill:none;stroke:#fde725;stroke-dasharray:3.27904,1.417963;stroke-dashoffset:0;stroke-width:0.886227;"/>
    <path clip-path="url(#pdf99cde225)" d="M 86.602911 258.169163 
L 86.602911 258.0865 
" style="fill:none;stroke:#440154;stroke-dasharray:3.27904,1.417963;stroke-dashoffset:0;stroke-width:0.886227;"/>
    <path clip-path="url(#pdf99cde225)" d="M 86.602911 258.0865 
L 89.677291 256.465308 
" style="fill:none;stroke:#fde725;stroke-dasharray:3.27904,1.417963;stroke-dashoffset:0;stroke-width:0.886227;"/>
    <path clip-path="url(#pdf99cde225)" d="M 89.677291 256.465308 
L 89.677291 256.372313 
" style="fill:none;stroke:#440154;stroke-dasharray:3.27904,1.417963;stroke-dashoffset:0;stroke-width:0.886227;"/>
    <path clip-path="url(#pdf99cde225)" d="M 89.677291 256.372313 
L 92.751671 254.761454 
" style="fill:none;stroke:#fde725;stroke-dasharray:3.27904,1.417963;stroke-dashoffset:0;stroke-width:0.886227;"/>
    <path clip-path="url(#pdf99cde225)" d="M 92.751671 254.761454 
L 92.751671 254.658126 
" style="fill:none;stroke:#440154;stroke-dasharray:3.27904,1.417963;stroke-dashoffset:0;stroke-width:0.886227;"/>
    <path clip-path="url(#pdf99cde225)" d="M 92.751671 254.658126 
L 95.826051 253.057599 
" style="fill:none;stroke:#fde725;stroke-dasharray:3.27904,1.417963;stroke-dashoffset:0;stroke-width:0.886227;"/>
    <path clip-path="url(#pdf99cde225)" d="M 95.826051 253.057599 
L 95.826051 252.943938 
" style="fill:none;stroke:#440154;stroke-dasharray:3.27904,1.417963;stroke-dashoffset:0;stroke-width:0.886227;"/>
    <path clip-path="url(#pdf99cde225)" d="M 95.826051 252.943938 
L 98.900431 251.353745 
" style="fill:none;stroke:#fde725;stroke-dasharray:3.27904,1.417963;stroke-dashoffset:0;stroke-width:0.886227;"/>
    <path clip-path="url(#pdf99cde225)" d="M 98.900431 251.353745 
L 98.900431 251.229751 
" style="fill:none;stroke:#440154;stroke-dasharray:3.27904,1.417963;stroke-dashoffset:0;stroke-width:0.886227;"/>
    <path clip-path="url(#pdf99cde225)" d="M 98.900431 251.229751 
L 101.974811 249.64989 
" style="fill:none;stroke:#fde725;stroke-dasharray:3.27904,1.417963;stroke-dashoffset:0;stroke-width:0.886227;"/>
    <path clip-path="url(#pdf99cde225)" d="M 101.974811 249.64989 
L 101.974811 249.515563 
" style="fill:none;stroke:#440154;stroke-dasharray:3.27904,1.417963;stroke-dashoffset:0;stroke-width:0.886227;"/>
    <path clip-path="url(#pdf99cde225)" d="M 101.974811 249.515563 
L 105.049192 247.946035 
" style="fill:none;stroke:#fde725;stroke-dasharray:3.27904,1.417963;stroke-dashoffset:0;stroke-width:0.886227;"/>
    <path clip-path="url(#pdf99cde225)" d="M 105.049192 247.946035 
L 105.049192 247.801376 
" style="fill:none;stroke:#440154;stroke-dasharray:3.27904,1.417963;stroke-dashoffset:0;stroke-width:0.886227;"/>
    <path clip-path="url(#pdf99cde225)" d="M 105.049192 247.801376 
L 108.123572 246.242181 
" style="fill:none;stroke:#fde725;stroke-dasharray:3.27904,1.417963;stroke-dashoffset:0;stroke-width:0.886227;"/>
    <path clip-path="url(#pdf99cde225)" d="M 108.123572 246.242181 
L 108.123572 246.087188 
" style="fill:none;stroke:#440154;stroke-dasharray:3.27904,1.417963;stroke-dashoffset:0;stroke-width:0.886227;"/>
    <path clip-path="url(#pdf99cde225)" d="M 108.123572 246.087188 
L 111.197952 244.538326 
" style="fill:none;stroke:#fde725;stroke-dasharray:3.27904,1.417963;stroke-dashoffset:0;stroke-width:0.886227;"/>
    <path clip-path="url(#pdf99cde225)" d="M 111.197952 244.538326 
L 111.197952 244.373001 
" style="fill:none;stroke:#440154;stroke-dasharray:3.27904,1.417963;stroke-dashoffset:0;stroke-width:0.886227;"/>
    <path clip-path="url(#pdf99cde225)" d="M 111.197952 244.373001 
L 114.272332 242.834471 
" style="fill:none;stroke:#fde725;stroke-dasharray:3.27904,1.417963;stroke-dashoffset:0;stroke-width:0.886227;"/>
    <path clip-path="url(#pdf99cde225)" d="M 114.272332 242.834471 
L 114.272332 242.658814 
" style="fill:none;stroke:#440154;stroke-dasharray:3.27904,1.417963;stroke-dashoffset:0;stroke-width:0.886227;"/>
    <path clip-path="url(#pdf99cde225)" d="M 114.272332 242.658814 
L 117.346712 241.130617 
" style="fill:none;stroke:#fde725;stroke-dasharray:3.27904,1.417963;stroke-dashoffset:0;stroke-width:0.886227;"/>
    <path clip-path="url(#pdf99cde225)" d="M 117.346712 241.130617 
L 117.346712 240.944626 
" style="fill:none;stroke:#440154;stroke-dasharray:3.27904,1.417963;stroke-dashoffset:0;stroke-width:0.886227;"/>
    <path clip-path="url(#pdf99cde225)" d="M 117.346712 240.944626 
L 120.421092 239.426762 
" style="fill:none;stroke:#fde725;stroke-dasharray:3.27904,1.417963;stroke-dashoffset:0;stroke-width:0.886227;"/>
    <path clip-path="url(#pdf99cde225)" d="M 120.421092 239.426762 
L 120.421092 239.230439 
" style="fill:none;stroke:#440154;stroke-dasharray:3.27904,1.417963;stroke-dashoffset:0;stroke-width:0.886227;"/>
    <path clip-path="url(#pdf99cde225)" d="M 120.421092 239.230439 
L 123.495473 237.722908 
" style="fill:none;stroke:#fde725;stroke-dasharray:3.27904,1.417963;stroke-dashoffset:0;stroke-width:0.886227;"/>
    <path clip-path="url(#pdf99cde225)" d="M 123.495473 237.722908 
L 123.495473 237.516251 
" style="fill:none;stroke:#440154;stroke-dasharray:3.27904,1.417963;stroke-dashoffset:0;stroke-width:0.886227;"/>
    <path clip-path="url(#pdf99cde225)" d="M 123.495473 237.516251 
L 126.569853 236.019053 
" style="fill:none;stroke:#fde725;stroke-dasharray:3.27904,1.417963;stroke-dashoffset:0;stroke-width:0.886227;"/>
    <path clip-path="url(#pdf99cde225)" d="M 126.569853 236.019053 
L 126.569853 235.802064 
" style="fill:none;stroke:#440154;stroke-dasharray:3.27904,1.417963;stroke-dashoffset:0;stroke-width:0.886227;"/>
    <path clip-path="url(#pdf99cde225)" d="M 126.569853 235.802064 
L 129.644233 234.315198 
" style="fill:none;stroke:#fde725;stroke-dasharray:3.27904,1.417963;stroke-dashoffset:0;stroke-width:0.886227;"/>
    <path clip-path="url(#pdf99cde225)" d="M 129.644233 234.315198 
L 129.644233 234.087876 
" style="fill:none;stroke:#440154;stroke-dasharray:3.27904,1.417963;stroke-dashoffset:0;stroke-width:0.886227;"/>
    <path clip-path="url(#pdf99cde225)" d="M 129.644233 234.087876 
L 132.718613 232.611344 
" style="fill:none;stroke:#fde725;stroke-dasharray:3.27904,1.417963;stroke-dashoffset:0;stroke-width:0.886227;"/>
    <path clip-path="url(#pdf99cde225)" d="M 132.718613 232.611344 
L 132.718613 232.373689 
" style="fill:none;stroke:#440154;stroke-dasharray:3.27904,1.417963;stroke-dashoffset:0;stroke-width:0.886227;"/>
    <path clip-path="url(#pdf99cde225)" d="M 132.718613 232.373689 
L 135.792993 230.907489 
" style="fill:none;stroke:#fde725;stroke-dasharray:3.27904,1.417963;stroke-dashoffset:0;stroke-width:0.886227;"/>
    <path clip-path="url(#pdf99cde225)" d="M 135.792993 230.907489 
L 135.792993 230.659501 
" style="fill:none;stroke:#440154;stroke-dasharray:3.27904,1.417963;stroke-dashoffset:0;stroke-width:0.886227;"/>
    <path clip-path="url(#pdf99cde225)" d="M 135.792993 230.659501 
L 138.867373 229.203634 
" style="fill:none;stroke:#fde725;stroke-dasharray:3.27904,1.417963;stroke-dashoffset:0;stroke-width:0.886227;"/>
    <path clip-path="url(#pdf99cde225)" d="M 138.867373 229.203634 
L 138.867373 228.945314 
" style="fill:none;stroke:#440154;stroke-dasharray:3.27904,1.417963;stroke-dashoffset:0;stroke-width:0.886227;"/>
    <path clip-path="url(#pdf99cde225)" d="M 138.867373 228.945314 
L 141.941754 227.49978 
" style="fill:none;stroke:#fde725;stroke-dasharray:3.27904,1.417963;stroke-dashoffset:0;stroke-width:0.886227;"/>
    <path clip-path="url(#pdf99cde225)" d="M 141.941754 227.49978 
L 141.941754 227.231127 
" style="fill:none;stroke:#440154;stroke-dasharray:3.27904,1.417963;stroke-dashoffset:0;stroke-width:0.886227;"/>
    <path clip-path="url(#pdf99cde225)" d="M 141.941754 227.231127 
L 145.016134 225.795925 
" style="fill:none;stroke:#fde725;stroke-dasharray:3.27904,1.417963;stroke-dashoffset:0;stroke-width:0.886227;"/>
    <path clip-path="url(#pdf99cde225)" d="M 145.016134 225.795925 
L 145.016134 225.516939 
" style="fill:none;stroke:#440154;stroke-dasharray:3.27904,1.417963;stroke-dashoffset:0;stroke-width:0.886227;"/>
    <path clip-path="url(#pdf99cde225)" d="M 145.016134 225.516939 
L 148.090514 224.092071 
" style="fill:none;stroke:#fde725;stroke-dasharray:3.27904,1.417963;stroke-dashoffset:0;stroke-width:0.886227;"/>
    <path clip-path="url(#pdf99cde225)" d="M 148.090514 224.092071 
L 148.090514 223.802752 
" style="fill:none;stroke:#440154;stroke-dasharray:3.27904,1.417963;stroke-dashoffset:0;stroke-width:0.886227;"/>
    <path clip-path="url(#pdf99cde225)" d="M 148.090514 223.802752 
L 151.164894 222.388216 
" style="fill:none;stroke:#fde725;stroke-dasharray:3.27904,1.417963;stroke-dashoffset:0;stroke-width:0.886227;"/>
    <path clip-path="url(#pdf99cde225)" d="M 151.164894 222.388216 
L 151.164894 222.088564 
" style="fill:none;stroke:#440154;stroke-dasharray:3.27904,1.417963;stroke-dashoffset:0;stroke-width:0.886227;"/>
    <path clip-path="url(#pdf99cde225)" d="M 151.164894 222.088564 
L 154.239274 220.684361 
" style="fill:none;stroke:#fde725;stroke-dasharray:3.27904,1.417963;stroke-dashoffset:0;stroke-width:0.886227;"/>
    <path clip-path="url(#pdf99cde225)" d="M 154.239274 220.684361 
L 154.239274 220.374377 
" style="fill:none;stroke:#440154;stroke-dasharray:3.27904,1.417963;stroke-dashoffset:0;stroke-width:0.886227;"/>
    <path clip-path="url(#pdf99cde225)" d="M 154.239274 220.374377 
L 157.313654 218.980507 
" style="fill:none;stroke:#fde725;stroke-dasharray:3.27904,1.417963;stroke-dashoffset:0;stroke-width:0.886227;"/>
    <path clip-path="url(#pdf99cde225)" d="M 157.313654 218.980507 
L 157.313654 218.660189 
" style="fill:none;stroke:#440154;stroke-dasharray:3.27904,1.417963;stroke-dashoffset:0;stroke-width:0.886227;"/>
    <path clip-path="url(#pdf99cde225)" d="M 157.313654 218.660189 
L 160.388035 217.276652 
" style="fill:none;stroke:#fde725;stroke-dasharray:3.27904,1.417963;stroke-dashoffset:0;stroke-width:0.886227;"/>
    <path clip-path="url(#pdf99cde225)" d="M 160.388035 217.276652 
L 160.388035 216.946002 
" style="fill:none;stroke:#440154;stroke-dasharray:3.27904,1.417963;stroke-dashoffset:0;stroke-width:0.886227;"/>
    <path clip-path="url(#pdf99cde225)" d="M 160.388035 216.946002 
L 163.462415 215.572797 
" style="fill:none;stroke:#fde725;stroke-dasharray:3.27904,1.417963;stroke-dashoffset:0;stroke-width:0.886227;"/>
    <path clip-path="url(#pdf99cde225)" d="M 163.462415 215.572797 
L 163.462415 215.231815 
" style="fill:none;stroke:#440154;stroke-dasharray:3.27904,1.417963;stroke-dashoffset:0;stroke-width:0.886227;"/>
    <path clip-path="url(#pdf99cde225)" d="M 163.462415 215.231815 
L 166.536795 213.868943 
" style="fill:none;stroke:#fde725;stroke-dasharray:3.27904,1.417963;stroke-dashoffset:0;stroke-width:0.886227;"/>
    <path clip-path="url(#pdf99cde225)" d="M 166.536795 213.868943 
L 166.536795 213.517627 
" style="fill:none;stroke:#440154;stroke-dasharray:3.27904,1.417963;stroke-dashoffset:0;stroke-width:0.886227;"/>
    <path clip-path="url(#pdf99cde225)" d="M 166.536795 213.517627 
L 169.611175 212.165088 
" style="fill:none;stroke:#fde725;stroke-dasharray:3.27904,1.417963;stroke-dashoffset:0;stroke-width:0.886227;"/>
    <path clip-path="url(#pdf99cde225)" d="M 169.611175 212.165088 
L 169.611175 211.80344 
" style="fill:none;stroke:#440154;stroke-dasharray:3.27904,1.417963;stroke-dashoffset:0;stroke-width:0.886227;"/>
    <path clip-path="url(#pdf99cde225)" d="M 169.611175 211.80344 
L 172.685555 210.461234 
" style="fill:none;stroke:#fde725;stroke-dasharray:3.27904,1.417963;stroke-dashoffset:0;stroke-width:0.886227;"/>
    <path clip-path="url(#pdf99cde225)" d="M 172.685555 210.461234 
L 172.685555 210.089252 
" style="fill:none;stroke:#440154;stroke-dasharray:3.27904,1.417963;stroke-dashoffset:0;stroke-width:0.886227;"/>
    <path clip-path="url(#pdf99cde225)" d="M 172.685555 210.089252 
L 175.759935 208.757379 
" style="fill:none;stroke:#fde725;stroke-dasharray:3.27904,1.417963;stroke-dashoffset:0;stroke-width:0.886227;"/>
    <path clip-path="url(#pdf99cde225)" d="M 175.759935 208.757379 
L 175.759935 208.375065 
" style="fill:none;stroke:#440154;stroke-dasharray:3.27904,1.417963;stroke-dashoffset:0;stroke-width:0.886227;"/>
    <path clip-path="url(#pdf99cde225)" d="M 175.759935 208.375065 
L 178.834316 207.053524 
" style="fill:none;stroke:#fde725;stroke-dasharray:3.27904,1.417963;stroke-dashoffset:0;stroke-width:0.886227;"/>
    <path clip-path="url(#pdf99cde225)" d="M 178.834316 207.053524 
L 178.834316 206.660877 
" style="fill:none;stroke:#440154;stroke-dasharray:3.27904,1.417963;stroke-dashoffset:0;stroke-width:0.886227;"/>
    <path clip-path="url(#pdf99cde225)" d="M 178.834316 206.660877 
L 181.908696 205.34967 
" style="fill:none;stroke:#fde725;stroke-dasharray:3.27904,1.417963;stroke-dashoffset:0;stroke-width:0.886227;"/>
    <path clip-path="url(#pdf99cde225)" d="M 181.908696 205.34967 
L 181.908696 204.94669 
" style="fill:none;stroke:#440154;stroke-dasharray:3.27904,1.417963;stroke-dashoffset:0;stroke-width:0.886227;"/>
    <path clip-path="url(#pdf99cde225)" d="M 181.908696 204.94669 
L 184.983076 203.645815 
" style="fill:none;stroke:#fde725;stroke-dasharray:3.27904,1.417963;stroke-dashoffset:0;stroke-width:0.886227;"/>
    <path clip-path="url(#pdf99cde225)" d="M 184.983076 203.645815 
L 184.983076 203.232502 
" style="fill:none;stroke:#440154;stroke-dasharray:3.27904,1.417963;stroke-dashoffset:0;stroke-width:0.886227;"/>
    <path clip-path="url(#pdf99cde225)" d="M 184.983076 203.232502 
L 188.057456 201.94196 
" style="fill:none;stroke:#fde725;stroke-dasharray:3.27904,1.417963;stroke-dashoffset:0;stroke-width:0.886227;"/>
    <path clip-path="url(#pdf99cde225)" d="M 188.057456 201.94196 
L 188.057456 201.518315 
" style="fill:none;stroke:#440154;stroke-dasharray:3.27904,1.417963;stroke-dashoffset:0;stroke-width:0.886227;"/>
    <path clip-path="url(#pdf99cde225)" d="M 188.057456 201.518315 
L 191.131836 200.238106 
" style="fill:none;stroke:#fde725;stroke-dasharray:3.27904,1.417963;stroke-dashoffset:0;stroke-width:0.886227;"/>
    <path clip-path="url(#pdf99cde225)" d="M 191.131836 200.238106 
L 191.131836 199.804128 
" style="fill:none;stroke:#440154;stroke-dasharray:3.27904,1.417963;stroke-dashoffset:0;stroke-width:0.886227;"/>
    <path clip-path="url(#pdf99cde225)" d="M 191.131836 199.804128 
L 194.206216 198.534251 
" style="fill:none;stroke:#fde725;stroke-dasharray:3.27904,1.417963;stroke-dashoffset:0;stroke-width:0.886227;"/>
    <path clip-path="url(#pdf99cde225)" d="M 194.206216 198.534251 
L 194.206216 198.08994 
" style="fill:none;stroke:#440154;stroke-dasharray:3.27904,1.417963;stroke-dashoffset:0;stroke-width:0.886227;"/>
    <path clip-path="url(#pdf99cde225)" d="M 194.206216 198.08994 
L 197.280597 196.830397 
" style="fill:none;stroke:#fde725;stroke-dasharray:3.27904,1.417963;stroke-dashoffset:0;stroke-width:0.886227;"/>
    <path clip-path="url(#pdf99cde225)" d="M 197.280597 196.830397 
L 197.280597 196.375753 
" style="fill:none;stroke:#440154;stroke-dasharray:3.27904,1.417963;stroke-dashoffset:0;stroke-width:0.886227;"/>
    <path clip-path="url(#pdf99cde225)" d="M 197.280597 196.375753 
L 200.354977 195.126542 
" style="fill:none;stroke:#fde725;stroke-dasharray:3.27904,1.417963;stroke-dashoffset:0;stroke-width:0.886227;"/>
    <path clip-path="url(#pdf99cde225)" d="M 200.354977 195.126542 
L 200.354977 194.661565 
" style="fill:none;stroke:#440154;stroke-dasharray:3.27904,1.417963;stroke-dashoffset:0;stroke-width:0.886227;"/>
    <path clip-path="url(#pdf99cde225)" d="M 200.354977 194.661565 
L 203.429357 193.422687 
" style="fill:none;stroke:#fde725;stroke-dasharray:3.27904,1.417963;stroke-dashoffset:0;stroke-width:0.886227;"/>
    <path clip-path="url(#pdf99cde225)" d="M 203.429357 193.422687 
L 203.429357 192.947378 
" style="fill:none;stroke:#440154;stroke-dasharray:3.27904,1.417963;stroke-dashoffset:0;stroke-width:0.886227;"/>
    <path clip-path="url(#pdf99cde225)" d="M 203.429357 192.947378 
L 206.503737 191.718833 
" style="fill:none;stroke:#fde725;stroke-dasharray:3.27904,1.417963;stroke-dashoffset:0;stroke-width:0.886227;"/>
    <path clip-path="url(#pdf99cde225)" d="M 206.503737 191.718833 
L 206.503737 191.23319 
" style="fill:none;stroke:#440154;stroke-dasharray:3.27904,1.417963;stroke-dashoffset:0;stroke-width:0.886227;"/>
    <path clip-path="url(#pdf99cde225)" d="M 206.503737 191.23319 
L 209.578117 190.014978 
" style="fill:none;stroke:#fde725;stroke-dasharray:3.27904,1.417963;stroke-dashoffset:0;stroke-width:0.886227;"/>
    <path clip-path="url(#pdf99cde225)" d="M 209.578117 190.014978 
L 209.578117 189.519003 
" style="fill:none;stroke:#440154;stroke-dasharray:3.27904,1.417963;stroke-dashoffset:0;stroke-width:0.886227;"/>
    <path clip-path="url(#pdf99cde225)" d="M 209.578117 189.519003 
L 212.652497 188.311123 
" style="fill:none;stroke:#fde725;stroke-dasharray:3.27904,1.417963;stroke-dashoffset:0;stroke-width:0.886227;"/>
    <path clip-path="url(#pdf99cde225)" d="M 212.652497 188.311123 
L 212.652497 187.804816 
" style="fill:none;stroke:#440154;stroke-dasharray:3.27904,1.417963;stroke-dashoffset:0;stroke-width:0.886227;"/>
    <path clip-path="url(#pdf99cde225)" d="M 212.652497 187.804816 
L 215.726878 186.607269 
" style="fill:none;stroke:#fde725;stroke-dasharray:3.27904,1.417963;stroke-dashoffset:0;stroke-width:0.886227;"/>
    <path clip-path="url(#pdf99cde225)" d="M 215.726878 186.607269 
L 215.726878 186.090628 
" style="fill:none;stroke:#440154;stroke-dasharray:3.27904,1.417963;stroke-dashoffset:0;stroke-width:0.886227;"/>
    <path clip-path="url(#pdf99cde225)" d="M 215.726878 186.090628 
L 218.801258 184.903414 
" style="fill:none;stroke:#fde725;stroke-dasharray:3.27904,1.417963;stroke-dashoffset:0;stroke-width:0.886227;"/>
    <path clip-path="url(#pdf99cde225)" d="M 218.801258 184.903414 
L 218.801258 184.376441 
" style="fill:none;stroke:#440154;stroke-dasharray:3.27904,1.417963;stroke-dashoffset:0;stroke-width:0.886227;"/>
    <path clip-path="url(#pdf99cde225)" d="M 218.801258 184.376441 
L 221.875638 183.19956 
" style="fill:none;stroke:#fde725;stroke-dasharray:3.27904,1.417963;stroke-dashoffset:0;stroke-width:0.886227;"/>
    <path clip-path="url(#pdf99cde225)" d="M 221.875638 183.19956 
L 221.875638 182.662253 
" style="fill:none;stroke:#440154;stroke-dasharray:3.27904,1.417963;stroke-dashoffset:0;stroke-width:0.886227;"/>
    <path clip-path="url(#pdf99cde225)" d="M 221.875638 182.662253 
L 224.950018 181.495705 
" style="fill:none;stroke:#fde725;stroke-dasharray:3.27904,1.417963;stroke-dashoffset:0;stroke-width:0.886227;"/>
    <path clip-path="url(#pdf99cde225)" d="M 224.950018 181.495705 
L 224.950018 180.948066 
" style="fill:none;stroke:#440154;stroke-dasharray:3.27904,1.417963;stroke-dashoffset:0;stroke-width:0.886227;"/>
    <path clip-path="url(#pdf99cde225)" d="M 224.950018 180.948066 
L 228.024398 179.79185 
" style="fill:none;stroke:#fde725;stroke-dasharray:3.27904,1.417963;stroke-dashoffset:0;stroke-width:0.886227;"/>
    <path clip-path="url(#pdf99cde225)" d="M 228.024398 179.79185 
L 228.024398 179.233878 
" style="fill:none;stroke:#440154;stroke-dasharray:3.27904,1.417963;stroke-dashoffset:0;stroke-width:0.886227;"/>
    <path clip-path="url(#pdf99cde225)" d="M 228.024398 179.233878 
L 231.098778 178.087996 
" style="fill:none;stroke:#fde725;stroke-dasharray:3.27904,1.417963;stroke-dashoffset:0;stroke-width:0.886227;"/>
    <path clip-path="url(#pdf99cde225)" d="M 231.098778 178.087996 
L 231.098778 177.519691 
" style="fill:none;stroke:#440154;stroke-dasharray:3.27904,1.417963;stroke-dashoffset:0;stroke-width:0.886227;"/>
    <path clip-path="url(#pdf99cde225)" d="M 231.098778 177.519691 
L 234.173159 176.384141 
" style="fill:none;stroke:#fde725;stroke-dasharray:3.27904,1.417963;stroke-dashoffset:0;stroke-width:0.886227;"/>
    <path clip-path="url(#pdf99cde225)" d="M 234.173159 176.384141 
L 234.173159 175.805503 
" style="fill:none;stroke:#440154;stroke-dasharray:3.27904,1.417963;stroke-dashoffset:0;stroke-width:0.886227;"/>
    <path clip-path="url(#pdf99cde225)" d="M 234.173159 175.805503 
L 237.247539 174.680286 
" style="fill:none;stroke:#fde725;stroke-dasharray:3.27904,1.417963;stroke-dashoffset:0;stroke-width:0.886227;"/>
    <path clip-path="url(#pdf99cde225)" d="M 237.247539 174.680286 
L 237.247539 174.091316 
" style="fill:none;stroke:#440154;stroke-dasharray:3.27904,1.417963;stroke-dashoffset:0;stroke-width:0.886227;"/>
    <path clip-path="url(#pdf99cde225)" d="M 237.247539 174.091316 
L 240.321919 172.976432 
" style="fill:none;stroke:#fde725;stroke-dasharray:3.27904,1.417963;stroke-dashoffset:0;stroke-width:0.886227;"/>
    <path clip-path="url(#pdf99cde225)" d="M 240.321919 172.976432 
L 240.321919 172.377129 
" style="fill:none;stroke:#440154;stroke-dasharray:3.27904,1.417963;stroke-dashoffset:0;stroke-width:0.886227;"/>
    <path clip-path="url(#pdf99cde225)" d="M 240.321919 172.377129 
L 243.396299 171.272577 
" style="fill:none;stroke:#fde725;stroke-dasharray:3.27904,1.417963;stroke-dashoffset:0;stroke-width:0.886227;"/>
    <path clip-path="url(#pdf99cde225)" d="M 243.396299 171.272577 
L 243.396299 170.662941 
" style="fill:none;stroke:#440154;stroke-dasharray:3.27904,1.417963;stroke-dashoffset:0;stroke-width:0.886227;"/>
    <path clip-path="url(#pdf99cde225)" d="M 243.396299 170.662941 
L 246.470679 169.568723 
" style="fill:none;stroke:#fde725;stroke-dasharray:3.27904,1.417963;stroke-dashoffset:0;stroke-width:0.886227;"/>
    <path clip-path="url(#pdf99cde225)" d="M 246.470679 169.568723 
L 246.470679 168.948754 
" style="fill:none;stroke:#440154;stroke-dasharray:3.27904,1.417963;stroke-dashoffset:0;stroke-width:0.886227;"/>
    <path clip-path="url(#pdf99cde225)" d="M 246.470679 168.948754 
L 249.545059 167.864868 
" style="fill:none;stroke:#fde725;stroke-dasharray:3.27904,1.417963;stroke-dashoffset:0;stroke-width:0.886227;"/>
    <path clip-path="url(#pdf99cde225)" d="M 249.545059 167.864868 
L 249.545059 167.234566 
" style="fill:none;stroke:#440154;stroke-dasharray:3.27904,1.417963;stroke-dashoffset:0;stroke-width:0.886227;"/>
    <path clip-path="url(#pdf99cde225)" d="M 249.545059 167.234566 
L 252.61944 166.161013 
" style="fill:none;stroke:#fde725;stroke-dasharray:3.27904,1.417963;stroke-dashoffset:0;stroke-width:0.886227;"/>
    <path clip-path="url(#pdf99cde225)" d="M 252.61944 166.161013 
L 252.61944 165.520379 
" style="fill:none;stroke:#440154;stroke-dasharray:3.27904,1.417963;stroke-dashoffset:0;stroke-width:0.886227;"/>
    <path clip-path="url(#pdf99cde225)" d="M 252.61944 165.520379 
L 255.69382 164.457159 
" style="fill:none;stroke:#fde725;stroke-dasharray:3.27904,1.417963;stroke-dashoffset:0;stroke-width:0.886227;"/>
    <path clip-path="url(#pdf99cde225)" d="M 255.69382 164.457159 
L 255.69382 163.806191 
" style="fill:none;stroke:#440154;stroke-dasharray:3.27904,1.417963;stroke-dashoffset:0;stroke-width:0.886227;"/>
    <path clip-path="url(#pdf99cde225)" d="M 255.69382 163.806191 
L 258.7682 162.753304 
" style="fill:none;stroke:#fde725;stroke-dasharray:3.27904,1.417963;stroke-dashoffset:0;stroke-width:0.886227;"/>
    <path clip-path="url(#pdf99cde225)" d="M 258.7682 162.753304 
L 258.7682 162.092004 
" style="fill:none;stroke:#440154;stroke-dasharray:3.27904,1.417963;stroke-dashoffset:0;stroke-width:0.886227;"/>
    <path clip-path="url(#pdf99cde225)" d="M 258.7682 162.092004 
L 261.84258 161.049449 
" style="fill:none;stroke:#fde725;stroke-dasharray:3.27904,1.417963;stroke-dashoffset:0;stroke-width:0.886227;"/>
    <path clip-path="url(#pdf99cde225)" d="M 261.84258 161.049449 
L 261.84258 160.377817 
" style="fill:none;stroke:#440154;stroke-dasharray:3.27904,1.417963;stroke-dashoffset:0;stroke-width:0.886227;"/>
    <path clip-path="url(#pdf99cde225)" d="M 261.84258 160.377817 
L 264.91696 159.345595 
" style="fill:none;stroke:#fde725;stroke-dasharray:3.27904,1.417963;stroke-dashoffset:0;stroke-width:0.886227;"/>
    <path clip-path="url(#pdf99cde225)" d="M 264.91696 159.345595 
L 264.91696 158.663629 
" style="fill:none;stroke:#440154;stroke-dasharray:3.27904,1.417963;stroke-dashoffset:0;stroke-width:0.886227;"/>
    <path clip-path="url(#pdf99cde225)" d="M 264.91696 158.663629 
L 267.99134 157.64174 
" style="fill:none;stroke:#fde725;stroke-dasharray:3.27904,1.417963;stroke-dashoffset:0;stroke-width:0.886227;"/>
    <path clip-path="url(#pdf99cde225)" d="M 267.99134 157.64174 
L 267.99134 156.949442 
" style="fill:none;stroke:#440154;stroke-dasharray:3.27904,1.417963;stroke-dashoffset:0;stroke-width:0.886227;"/>
    <path clip-path="url(#pdf99cde225)" d="M 267.99134 156.949442 
L 271.065721 155.937886 
" style="fill:none;stroke:#fde725;stroke-dasharray:3.27904,1.417963;stroke-dashoffset:0;stroke-width:0.886227;"/>
    <path clip-path="url(#pdf99cde225)" d="M 271.065721 155.937886 
L 271.065721 155.235254 
" style="fill:none;stroke:#440154;stroke-dasharray:3.27904,1.417963;stroke-dashoffset:0;stroke-width:0.886227;"/>
    <path clip-path="url(#pdf99cde225)" d="M 271.065721 155.235254 
L 274.140101 154.234031 
" style="fill:none;stroke:#fde725;stroke-dasharray:3.27904,1.417963;stroke-dashoffset:0;stroke-width:0.886227;"/>
    <path clip-path="url(#pdf99cde225)" d="M 274.140101 154.234031 
L 274.140101 153.521067 
" style="fill:none;stroke:#440154;stroke-dasharray:3.27904,1.417963;stroke-dashoffset:0;stroke-width:0.886227;"/>
    <path clip-path="url(#pdf99cde225)" d="M 274.140101 153.521067 
L 277.214481 152.530176 
" style="fill:none;stroke:#fde725;stroke-dasharray:3.27904,1.417963;stroke-dashoffset:0;stroke-width:0.886227;"/>
    <path clip-path="url(#pdf99cde225)" d="M 277.214481 152.530176 
L 277.214481 151.806879 
" style="fill:none;stroke:#440154;stroke-dasharray:3.27904,1.417963;stroke-dashoffset:0;stroke-width:0.886227;"/>
    <path clip-path="url(#pdf99cde225)" d="M 277.214481 151.806879 
L 280.288861 150.826322 
" style="fill:none;stroke:#fde725;stroke-dasharray:3.27904,1.417963;stroke-dashoffset:0;stroke-width:0.886227;"/>
    <path clip-path="url(#pdf99cde225)" d="M 280.288861 150.826322 
L 280.288861 150.092692 
" style="fill:none;stroke:#440154;stroke-dasharray:3.27904,1.417963;stroke-dashoffset:0;stroke-width:0.886227;"/>
    <path clip-path="url(#pdf99cde225)" d="M 280.288861 150.092692 
L 283.363241 149.122467 
" style="fill:none;stroke:#fde725;stroke-dasharray:3.27904,1.417963;stroke-dashoffset:0;stroke-width:0.886227;"/>
    <path clip-path="url(#pdf99cde225)" d="M 283.363241 149.122467 
L 283.363241 148.378504 
" style="fill:none;stroke:#440154;stroke-dasharray:3.27904,1.417963;stroke-dashoffset:0;stroke-width:0.886227;"/>
    <path clip-path="url(#pdf99cde225)" d="M 283.363241 148.378504 
L 286.437621 147.418612 
" style="fill:none;stroke:#fde725;stroke-dasharray:3.27904,1.417963;stroke-dashoffset:0;stroke-width:0.886227;"/>
    <path clip-path="url(#pdf99cde225)" d="M 286.437621 147.418612 
L 286.437621 146.664317 
" style="fill:none;stroke:#440154;stroke-dasharray:3.27904,1.417963;stroke-dashoffset:0;stroke-width:0.886227;"/>
    <path clip-path="url(#pdf99cde225)" d="M 286.437621 146.664317 
L 289.512002 145.714758 
" style="fill:none;stroke:#fde725;stroke-dasharray:3.27904,1.417963;stroke-dashoffset:0;stroke-width:0.886227;"/>
    <path clip-path="url(#pdf99cde225)" d="M 289.512002 145.714758 
L 289.512002 144.95013 
" style="fill:none;stroke:#440154;stroke-dasharray:3.27904,1.417963;stroke-dashoffset:0;stroke-width:0.886227;"/>
    <path clip-path="url(#pdf99cde225)" d="M 289.512002 144.95013 
L 292.586382 144.010903 
" style="fill:none;stroke:#fde725;stroke-dasharray:3.27904,1.417963;stroke-dashoffset:0;stroke-width:0.886227;"/>
    <path clip-path="url(#pdf99cde225)" d="M 292.586382 144.010903 
L 292.586382 143.235942 
" style="fill:none;stroke:#440154;stroke-dasharray:3.27904,1.417963;stroke-dashoffset:0;stroke-width:0.886227;"/>
    <path clip-path="url(#pdf99cde225)" d="M 292.586382 143.235942 
L 295.660762 142.307049 
" style="fill:none;stroke:#fde725;stroke-dasharray:3.27904,1.417963;stroke-dashoffset:0;stroke-width:0.886227;"/>
    <path clip-path="url(#pdf99cde225)" d="M 295.660762 142.307049 
L 295.660762 141.521755 
" style="fill:none;stroke:#440154;stroke-dasharray:3.27904,1.417963;stroke-dashoffset:0;stroke-width:0.886227;"/>
    <path clip-path="url(#pdf99cde225)" d="M 295.660762 141.521755 
L 298.735142 140.603194 
" style="fill:none;stroke:#fde725;stroke-dasharray:3.27904,1.417963;stroke-dashoffset:0;stroke-width:0.886227;"/>
    <path clip-path="url(#pdf99cde225)" d="M 298.735142 140.603194 
L 298.735142 139.807567 
" style="fill:none;stroke:#440154;stroke-dasharray:3.27904,1.417963;stroke-dashoffset:0;stroke-width:0.886227;"/>
    <path clip-path="url(#pdf99cde225)" d="M 298.735142 139.807567 
L 301.809522 138.899339 
" style="fill:none;stroke:#fde725;stroke-dasharray:3.27904,1.417963;stroke-dashoffset:0;stroke-width:0.886227;"/>
    <path clip-path="url(#pdf99cde225)" d="M 301.809522 138.899339 
L 301.809522 138.09338 
" style="fill:none;stroke:#440154;stroke-dasharray:3.27904,1.417963;stroke-dashoffset:0;stroke-width:0.886227;"/>
    <path clip-path="url(#pdf99cde225)" d="M 301.809522 138.09338 
L 304.883902 137.195485 
" style="fill:none;stroke:#fde725;stroke-dasharray:3.27904,1.417963;stroke-dashoffset:0;stroke-width:0.886227;"/>
    <path clip-path="url(#pdf99cde225)" d="M 304.883902 137.195485 
L 304.883902 136.379192 
" style="fill:none;stroke:#440154;stroke-dasharray:3.27904,1.417963;stroke-dashoffset:0;stroke-width:0.886227;"/>
    <path clip-path="url(#pdf99cde225)" d="M 304.883902 136.379192 
L 307.958283 135.49163 
" style="fill:none;stroke:#fde725;stroke-dasharray:3.27904,1.417963;stroke-dashoffset:0;stroke-width:0.886227;"/>
    <path clip-path="url(#pdf99cde225)" d="M 307.958283 135.49163 
L 307.958283 134.665005 
" style="fill:none;stroke:#440154;stroke-dasharray:3.27904,1.417963;stroke-dashoffset:0;stroke-width:0.886227;"/>
    <path clip-path="url(#pdf99cde225)" d="M 307.958283 134.665005 
L 311.032663 133.787775 
" style="fill:none;stroke:#fde725;stroke-dasharray:3.27904,1.417963;stroke-dashoffset:0;stroke-width:0.886227;"/>
    <path clip-path="url(#pdf99cde225)" d="M 311.032663 133.787775 
L 311.032663 132.950818 
" style="fill:none;stroke:#440154;stroke-dasharray:3.27904,1.417963;stroke-dashoffset:0;stroke-width:0.886227;"/>
    <path clip-path="url(#pdf99cde225)" d="M 311.032663 132.950818 
L 314.107043 132.083921 
" style="fill:none;stroke:#fde725;stroke-dasharray:3.27904,1.417963;stroke-dashoffset:0;stroke-width:0.886227;"/>
    <path clip-path="url(#pdf99cde225)" d="M 314.107043 132.083921 
L 314.107043 131.23663 
" style="fill:none;stroke:#440154;stroke-dasharray:3.27904,1.417963;stroke-dashoffset:0;stroke-width:0.886227;"/>
    <path clip-path="url(#pdf99cde225)" d="M 314.107043 131.23663 
L 317.181423 130.380066 
" style="fill:none;stroke:#fde725;stroke-dasharray:3.27904,1.417963;stroke-dashoffset:0;stroke-width:0.886227;"/>
    <path clip-path="url(#pdf99cde225)" d="M 317.181423 130.380066 
L 317.181423 129.522443 
" style="fill:none;stroke:#440154;stroke-dasharray:3.27904,1.417963;stroke-dashoffset:0;stroke-width:0.886227;"/>
    <path clip-path="url(#pdf99cde225)" d="M 317.181423 129.522443 
L 320.255803 128.676212 
" style="fill:none;stroke:#fde725;stroke-dasharray:3.27904,1.417963;stroke-dashoffset:0;stroke-width:0.886227;"/>
    <path clip-path="url(#pdf99cde225)" d="M 320.255803 128.676212 
L 320.255803 127.808255 
" style="fill:none;stroke:#440154;stroke-dasharray:3.27904,1.417963;stroke-dashoffset:0;stroke-width:0.886227;"/>
    <path clip-path="url(#pdf99cde225)" d="M 320.255803 127.808255 
L 323.330183 126.972357 
" style="fill:none;stroke:#fde725;stroke-dasharray:3.27904,1.417963;stroke-dashoffset:0;stroke-width:0.886227;"/>
    <path clip-path="url(#pdf99cde225)" d="M 323.330183 126.972357 
L 323.330183 126.094068 
" style="fill:none;stroke:#440154;stroke-dasharray:3.27904,1.417963;stroke-dashoffset:0;stroke-width:0.886227;"/>
    <path clip-path="url(#pdf99cde225)" d="M 323.330183 126.094068 
L 326.404564 125.268502 
" style="fill:none;stroke:#fde725;stroke-dasharray:3.27904,1.417963;stroke-dashoffset:0;stroke-width:0.886227;"/>
    <path clip-path="url(#pdf99cde225)" d="M 326.404564 125.268502 
L 326.404564 124.37988 
" style="fill:none;stroke:#440154;stroke-dasharray:3.27904,1.417963;stroke-dashoffset:0;stroke-width:0.886227;"/>
    <path clip-path="url(#pdf99cde225)" d="M 326.404564 124.37988 
L 329.478944 123.564648 
" style="fill:none;stroke:#fde725;stroke-dasharray:3.27904,1.417963;stroke-dashoffset:0;stroke-width:0.886227;"/>
    <path clip-path="url(#pdf99cde225)" d="M 329.478944 123.564648 
L 329.478944 122.665693 
" style="fill:none;stroke:#440154;stroke-dasharray:3.27904,1.417963;stroke-dashoffset:0;stroke-width:0.886227;"/>
    <path clip-path="url(#pdf99cde225)" d="M 329.478944 122.665693 
L 332.553324 121.860793 
" style="fill:none;stroke:#fde725;stroke-dasharray:3.27904,1.417963;stroke-dashoffset:0;stroke-width:0.886227;"/>
    <path clip-path="url(#pdf99cde225)" d="M 332.553324 121.860793 
L 332.553324 120.951505 
" style="fill:none;stroke:#440154;stroke-dasharray:3.27904,1.417963;stroke-dashoffset:0;stroke-width:0.886227;"/>
    <path clip-path="url(#pdf99cde225)" d="M 332.553324 120.951505 
L 335.627704 120.156938 
" style="fill:none;stroke:#fde725;stroke-dasharray:3.27904,1.417963;stroke-dashoffset:0;stroke-width:0.886227;"/>
    <path clip-path="url(#pdf99cde225)" d="M 335.627704 120.156938 
L 335.627704 119.237318 
" style="fill:none;stroke:#440154;stroke-dasharray:3.27904,1.417963;stroke-dashoffset:0;stroke-width:0.886227;"/>
    <path clip-path="url(#pdf99cde225)" d="M 335.627704 119.237318 
L 338.702084 118.453084 
" style="fill:none;stroke:#fde725;stroke-dasharray:3.27904,1.417963;stroke-dashoffset:0;stroke-width:0.886227;"/>
    <path clip-path="url(#pdf99cde225)" d="M 338.702084 118.453084 
L 338.702084 117.523131 
" style="fill:none;stroke:#440154;stroke-dasharray:3.27904,1.417963;stroke-dashoffset:0;stroke-width:0.886227;"/>
    <path clip-path="url(#pdf99cde225)" d="M 338.702084 117.523131 
L 341.776464 116.749229 
" style="fill:none;stroke:#fde725;stroke-dasharray:3.27904,1.417963;stroke-dashoffset:0;stroke-width:0.886227;"/>
    <path clip-path="url(#pdf99cde225)" d="M 341.776464 116.749229 
L 341.776464 115.808943 
" style="fill:none;stroke:#440154;stroke-dasharray:3.27904,1.417963;stroke-dashoffset:0;stroke-width:0.886227;"/>
    <path clip-path="url(#pdf99cde225)" d="M 341.776464 115.808943 
L 344.850845 115.045375 
" style="fill:none;stroke:#fde725;stroke-dasharray:3.27904,1.417963;stroke-dashoffset:0;stroke-width:0.886227;"/>
    <path clip-path="url(#pdf99cde225)" d="M 344.850845 115.045375 
L 344.850845 114.094756 
" style="fill:none;stroke:#440154;stroke-dasharray:3.27904,1.417963;stroke-dashoffset:0;stroke-width:0.886227;"/>
    <path clip-path="url(#pdf99cde225)" d="M 344.850845 114.094756 
L 347.925225 113.34152 
" style="fill:none;stroke:#fde725;stroke-dasharray:3.27904,1.417963;stroke-dashoffset:0;stroke-width:0.886227;"/>
    <path clip-path="url(#pdf99cde225)" d="M 347.925225 113.34152 
L 347.925225 112.380568 
" style="fill:none;stroke:#440154;stroke-dasharray:3.27904,1.417963;stroke-dashoffset:0;stroke-width:0.886227;"/>
    <path clip-path="url(#pdf99cde225)" d="M 347.925225 112.380568 
L 350.999605 111.637665 
" style="fill:none;stroke:#fde725;stroke-dasharray:3.27904,1.417963;stroke-dashoffset:0;stroke-width:0.886227;"/>
    <path clip-path="url(#pdf99cde225)" d="M 350.999605 111.637665 
L 350.999605 110.666381 
" style="fill:none;stroke:#440154;stroke-dasharray:3.27904,1.417963;stroke-dashoffset:0;stroke-width:0.886227;"/>
    <path clip-path="url(#pdf99cde225)" d="M 350.999605 110.666381 
L 354.073985 109.933811 
" style="fill:none;stroke:#fde725;stroke-dasharray:3.27904,1.417963;stroke-dashoffset:0;stroke-width:0.886227;"/>
    <path clip-path="url(#pdf99cde225)" d="M 354.073985 109.933811 
L 354.073985 108.952193 
" style="fill:none;stroke:#440154;stroke-dasharray:3.27904,1.417963;stroke-dashoffset:0;stroke-width:0.886227;"/>
    <path clip-path="url(#pdf99cde225)" d="M 354.073985 108.952193 
L 357.148365 108.229956 
" style="fill:none;stroke:#fde725;stroke-dasharray:3.27904,1.417963;stroke-dashoffset:0;stroke-width:0.886227;"/>
    <path clip-path="url(#pdf99cde225)" d="M 357.148365 108.229956 
L 357.148365 107.238006 
" style="fill:none;stroke:#440154;stroke-dasharray:3.27904,1.417963;stroke-dashoffset:0;stroke-width:0.886227;"/>
    <path clip-path="url(#pdf99cde225)" d="M 357.148365 107.238006 
L 360.222745 106.526101 
" style="fill:none;stroke:#fde725;stroke-dasharray:3.27904,1.417963;stroke-dashoffset:0;stroke-width:0.886227;"/>
    <path clip-path="url(#pdf99cde225)" d="M 360.222745 106.526101 
L 360.222745 105.523819 
" style="fill:none;stroke:#440154;stroke-dasharray:3.27904,1.417963;stroke-dashoffset:0;stroke-width:0.886227;"/>
    <path clip-path="url(#pdf99cde225)" d="M 360.222745 105.523819 
L 363.297126 104.822247 
" style="fill:none;stroke:#fde725;stroke-dasharray:3.27904,1.417963;stroke-dashoffset:0;stroke-width:0.886227;"/>
    <path clip-path="url(#pdf99cde225)" d="M 363.297126 104.822247 
L 363.297126 103.809631 
" style="fill:none;stroke:#440154;stroke-dasharray:3.27904,1.417963;stroke-dashoffset:0;stroke-width:0.886227;"/>
    <path clip-path="url(#pdf99cde225)" d="M 363.297126 103.809631 
L 366.371506 103.118392 
" style="fill:none;stroke:#fde725;stroke-dasharray:3.27904,1.417963;stroke-dashoffset:0;stroke-width:0.886227;"/>
    <path clip-path="url(#pdf99cde225)" d="M 366.371506 103.118392 
L 366.371506 102.095444 
" style="fill:none;stroke:#440154;stroke-dasharray:3.27904,1.417963;stroke-dashoffset:0;stroke-width:0.886227;"/>
   </g>
   <g id="patch_3">
    <path d="M 46.789688 284.4 
L 46.789688 7.2 
" style="fill:none;stroke:#000000;stroke-linecap:square;stroke-linejoin:miter;"/>
   </g>
   <g id="patch_4">
    <path d="M 46.789688 284.4 
L 381.589688 284.4 
" style="fill:none;stroke:#000000;stroke-linecap:square;stroke-linejoin:miter;"/>
   </g>
  </g>
 </g>
 <defs>
  <clipPath id="pdf99cde225">
   <rect height="277.2" width="334.8" x="46.789688" y="7.2"/>
  </clipPath>
 </defs>
</svg>
