<?xml version="1.0" encoding="utf-8" standalone="no"?>
<!DOCTYPE svg PUBLIC "-//W3C//DTD SVG 1.1//EN"
  "http://www.w3.org/Graphics/SVG/1.1/DTD/svg11.dtd">
<!-- Created with matplotlib (https://matplotlib.org/) -->
<svg height="320.112687pt" version="1.1" viewBox="0 0 388.789688 320.112687" width="388.789688pt" xmlns="http://www.w3.org/2000/svg" xmlns:xlink="http://www.w3.org/1999/xlink">
 <defs>
  <style type="text/css">
*{stroke-linecap:butt;stroke-linejoin:round;}
  </style>
 </defs>
 <g id="figure_1">
  <g id="patch_1">
   <path d="M -0 320.112687 
L 388.789688 320.112687 
L 388.789688 0 
L -0 0 
z
" style="fill:#ffffff;stroke:#ffffff;stroke-linejoin:miter;"/>
  </g>
  <g id="axes_1">
   <g id="patch_2">
    <path d="M 46.789688 284.4 
L 381.589688 284.4 
L 381.589688 7.2 
L 46.789688 7.2 
z
" style="fill:#ffffff;"/>
   </g>
   <g id="matplotlib.axis_1">
    <g id="xtick_1">
     <g id="line2d_1">
      <path d="M 62.007869 284.4 
" style="fill:none;stroke:#333333;stroke-width:1.5;"/>
      <defs>
       <path d="M 0 0 
L 0 2.75 
" id="m4a0e594c66" style="stroke:#333333;"/>
      </defs>
      <g>
       <use style="fill:#333333;stroke:#333333;" x="62.007869" xlink:href="#m4a0e594c66" y="284.4"/>
      </g>
     </g>
     <g id="text_1">
      <!-- 0 -->
      <defs>
       <path d="M 31.78125 66.40625 
Q 24.171875 66.40625 20.328125 58.90625 
Q 16.5 51.421875 16.5 36.375 
Q 16.5 21.390625 20.328125 13.890625 
Q 24.171875 6.390625 31.78125 6.390625 
Q 39.453125 6.390625 43.28125 13.890625 
Q 47.125 21.390625 47.125 36.375 
Q 47.125 51.421875 43.28125 58.90625 
Q 39.453125 66.40625 31.78125 66.40625 
z
M 31.78125 74.21875 
Q 44.046875 74.21875 50.515625 64.515625 
Q 56.984375 54.828125 56.984375 36.375 
Q 56.984375 17.96875 50.515625 8.265625 
Q 44.046875 -1.421875 31.78125 -1.421875 
Q 19.53125 -1.421875 13.0625 8.265625 
Q 6.59375 17.96875 6.59375 36.375 
Q 6.59375 54.828125 13.0625 64.515625 
Q 19.53125 74.21875 31.78125 74.21875 
z
" id="DejaVuSans-48"/>
      </defs>
      <g style="fill:#4d4d4d;" transform="translate(59.208369 296.036625)scale(0.088 -0.088)">
       <use xlink:href="#DejaVuSans-48"/>
      </g>
     </g>
    </g>
    <g id="xtick_2">
     <g id="line2d_2">
      <path d="M 138.098778 284.4 
" style="fill:none;stroke:#333333;stroke-width:1.5;"/>
      <g>
       <use style="fill:#333333;stroke:#333333;" x="138.098778" xlink:href="#m4a0e594c66" y="284.4"/>
      </g>
     </g>
     <g id="text_2">
      <!-- 0.25 -->
      <defs>
       <path d="M 10.6875 12.40625 
L 21 12.40625 
L 21 0 
L 10.6875 0 
z
" id="DejaVuSans-46"/>
       <path d="M 19.1875 8.296875 
L 53.609375 8.296875 
L 53.609375 0 
L 7.328125 0 
L 7.328125 8.296875 
Q 12.9375 14.109375 22.625 23.890625 
Q 32.328125 33.6875 34.8125 36.53125 
Q 39.546875 41.84375 41.421875 45.53125 
Q 43.3125 49.21875 43.3125 52.78125 
Q 43.3125 58.59375 39.234375 62.25 
Q 35.15625 65.921875 28.609375 65.921875 
Q 23.96875 65.921875 18.8125 64.3125 
Q 13.671875 62.703125 7.8125 59.421875 
L 7.8125 69.390625 
Q 13.765625 71.78125 18.9375 73 
Q 24.125 74.21875 28.421875 74.21875 
Q 39.75 74.21875 46.484375 68.546875 
Q 53.21875 62.890625 53.21875 53.421875 
Q 53.21875 48.921875 51.53125 44.890625 
Q 49.859375 40.875 45.40625 35.40625 
Q 44.1875 33.984375 37.640625 27.21875 
Q 31.109375 20.453125 19.1875 8.296875 
z
" id="DejaVuSans-50"/>
       <path d="M 10.796875 72.90625 
L 49.515625 72.90625 
L 49.515625 64.59375 
L 19.828125 64.59375 
L 19.828125 46.734375 
Q 21.96875 47.46875 24.109375 47.828125 
Q 26.265625 48.1875 28.421875 48.1875 
Q 40.625 48.1875 47.75 41.5 
Q 54.890625 34.8125 54.890625 23.390625 
Q 54.890625 11.625 47.5625 5.09375 
Q 40.234375 -1.421875 26.90625 -1.421875 
Q 22.3125 -1.421875 17.546875 -0.640625 
Q 12.796875 0.140625 7.71875 1.703125 
L 7.71875 11.625 
Q 12.109375 9.234375 16.796875 8.0625 
Q 21.484375 6.890625 26.703125 6.890625 
Q 35.15625 6.890625 40.078125 11.328125 
Q 45.015625 15.765625 45.015625 23.390625 
Q 45.015625 31 40.078125 35.4375 
Q 35.15625 39.890625 26.703125 39.890625 
Q 22.75 39.890625 18.8125 39.015625 
Q 14.890625 38.140625 10.796875 36.28125 
z
" id="DejaVuSans-53"/>
      </defs>
      <g style="fill:#4d4d4d;" transform="translate(128.301903 296.036625)scale(0.088 -0.088)">
       <use xlink:href="#DejaVuSans-48"/>
       <use x="63.623047" xlink:href="#DejaVuSans-46"/>
       <use x="95.410156" xlink:href="#DejaVuSans-50"/>
       <use x="159.033203" xlink:href="#DejaVuSans-53"/>
      </g>
     </g>
    </g>
    <g id="xtick_3">
     <g id="line2d_3">
      <path d="M 214.189688 284.4 
" style="fill:none;stroke:#333333;stroke-width:1.5;"/>
      <g>
       <use style="fill:#333333;stroke:#333333;" x="214.189688" xlink:href="#m4a0e594c66" y="284.4"/>
      </g>
     </g>
     <g id="text_3">
      <!-- 0.50 -->
      <g style="fill:#4d4d4d;" transform="translate(204.392813 296.036625)scale(0.088 -0.088)">
       <use xlink:href="#DejaVuSans-48"/>
       <use x="63.623047" xlink:href="#DejaVuSans-46"/>
       <use x="95.410156" xlink:href="#DejaVuSans-53"/>
       <use x="159.033203" xlink:href="#DejaVuSans-48"/>
      </g>
     </g>
    </g>
    <g id="xtick_4">
     <g id="line2d_4">
      <path d="M 290.280597 284.4 
" style="fill:none;stroke:#333333;stroke-width:1.5;"/>
      <g>
       <use style="fill:#333333;stroke:#333333;" x="290.280597" xlink:href="#m4a0e594c66" y="284.4"/>
      </g>
     </g>
     <g id="text_4">
      <!-- 0.75 -->
      <defs>
       <path d="M 8.203125 72.90625 
L 55.078125 72.90625 
L 55.078125 68.703125 
L 28.609375 0 
L 18.3125 0 
L 43.21875 64.59375 
L 8.203125 64.59375 
z
" id="DejaVuSans-55"/>
      </defs>
      <g style="fill:#4d4d4d;" transform="translate(280.483722 296.036625)scale(0.088 -0.088)">
       <use xlink:href="#DejaVuSans-48"/>
       <use x="63.623047" xlink:href="#DejaVuSans-46"/>
       <use x="95.410156" xlink:href="#DejaVuSans-55"/>
       <use x="159.033203" xlink:href="#DejaVuSans-53"/>
      </g>
     </g>
    </g>
    <g id="xtick_5">
     <g id="line2d_5">
      <path d="M 366.371506 284.4 
" style="fill:none;stroke:#333333;stroke-width:1.5;"/>
      <g>
       <use style="fill:#333333;stroke:#333333;" x="366.371506" xlink:href="#m4a0e594c66" y="284.4"/>
      </g>
     </g>
     <g id="text_5">
      <!-- 1 -->
      <defs>
       <path d="M 12.40625 8.296875 
L 28.515625 8.296875 
L 28.515625 63.921875 
L 10.984375 60.40625 
L 10.984375 69.390625 
L 28.421875 72.90625 
L 38.28125 72.90625 
L 38.28125 8.296875 
L 54.390625 8.296875 
L 54.390625 0 
L 12.40625 0 
z
" id="DejaVuSans-49"/>
      </defs>
      <g style="fill:#4d4d4d;" transform="translate(363.572006 296.036625)scale(0.088 -0.088)">
       <use xlink:href="#DejaVuSans-49"/>
      </g>
     </g>
    </g>
    <g id="xtick_6"/>
    <g id="xtick_7"/>
    <g id="xtick_8"/>
    <g id="xtick_9"/>
    <g id="text_6">
     <!-- abundance [%] -->
     <defs>
      <path d="M 34.28125 27.484375 
Q 23.390625 27.484375 19.1875 25 
Q 14.984375 22.515625 14.984375 16.5 
Q 14.984375 11.71875 18.140625 8.90625 
Q 21.296875 6.109375 26.703125 6.109375 
Q 34.1875 6.109375 38.703125 11.40625 
Q 43.21875 16.703125 43.21875 25.484375 
L 43.21875 27.484375 
z
M 52.203125 31.203125 
L 52.203125 0 
L 43.21875 0 
L 43.21875 8.296875 
Q 40.140625 3.328125 35.546875 0.953125 
Q 30.953125 -1.421875 24.3125 -1.421875 
Q 15.921875 -1.421875 10.953125 3.296875 
Q 6 8.015625 6 15.921875 
Q 6 25.140625 12.171875 29.828125 
Q 18.359375 34.515625 30.609375 34.515625 
L 43.21875 34.515625 
L 43.21875 35.40625 
Q 43.21875 41.609375 39.140625 45 
Q 35.0625 48.390625 27.6875 48.390625 
Q 23 48.390625 18.546875 47.265625 
Q 14.109375 46.140625 10.015625 43.890625 
L 10.015625 52.203125 
Q 14.9375 54.109375 19.578125 55.046875 
Q 24.21875 56 28.609375 56 
Q 40.484375 56 46.34375 49.84375 
Q 52.203125 43.703125 52.203125 31.203125 
z
" id="DejaVuSans-97"/>
      <path d="M 48.6875 27.296875 
Q 48.6875 37.203125 44.609375 42.84375 
Q 40.53125 48.484375 33.40625 48.484375 
Q 26.265625 48.484375 22.1875 42.84375 
Q 18.109375 37.203125 18.109375 27.296875 
Q 18.109375 17.390625 22.1875 11.75 
Q 26.265625 6.109375 33.40625 6.109375 
Q 40.53125 6.109375 44.609375 11.75 
Q 48.6875 17.390625 48.6875 27.296875 
z
M 18.109375 46.390625 
Q 20.953125 51.265625 25.265625 53.625 
Q 29.59375 56 35.59375 56 
Q 45.5625 56 51.78125 48.09375 
Q 58.015625 40.1875 58.015625 27.296875 
Q 58.015625 14.40625 51.78125 6.484375 
Q 45.5625 -1.421875 35.59375 -1.421875 
Q 29.59375 -1.421875 25.265625 0.953125 
Q 20.953125 3.328125 18.109375 8.203125 
L 18.109375 0 
L 9.078125 0 
L 9.078125 75.984375 
L 18.109375 75.984375 
z
" id="DejaVuSans-98"/>
      <path d="M 8.5 21.578125 
L 8.5 54.6875 
L 17.484375 54.6875 
L 17.484375 21.921875 
Q 17.484375 14.15625 20.5 10.265625 
Q 23.53125 6.390625 29.59375 6.390625 
Q 36.859375 6.390625 41.078125 11.03125 
Q 45.3125 15.671875 45.3125 23.6875 
L 45.3125 54.6875 
L 54.296875 54.6875 
L 54.296875 0 
L 45.3125 0 
L 45.3125 8.40625 
Q 42.046875 3.421875 37.71875 1 
Q 33.40625 -1.421875 27.6875 -1.421875 
Q 18.265625 -1.421875 13.375 4.4375 
Q 8.5 10.296875 8.5 21.578125 
z
M 31.109375 56 
z
" id="DejaVuSans-117"/>
      <path d="M 54.890625 33.015625 
L 54.890625 0 
L 45.90625 0 
L 45.90625 32.71875 
Q 45.90625 40.484375 42.875 44.328125 
Q 39.84375 48.1875 33.796875 48.1875 
Q 26.515625 48.1875 22.3125 43.546875 
Q 18.109375 38.921875 18.109375 30.90625 
L 18.109375 0 
L 9.078125 0 
L 9.078125 54.6875 
L 18.109375 54.6875 
L 18.109375 46.1875 
Q 21.34375 51.125 25.703125 53.5625 
Q 30.078125 56 35.796875 56 
Q 45.21875 56 50.046875 50.171875 
Q 54.890625 44.34375 54.890625 33.015625 
z
" id="DejaVuSans-110"/>
      <path d="M 45.40625 46.390625 
L 45.40625 75.984375 
L 54.390625 75.984375 
L 54.390625 0 
L 45.40625 0 
L 45.40625 8.203125 
Q 42.578125 3.328125 38.25 0.953125 
Q 33.9375 -1.421875 27.875 -1.421875 
Q 17.96875 -1.421875 11.734375 6.484375 
Q 5.515625 14.40625 5.515625 27.296875 
Q 5.515625 40.1875 11.734375 48.09375 
Q 17.96875 56 27.875 56 
Q 33.9375 56 38.25 53.625 
Q 42.578125 51.265625 45.40625 46.390625 
z
M 14.796875 27.296875 
Q 14.796875 17.390625 18.875 11.75 
Q 22.953125 6.109375 30.078125 6.109375 
Q 37.203125 6.109375 41.296875 11.75 
Q 45.40625 17.390625 45.40625 27.296875 
Q 45.40625 37.203125 41.296875 42.84375 
Q 37.203125 48.484375 30.078125 48.484375 
Q 22.953125 48.484375 18.875 42.84375 
Q 14.796875 37.203125 14.796875 27.296875 
z
" id="DejaVuSans-100"/>
      <path d="M 48.78125 52.59375 
L 48.78125 44.1875 
Q 44.96875 46.296875 41.140625 47.34375 
Q 37.3125 48.390625 33.40625 48.390625 
Q 24.65625 48.390625 19.8125 42.84375 
Q 14.984375 37.3125 14.984375 27.296875 
Q 14.984375 17.28125 19.8125 11.734375 
Q 24.65625 6.203125 33.40625 6.203125 
Q 37.3125 6.203125 41.140625 7.25 
Q 44.96875 8.296875 48.78125 10.40625 
L 48.78125 2.09375 
Q 45.015625 0.34375 40.984375 -0.53125 
Q 36.96875 -1.421875 32.421875 -1.421875 
Q 20.0625 -1.421875 12.78125 6.34375 
Q 5.515625 14.109375 5.515625 27.296875 
Q 5.515625 40.671875 12.859375 48.328125 
Q 20.21875 56 33.015625 56 
Q 37.15625 56 41.109375 55.140625 
Q 45.0625 54.296875 48.78125 52.59375 
z
" id="DejaVuSans-99"/>
      <path d="M 56.203125 29.59375 
L 56.203125 25.203125 
L 14.890625 25.203125 
Q 15.484375 15.921875 20.484375 11.0625 
Q 25.484375 6.203125 34.421875 6.203125 
Q 39.59375 6.203125 44.453125 7.46875 
Q 49.3125 8.734375 54.109375 11.28125 
L 54.109375 2.78125 
Q 49.265625 0.734375 44.1875 -0.34375 
Q 39.109375 -1.421875 33.890625 -1.421875 
Q 20.796875 -1.421875 13.15625 6.1875 
Q 5.515625 13.8125 5.515625 26.8125 
Q 5.515625 40.234375 12.765625 48.109375 
Q 20.015625 56 32.328125 56 
Q 43.359375 56 49.78125 48.890625 
Q 56.203125 41.796875 56.203125 29.59375 
z
M 47.21875 32.234375 
Q 47.125 39.59375 43.09375 43.984375 
Q 39.0625 48.390625 32.421875 48.390625 
Q 24.90625 48.390625 20.390625 44.140625 
Q 15.875 39.890625 15.1875 32.171875 
z
" id="DejaVuSans-101"/>
      <path id="DejaVuSans-32"/>
      <path d="M 8.59375 75.984375 
L 29.296875 75.984375 
L 29.296875 69 
L 17.578125 69 
L 17.578125 -6.203125 
L 29.296875 -6.203125 
L 29.296875 -13.1875 
L 8.59375 -13.1875 
z
" id="DejaVuSans-91"/>
      <path d="M 72.703125 32.078125 
Q 68.453125 32.078125 66.03125 28.46875 
Q 63.625 24.859375 63.625 18.40625 
Q 63.625 12.0625 66.03125 8.421875 
Q 68.453125 4.78125 72.703125 4.78125 
Q 76.859375 4.78125 79.265625 8.421875 
Q 81.6875 12.0625 81.6875 18.40625 
Q 81.6875 24.8125 79.265625 28.4375 
Q 76.859375 32.078125 72.703125 32.078125 
z
M 72.703125 38.28125 
Q 80.421875 38.28125 84.953125 32.90625 
Q 89.5 27.546875 89.5 18.40625 
Q 89.5 9.28125 84.9375 3.921875 
Q 80.375 -1.421875 72.703125 -1.421875 
Q 64.890625 -1.421875 60.34375 3.921875 
Q 55.8125 9.28125 55.8125 18.40625 
Q 55.8125 27.59375 60.375 32.9375 
Q 64.9375 38.28125 72.703125 38.28125 
z
M 22.3125 68.015625 
Q 18.109375 68.015625 15.6875 64.375 
Q 13.28125 60.75 13.28125 54.390625 
Q 13.28125 47.953125 15.671875 44.328125 
Q 18.0625 40.71875 22.3125 40.71875 
Q 26.5625 40.71875 28.96875 44.328125 
Q 31.390625 47.953125 31.390625 54.390625 
Q 31.390625 60.6875 28.953125 64.34375 
Q 26.515625 68.015625 22.3125 68.015625 
z
M 66.40625 74.21875 
L 74.21875 74.21875 
L 28.609375 -1.421875 
L 20.796875 -1.421875 
z
M 22.3125 74.21875 
Q 30.03125 74.21875 34.609375 68.875 
Q 39.203125 63.53125 39.203125 54.390625 
Q 39.203125 45.171875 34.640625 39.84375 
Q 30.078125 34.515625 22.3125 34.515625 
Q 14.546875 34.515625 10.03125 39.859375 
Q 5.515625 45.21875 5.515625 54.390625 
Q 5.515625 63.484375 10.046875 68.84375 
Q 14.59375 74.21875 22.3125 74.21875 
z
" id="DejaVuSans-37"/>
      <path d="M 30.421875 75.984375 
L 30.421875 -13.1875 
L 9.71875 -13.1875 
L 9.71875 -6.203125 
L 21.390625 -6.203125 
L 21.390625 69 
L 9.71875 69 
L 9.71875 75.984375 
z
" id="DejaVuSans-93"/>
     </defs>
     <g transform="translate(166.934688 310.625031)scale(0.11 -0.11)">
      <use xlink:href="#DejaVuSans-97"/>
      <use x="61.279297" xlink:href="#DejaVuSans-98"/>
      <use x="124.755859" xlink:href="#DejaVuSans-117"/>
      <use x="188.134766" xlink:href="#DejaVuSans-110"/>
      <use x="251.513672" xlink:href="#DejaVuSans-100"/>
      <use x="314.990234" xlink:href="#DejaVuSans-97"/>
      <use x="376.269531" xlink:href="#DejaVuSans-110"/>
      <use x="439.648438" xlink:href="#DejaVuSans-99"/>
      <use x="494.628906" xlink:href="#DejaVuSans-101"/>
      <use x="556.152344" xlink:href="#DejaVuSans-32"/>
      <use x="587.939453" xlink:href="#DejaVuSans-91"/>
      <use x="626.953125" xlink:href="#DejaVuSans-37"/>
      <use x="721.972656" xlink:href="#DejaVuSans-93"/>
     </g>
    </g>
   </g>
   <g id="matplotlib.axis_2">
    <g id="ytick_1">
     <g id="line2d_6">
      <path d="M 46.789688 271.8 
" style="fill:none;stroke:#333333;stroke-width:1.5;"/>
      <defs>
       <path d="M 0 0 
L -2.75 0 
" id="m5f11673488" style="stroke:#333333;"/>
      </defs>
      <g>
       <use style="fill:#333333;stroke:#333333;" x="46.789688" xlink:href="#m5f11673488" y="271.8"/>
      </g>
     </g>
     <g id="text_7">
      <!-- 0 -->
      <g style="fill:#4d4d4d;" transform="translate(36.240688 274.22825)scale(0.088 -0.088)">
       <use xlink:href="#DejaVuSans-48"/>
      </g>
     </g>
    </g>
    <g id="ytick_2">
     <g id="line2d_7">
      <path d="M 46.789688 198.112062 
" style="fill:none;stroke:#333333;stroke-width:1.5;"/>
      <g>
       <use style="fill:#333333;stroke:#333333;" x="46.789688" xlink:href="#m5f11673488" y="198.112062"/>
      </g>
     </g>
     <g id="text_8">
      <!-- 0.02 -->
      <g style="fill:#4d4d4d;" transform="translate(22.245938 200.540312)scale(0.088 -0.088)">
       <use xlink:href="#DejaVuSans-48"/>
       <use x="63.623047" xlink:href="#DejaVuSans-46"/>
       <use x="95.410156" xlink:href="#DejaVuSans-48"/>
       <use x="159.033203" xlink:href="#DejaVuSans-50"/>
      </g>
     </g>
    </g>
    <g id="ytick_3">
     <g id="line2d_8">
      <path d="M 46.789688 124.424124 
" style="fill:none;stroke:#333333;stroke-width:1.5;"/>
      <g>
       <use style="fill:#333333;stroke:#333333;" x="46.789688" xlink:href="#m5f11673488" y="124.424124"/>
      </g>
     </g>
     <g id="text_9">
      <!-- 0.04 -->
      <defs>
       <path d="M 37.796875 64.3125 
L 12.890625 25.390625 
L 37.796875 25.390625 
z
M 35.203125 72.90625 
L 47.609375 72.90625 
L 47.609375 25.390625 
L 58.015625 25.390625 
L 58.015625 17.1875 
L 47.609375 17.1875 
L 47.609375 0 
L 37.796875 0 
L 37.796875 17.1875 
L 4.890625 17.1875 
L 4.890625 26.703125 
z
" id="DejaVuSans-52"/>
      </defs>
      <g style="fill:#4d4d4d;" transform="translate(22.245938 126.852374)scale(0.088 -0.088)">
       <use xlink:href="#DejaVuSans-48"/>
       <use x="63.623047" xlink:href="#DejaVuSans-46"/>
       <use x="95.410156" xlink:href="#DejaVuSans-48"/>
       <use x="159.033203" xlink:href="#DejaVuSans-52"/>
      </g>
     </g>
    </g>
    <g id="ytick_4">
     <g id="line2d_9">
      <path d="M 46.789688 50.736185 
" style="fill:none;stroke:#333333;stroke-width:1.5;"/>
      <g>
       <use style="fill:#333333;stroke:#333333;" x="46.789688" xlink:href="#m5f11673488" y="50.736185"/>
      </g>
     </g>
     <g id="text_10">
      <!-- 0.06 -->
      <defs>
       <path d="M 33.015625 40.375 
Q 26.375 40.375 22.484375 35.828125 
Q 18.609375 31.296875 18.609375 23.390625 
Q 18.609375 15.53125 22.484375 10.953125 
Q 26.375 6.390625 33.015625 6.390625 
Q 39.65625 6.390625 43.53125 10.953125 
Q 47.40625 15.53125 47.40625 23.390625 
Q 47.40625 31.296875 43.53125 35.828125 
Q 39.65625 40.375 33.015625 40.375 
z
M 52.59375 71.296875 
L 52.59375 62.3125 
Q 48.875 64.0625 45.09375 64.984375 
Q 41.3125 65.921875 37.59375 65.921875 
Q 27.828125 65.921875 22.671875 59.328125 
Q 17.53125 52.734375 16.796875 39.40625 
Q 19.671875 43.65625 24.015625 45.921875 
Q 28.375 48.1875 33.59375 48.1875 
Q 44.578125 48.1875 50.953125 41.515625 
Q 57.328125 34.859375 57.328125 23.390625 
Q 57.328125 12.15625 50.6875 5.359375 
Q 44.046875 -1.421875 33.015625 -1.421875 
Q 20.359375 -1.421875 13.671875 8.265625 
Q 6.984375 17.96875 6.984375 36.375 
Q 6.984375 53.65625 15.1875 63.9375 
Q 23.390625 74.21875 37.203125 74.21875 
Q 40.921875 74.21875 44.703125 73.484375 
Q 48.484375 72.75 52.59375 71.296875 
z
" id="DejaVuSans-54"/>
      </defs>
      <g style="fill:#4d4d4d;" transform="translate(22.245938 53.164435)scale(0.088 -0.088)">
       <use xlink:href="#DejaVuSans-48"/>
       <use x="63.623047" xlink:href="#DejaVuSans-46"/>
       <use x="95.410156" xlink:href="#DejaVuSans-48"/>
       <use x="159.033203" xlink:href="#DejaVuSans-54"/>
      </g>
     </g>
    </g>
    <g id="ytick_5"/>
    <g id="ytick_6"/>
    <g id="ytick_7"/>
    <g id="ytick_8"/>
    <g id="text_11">
     <!-- growth rate [1/h] -->
     <defs>
      <path d="M 45.40625 27.984375 
Q 45.40625 37.75 41.375 43.109375 
Q 37.359375 48.484375 30.078125 48.484375 
Q 22.859375 48.484375 18.828125 43.109375 
Q 14.796875 37.75 14.796875 27.984375 
Q 14.796875 18.265625 18.828125 12.890625 
Q 22.859375 7.515625 30.078125 7.515625 
Q 37.359375 7.515625 41.375 12.890625 
Q 45.40625 18.265625 45.40625 27.984375 
z
M 54.390625 6.78125 
Q 54.390625 -7.171875 48.1875 -13.984375 
Q 42 -20.796875 29.203125 -20.796875 
Q 24.46875 -20.796875 20.265625 -20.09375 
Q 16.0625 -19.390625 12.109375 -17.921875 
L 12.109375 -9.1875 
Q 16.0625 -11.328125 19.921875 -12.34375 
Q 23.78125 -13.375 27.78125 -13.375 
Q 36.625 -13.375 41.015625 -8.765625 
Q 45.40625 -4.15625 45.40625 5.171875 
L 45.40625 9.625 
Q 42.625 4.78125 38.28125 2.390625 
Q 33.9375 0 27.875 0 
Q 17.828125 0 11.671875 7.65625 
Q 5.515625 15.328125 5.515625 27.984375 
Q 5.515625 40.671875 11.671875 48.328125 
Q 17.828125 56 27.875 56 
Q 33.9375 56 38.28125 53.609375 
Q 42.625 51.21875 45.40625 46.390625 
L 45.40625 54.6875 
L 54.390625 54.6875 
z
" id="DejaVuSans-103"/>
      <path d="M 41.109375 46.296875 
Q 39.59375 47.171875 37.8125 47.578125 
Q 36.03125 48 33.890625 48 
Q 26.265625 48 22.1875 43.046875 
Q 18.109375 38.09375 18.109375 28.8125 
L 18.109375 0 
L 9.078125 0 
L 9.078125 54.6875 
L 18.109375 54.6875 
L 18.109375 46.1875 
Q 20.953125 51.171875 25.484375 53.578125 
Q 30.03125 56 36.53125 56 
Q 37.453125 56 38.578125 55.875 
Q 39.703125 55.765625 41.0625 55.515625 
z
" id="DejaVuSans-114"/>
      <path d="M 30.609375 48.390625 
Q 23.390625 48.390625 19.1875 42.75 
Q 14.984375 37.109375 14.984375 27.296875 
Q 14.984375 17.484375 19.15625 11.84375 
Q 23.34375 6.203125 30.609375 6.203125 
Q 37.796875 6.203125 41.984375 11.859375 
Q 46.1875 17.53125 46.1875 27.296875 
Q 46.1875 37.015625 41.984375 42.703125 
Q 37.796875 48.390625 30.609375 48.390625 
z
M 30.609375 56 
Q 42.328125 56 49.015625 48.375 
Q 55.71875 40.765625 55.71875 27.296875 
Q 55.71875 13.875 49.015625 6.21875 
Q 42.328125 -1.421875 30.609375 -1.421875 
Q 18.84375 -1.421875 12.171875 6.21875 
Q 5.515625 13.875 5.515625 27.296875 
Q 5.515625 40.765625 12.171875 48.375 
Q 18.84375 56 30.609375 56 
z
" id="DejaVuSans-111"/>
      <path d="M 4.203125 54.6875 
L 13.1875 54.6875 
L 24.421875 12.015625 
L 35.59375 54.6875 
L 46.1875 54.6875 
L 57.421875 12.015625 
L 68.609375 54.6875 
L 77.59375 54.6875 
L 63.28125 0 
L 52.6875 0 
L 40.921875 44.828125 
L 29.109375 0 
L 18.5 0 
z
" id="DejaVuSans-119"/>
      <path d="M 18.3125 70.21875 
L 18.3125 54.6875 
L 36.8125 54.6875 
L 36.8125 47.703125 
L 18.3125 47.703125 
L 18.3125 18.015625 
Q 18.3125 11.328125 20.140625 9.421875 
Q 21.96875 7.515625 27.59375 7.515625 
L 36.8125 7.515625 
L 36.8125 0 
L 27.59375 0 
Q 17.1875 0 13.234375 3.875 
Q 9.28125 7.765625 9.28125 18.015625 
L 9.28125 47.703125 
L 2.6875 47.703125 
L 2.6875 54.6875 
L 9.28125 54.6875 
L 9.28125 70.21875 
z
" id="DejaVuSans-116"/>
      <path d="M 54.890625 33.015625 
L 54.890625 0 
L 45.90625 0 
L 45.90625 32.71875 
Q 45.90625 40.484375 42.875 44.328125 
Q 39.84375 48.1875 33.796875 48.1875 
Q 26.515625 48.1875 22.3125 43.546875 
Q 18.109375 38.921875 18.109375 30.90625 
L 18.109375 0 
L 9.078125 0 
L 9.078125 75.984375 
L 18.109375 75.984375 
L 18.109375 46.1875 
Q 21.34375 51.125 25.703125 53.5625 
Q 30.078125 56 35.796875 56 
Q 45.21875 56 50.046875 50.171875 
Q 54.890625 44.34375 54.890625 33.015625 
z
" id="DejaVuSans-104"/>
      <path d="M 25.390625 72.90625 
L 33.6875 72.90625 
L 8.296875 -9.28125 
L 0 -9.28125 
z
" id="DejaVuSans-47"/>
     </defs>
     <g transform="translate(15.558281 191.053359)rotate(-90)scale(0.11 -0.11)">
      <use xlink:href="#DejaVuSans-103"/>
      <use x="63.476562" xlink:href="#DejaVuSans-114"/>
      <use x="104.558594" xlink:href="#DejaVuSans-111"/>
      <use x="165.740234" xlink:href="#DejaVuSans-119"/>
      <use x="247.527344" xlink:href="#DejaVuSans-116"/>
      <use x="286.736328" xlink:href="#DejaVuSans-104"/>
      <use x="350.115234" xlink:href="#DejaVuSans-32"/>
      <use x="381.902344" xlink:href="#DejaVuSans-114"/>
      <use x="423.015625" xlink:href="#DejaVuSans-97"/>
      <use x="484.294922" xlink:href="#DejaVuSans-116"/>
      <use x="523.503906" xlink:href="#DejaVuSans-101"/>
      <use x="585.027344" xlink:href="#DejaVuSans-32"/>
      <use x="616.814453" xlink:href="#DejaVuSans-91"/>
      <use x="655.828125" xlink:href="#DejaVuSans-49"/>
      <use x="719.451172" xlink:href="#DejaVuSans-47"/>
      <use x="753.142578" xlink:href="#DejaVuSans-104"/>
      <use x="816.521484" xlink:href="#DejaVuSans-93"/>
     </g>
    </g>
   </g>
   <g id="PathCollection_1">
    <path clip-path="url(#p222ce6ef58)" d="M 89.227235 252.667614 
C 89.81481 252.667614 90.378399 252.434168 90.793877 252.01869 
C 91.209356 251.603211 91.442802 251.039622 91.442802 250.452047 
C 91.442802 249.864472 91.209356 249.300883 90.793877 248.885404 
C 90.378399 248.469926 89.81481 248.23648 89.227235 248.23648 
C 88.639659 248.23648 88.076071 248.469926 87.660592 248.885404 
C 87.245114 249.300883 87.011667 249.864472 87.011667 250.452047 
C 87.011667 251.039622 87.245114 251.603211 87.660592 252.01869 
C 88.076071 252.434168 88.639659 252.667614 89.227235 252.667614 
z
" style="fill:#d3db57;stroke:#d3db57;stroke-width:0.886227;"/>
    <path clip-path="url(#p222ce6ef58)" d="M 181.549475 180.247447 
C 182.137051 180.247447 182.70064 180.014001 183.116118 179.598523 
C 183.531597 179.183044 183.765043 178.619455 183.765043 178.03188 
C 183.765043 177.444305 183.531597 176.880716 183.116118 176.465237 
C 182.70064 176.049759 182.137051 175.816313 181.549475 175.816313 
C 180.9619 175.816313 180.398311 176.049759 179.982833 176.465237 
C 179.567354 176.880716 179.333908 177.444305 179.333908 178.03188 
C 179.333908 178.619455 179.567354 179.183044 179.982833 179.598523 
C 180.398311 180.014001 180.9619 180.247447 181.549475 180.247447 
z
" style="fill:#d3db57;stroke:#d3db57;stroke-width:0.886227;"/>
    <path clip-path="url(#p222ce6ef58)" d="M 219.610534 150.383967 
C 220.198109 150.383967 220.761698 150.150521 221.177177 149.735042 
C 221.592655 149.319564 221.826101 148.755975 221.826101 148.1684 
C 221.826101 147.580824 221.592655 147.017235 221.177177 146.601757 
C 220.761698 146.186278 220.198109 145.952832 219.610534 145.952832 
C 219.022959 145.952832 218.45937 146.186278 218.043891 146.601757 
C 217.628413 147.017235 217.394967 147.580824 217.394967 148.1684 
C 217.394967 148.755975 217.628413 149.319564 218.043891 149.735042 
C 218.45937 150.150521 219.022959 150.383967 219.610534 150.383967 
z
" style="fill:#d3db57;stroke:#d3db57;stroke-width:0.886227;"/>
    <path clip-path="url(#p222ce6ef58)" d="M 77.851992 262.704683 
C 78.439568 262.704683 79.003157 262.471237 79.418635 262.055758 
C 79.834114 261.64028 80.06756 261.076691 80.06756 260.489116 
C 80.06756 259.90154 79.834114 259.337951 79.418635 258.922473 
C 79.003157 258.506994 78.439568 258.273548 77.851992 258.273548 
C 77.264417 258.273548 76.700828 258.506994 76.28535 258.922473 
C 75.869871 259.337951 75.636425 259.90154 75.636425 260.489116 
C 75.636425 261.076691 75.869871 261.64028 76.28535 262.055758 
C 76.700828 262.471237 77.264417 262.704683 77.851992 262.704683 
z
" style="fill:#db5f57;stroke:#db5f57;stroke-width:0.886227;"/>
    <path clip-path="url(#p222ce6ef58)" d="M 175.264543 193.140658 
C 175.852118 193.140658 176.415707 192.907212 176.831186 192.491734 
C 177.246664 192.076255 177.48011 191.512666 177.48011 190.925091 
C 177.48011 190.337516 177.246664 189.773927 176.831186 189.358448 
C 176.415707 188.94297 175.852118 188.709524 175.264543 188.709524 
C 174.676968 188.709524 174.113379 188.94297 173.6979 189.358448 
C 173.282422 189.773927 173.048976 190.337516 173.048976 190.925091 
C 173.048976 191.512666 173.282422 192.076255 173.6979 192.491734 
C 174.113379 192.907212 174.676968 193.140658 175.264543 193.140658 
z
" style="fill:#db5f57;stroke:#db5f57;stroke-width:0.886227;"/>
    <path clip-path="url(#p222ce6ef58)" d="M 237.270709 148.854382 
C 237.858284 148.854382 238.421873 148.620935 238.837352 148.205457 
C 239.25283 147.789978 239.486276 147.22639 239.486276 146.638814 
C 239.486276 146.051239 239.25283 145.48765 238.837352 145.072172 
C 238.421873 144.656693 237.858284 144.423247 237.270709 144.423247 
C 236.683134 144.423247 236.119545 144.656693 235.704066 145.072172 
C 235.288588 145.48765 235.055142 146.051239 235.055142 146.638814 
C 235.055142 147.22639 235.288588 147.789978 235.704066 148.205457 
C 236.119545 148.620935 236.683134 148.854382 237.270709 148.854382 
z
" style="fill:#db5f57;stroke:#db5f57;stroke-width:0.886227;"/>
    <path clip-path="url(#p222ce6ef58)" d="M 82.134332 258.700592 
C 82.721908 258.700592 83.285497 258.467146 83.700975 258.051667 
C 84.116454 257.636189 84.3499 257.0726 84.3499 256.485025 
C 84.3499 255.897449 84.116454 255.33386 83.700975 254.918382 
C 83.285497 254.502903 82.721908 254.269457 82.134332 254.269457 
C 81.546757 254.269457 80.983168 254.502903 80.56769 254.918382 
C 80.152211 255.33386 79.918765 255.897449 79.918765 256.485025 
C 79.918765 257.0726 80.152211 257.636189 80.56769 258.051667 
C 80.983168 258.467146 81.546757 258.700592 82.134332 258.700592 
z
" style="fill:#dba157;stroke:#dba157;stroke-width:0.886227;"/>
    <path clip-path="url(#p222ce6ef58)" d="M 192.081468 175.017594 
C 192.669043 175.017594 193.232632 174.784148 193.648111 174.36867 
C 194.063589 173.953191 194.297035 173.389602 194.297035 172.802027 
C 194.297035 172.214452 194.063589 171.650863 193.648111 171.235384 
C 193.232632 170.819906 192.669043 170.58646 192.081468 170.58646 
C 191.493893 170.58646 190.930304 170.819906 190.514825 171.235384 
C 190.099347 171.650863 189.865901 172.214452 189.865901 172.802027 
C 189.865901 173.389602 190.099347 173.953191 190.514825 174.36867 
C 190.930304 174.784148 191.493893 175.017594 192.081468 175.017594 
z
" style="fill:#dba157;stroke:#dba157;stroke-width:0.886227;"/>
    <path clip-path="url(#p222ce6ef58)" d="M 216.171444 156.674748 
C 216.759019 156.674748 217.322608 156.441302 217.738086 156.025823 
C 218.153565 155.610345 218.387011 155.046756 218.387011 154.459181 
C 218.387011 153.871605 218.153565 153.308016 217.738086 152.892538 
C 217.322608 152.477059 216.759019 152.243613 216.171444 152.243613 
C 215.583868 152.243613 215.02028 152.477059 214.604801 152.892538 
C 214.189323 153.308016 213.955876 153.871605 213.955876 154.459181 
C 213.955876 155.046756 214.189323 155.610345 214.604801 156.025823 
C 215.02028 156.441302 215.583868 156.674748 216.171444 156.674748 
z
" style="fill:#dba157;stroke:#dba157;stroke-width:0.886227;"/>
    <path clip-path="url(#p222ce6ef58)" d="M 90.271966 251.68878 
C 90.859541 251.68878 91.42313 251.455334 91.838609 251.039856 
C 92.254087 250.624377 92.487533 250.060788 92.487533 249.473213 
C 92.487533 248.885638 92.254087 248.322049 91.838609 247.90657 
C 91.42313 247.491092 90.859541 247.257646 90.271966 247.257646 
C 89.684391 247.257646 89.120802 247.491092 88.705323 247.90657 
C 88.289845 248.322049 88.056399 248.885638 88.056399 249.473213 
C 88.056399 250.060788 88.289845 250.624377 88.705323 251.039856 
C 89.120802 251.455334 89.684391 251.68878 90.271966 251.68878 
z
" style="fill:#57db5f;stroke:#57db5f;stroke-width:0.886227;"/>
    <path clip-path="url(#p222ce6ef58)" d="M 181.742334 179.421252 
C 182.329909 179.421252 182.893498 179.187806 183.308976 178.772327 
C 183.724455 178.356849 183.957901 177.79326 183.957901 177.205684 
C 183.957901 176.618109 183.724455 176.05452 183.308976 175.639042 
C 182.893498 175.223563 182.329909 174.990117 181.742334 174.990117 
C 181.154758 174.990117 180.591169 175.223563 180.175691 175.639042 
C 179.760212 176.05452 179.526766 176.618109 179.526766 177.205684 
C 179.526766 177.79326 179.760212 178.356849 180.175691 178.772327 
C 180.591169 179.187806 181.154758 179.421252 181.742334 179.421252 
z
" style="fill:#57db5f;stroke:#57db5f;stroke-width:0.886227;"/>
    <path clip-path="url(#p222ce6ef58)" d="M 218.372945 150.473319 
C 218.96052 150.473319 219.524109 150.239873 219.939587 149.824395 
C 220.355066 149.408916 220.588512 148.845327 220.588512 148.257752 
C 220.588512 147.670177 220.355066 147.106588 219.939587 146.691109 
C 219.524109 146.275631 218.96052 146.042185 218.372945 146.042185 
C 217.785369 146.042185 217.22178 146.275631 216.806302 146.691109 
C 216.390823 147.106588 216.157377 147.670177 216.157377 148.257752 
C 216.157377 148.845327 216.390823 149.408916 216.806302 149.824395 
C 217.22178 150.239873 217.785369 150.473319 218.372945 150.473319 
z
" style="fill:#57db5f;stroke:#57db5f;stroke-width:0.886227;"/>
    <path clip-path="url(#p222ce6ef58)" d="M 90.068967 251.875602 
C 90.656542 251.875602 91.220131 251.642155 91.63561 251.226677 
C 92.051088 250.811198 92.284534 250.24761 92.284534 249.660034 
C 92.284534 249.072459 92.051088 248.50887 91.63561 248.093392 
C 91.220131 247.677913 90.656542 247.444467 90.068967 247.444467 
C 89.481392 247.444467 88.917803 247.677913 88.502324 248.093392 
C 88.086846 248.50887 87.8534 249.072459 87.8534 249.660034 
C 87.8534 250.24761 88.086846 250.811198 88.502324 251.226677 
C 88.917803 251.642155 89.481392 251.875602 90.068967 251.875602 
z
" style="fill:#91db57;stroke:#91db57;stroke-width:0.886227;"/>
    <path clip-path="url(#p222ce6ef58)" d="M 181.807981 179.482261 
C 182.395556 179.482261 182.959145 179.248815 183.374623 178.833336 
C 183.790102 178.417858 184.023548 177.854269 184.023548 177.266694 
C 184.023548 176.679118 183.790102 176.11553 183.374623 175.700051 
C 182.959145 175.284573 182.395556 175.051126 181.807981 175.051126 
C 181.220405 175.051126 180.656816 175.284573 180.241338 175.700051 
C 179.825859 176.11553 179.592413 176.679118 179.592413 177.266694 
C 179.592413 177.854269 179.825859 178.417858 180.241338 178.833336 
C 180.656816 179.248815 181.220405 179.482261 181.807981 179.482261 
z
" style="fill:#91db57;stroke:#91db57;stroke-width:0.886227;"/>
    <path clip-path="url(#p222ce6ef58)" d="M 218.510297 150.512264 
C 219.097872 150.512264 219.661461 150.278818 220.076939 149.86334 
C 220.492418 149.447861 220.725864 148.884272 220.725864 148.296697 
C 220.725864 147.709122 220.492418 147.145533 220.076939 146.730054 
C 219.661461 146.314576 219.097872 146.08113 218.510297 146.08113 
C 217.922721 146.08113 217.359132 146.314576 216.943654 146.730054 
C 216.528175 147.145533 216.294729 147.709122 216.294729 148.296697 
C 216.294729 148.884272 216.528175 149.447861 216.943654 149.86334 
C 217.359132 150.278818 217.922721 150.512264 218.510297 150.512264 
z
" style="fill:#91db57;stroke:#91db57;stroke-width:0.886227;"/>
    <path clip-path="url(#p222ce6ef58)" d="M 244.06468 136.487602 
C 244.652255 136.487602 245.215844 136.254156 245.631323 135.838678 
C 246.046801 135.423199 246.280247 134.85961 246.280247 134.272035 
C 246.280247 133.68446 246.046801 133.120871 245.631323 132.705392 
C 245.215844 132.289914 244.652255 132.056468 244.06468 132.056468 
C 243.477105 132.056468 242.913516 132.289914 242.498037 132.705392 
C 242.082559 133.120871 241.849113 133.68446 241.849113 134.272035 
C 241.849113 134.85961 242.082559 135.423199 242.498037 135.838678 
C 242.913516 136.254156 243.477105 136.487602 244.06468 136.487602 
z
" style="fill:#db5791;stroke:#db5791;stroke-width:0.886227;"/>
    <path clip-path="url(#p222ce6ef58)" d="M 142.881088 212.927798 
C 143.468664 212.927798 144.032252 212.694352 144.447731 212.278874 
C 144.863209 211.863395 145.096656 211.299806 145.096656 210.712231 
C 145.096656 210.124656 144.863209 209.561067 144.447731 209.145588 
C 144.032252 208.73011 143.468664 208.496664 142.881088 208.496664 
C 142.293513 208.496664 141.729924 208.73011 141.314446 209.145588 
C 140.898967 209.561067 140.665521 210.124656 140.665521 210.712231 
C 140.665521 211.299806 140.898967 211.863395 141.314446 212.278874 
C 141.729924 212.694352 142.293513 212.927798 142.881088 212.927798 
z
" style="fill:#db5791;stroke:#db5791;stroke-width:0.886227;"/>
    <path clip-path="url(#p222ce6ef58)" d="M 103.441476 242.720395 
C 104.029051 242.720395 104.59264 242.486949 105.008119 242.071471 
C 105.423597 241.655992 105.657043 241.092403 105.657043 240.504828 
C 105.657043 239.917253 105.423597 239.353664 105.008119 238.938186 
C 104.59264 238.522707 104.029051 238.289261 103.441476 238.289261 
C 102.853901 238.289261 102.290312 238.522707 101.874833 238.938186 
C 101.459355 239.353664 101.225909 239.917253 101.225909 240.504828 
C 101.225909 241.092403 101.459355 241.655992 101.874833 242.071471 
C 102.290312 242.486949 102.853901 242.720395 103.441476 242.720395 
z
" style="fill:#db5791;stroke:#db5791;stroke-width:0.886227;"/>
    <path clip-path="url(#p222ce6ef58)" d="M 227.352157 139.03926 
C 227.939732 139.03926 228.503321 138.805814 228.918799 138.390335 
C 229.334278 137.974857 229.567724 137.411268 229.567724 136.823692 
C 229.567724 136.236117 229.334278 135.672528 228.918799 135.25705 
C 228.503321 134.841571 227.939732 134.608125 227.352157 134.608125 
C 226.764581 134.608125 226.200993 134.841571 225.785514 135.25705 
C 225.370036 135.672528 225.136589 136.236117 225.136589 136.823692 
C 225.136589 137.411268 225.370036 137.974857 225.785514 138.390335 
C 226.200993 138.805814 226.764581 139.03926 227.352157 139.03926 
z
" style="fill:#57dba1;stroke:#57dba1;stroke-width:0.886227;"/>
    <path clip-path="url(#p222ce6ef58)" d="M 157.114228 196.382505 
C 157.701804 196.382505 158.265392 196.149059 158.680871 195.733581 
C 159.096349 195.318102 159.329796 194.754513 159.329796 194.166938 
C 159.329796 193.579363 159.096349 193.015774 158.680871 192.600295 
C 158.265392 192.184817 157.701804 191.951371 157.114228 191.951371 
C 156.526653 191.951371 155.963064 192.184817 155.547586 192.600295 
C 155.132107 193.015774 154.898661 193.579363 154.898661 194.166938 
C 154.898661 194.754513 155.132107 195.318102 155.547586 195.733581 
C 155.963064 196.149059 156.526653 196.382505 157.114228 196.382505 
z
" style="fill:#57dba1;stroke:#57dba1;stroke-width:0.886227;"/>
    <path clip-path="url(#p222ce6ef58)" d="M 105.920859 238.17242 
C 106.508435 238.17242 107.072024 237.938973 107.487502 237.523495 
C 107.902981 237.108016 108.136427 236.544428 108.136427 235.956852 
C 108.136427 235.369277 107.902981 234.805688 107.487502 234.39021 
C 107.072024 233.974731 106.508435 233.741285 105.920859 233.741285 
C 105.333284 233.741285 104.769695 233.974731 104.354217 234.39021 
C 103.938738 234.805688 103.705292 235.369277 103.705292 235.956852 
C 103.705292 236.544428 103.938738 237.108016 104.354217 237.523495 
C 104.769695 237.938973 105.333284 238.17242 105.920859 238.17242 
z
" style="fill:#57dba1;stroke:#57dba1;stroke-width:0.886227;"/>
    <path clip-path="url(#p222ce6ef58)" d="M 241.516041 134.26969 
C 242.103616 134.26969 242.667205 134.036244 243.082684 133.620766 
C 243.498162 133.205287 243.731608 132.641698 243.731608 132.054123 
C 243.731608 131.466548 243.498162 130.902959 243.082684 130.48748 
C 242.667205 130.072002 242.103616 129.838556 241.516041 129.838556 
C 240.928466 129.838556 240.364877 130.072002 239.949398 130.48748 
C 239.53392 130.902959 239.300474 131.466548 239.300474 132.054123 
C 239.300474 132.641698 239.53392 133.205287 239.949398 133.620766 
C 240.364877 134.036244 240.928466 134.26969 241.516041 134.26969 
z
" style="fill:#a157db;stroke:#a157db;stroke-width:0.886227;"/>
    <path clip-path="url(#p222ce6ef58)" d="M 133.290161 218.527565 
C 133.877736 218.527565 134.441325 218.294119 134.856803 217.87864 
C 135.272282 217.463162 135.505728 216.899573 135.505728 216.311998 
C 135.505728 215.724422 135.272282 215.160833 134.856803 214.745355 
C 134.441325 214.329876 133.877736 214.09643 133.290161 214.09643 
C 132.702585 214.09643 132.138997 214.329876 131.723518 214.745355 
C 131.30804 215.160833 131.074593 215.724422 131.074593 216.311998 
C 131.074593 216.899573 131.30804 217.463162 131.723518 217.87864 
C 132.138997 218.294119 132.702585 218.527565 133.290161 218.527565 
z
" style="fill:#a157db;stroke:#a157db;stroke-width:0.886227;"/>
    <path clip-path="url(#p222ce6ef58)" d="M 115.581043 232.313722 
C 116.168618 232.313722 116.732207 232.080275 117.147685 231.664797 
C 117.563164 231.249318 117.79661 230.68573 117.79661 230.098154 
C 117.79661 229.510579 117.563164 228.94699 117.147685 228.531512 
C 116.732207 228.116033 116.168618 227.882587 115.581043 227.882587 
C 114.993467 227.882587 114.429878 228.116033 114.0144 228.531512 
C 113.598921 228.94699 113.365475 229.510579 113.365475 230.098154 
C 113.365475 230.68573 113.598921 231.249318 114.0144 231.664797 
C 114.429878 232.080275 114.993467 232.313722 115.581043 232.313722 
z
" style="fill:#a157db;stroke:#a157db;stroke-width:0.886227;"/>
    <path clip-path="url(#p222ce6ef58)" d="M 230.760047 134.293016 
C 231.347622 134.293016 231.911211 134.05957 232.32669 133.644091 
C 232.742168 133.228613 232.975614 132.665024 232.975614 132.077449 
C 232.975614 131.489873 232.742168 130.926284 232.32669 130.510806 
C 231.911211 130.095327 231.347622 129.861881 230.760047 129.861881 
C 230.172472 129.861881 229.608883 130.095327 229.193404 130.510806 
C 228.777926 130.926284 228.54448 131.489873 228.54448 132.077449 
C 228.54448 132.665024 228.777926 133.228613 229.193404 133.644091 
C 229.608883 134.05957 230.172472 134.293016 230.760047 134.293016 
z
" style="fill:#5791db;stroke:#5791db;stroke-width:0.886227;"/>
    <path clip-path="url(#p222ce6ef58)" d="M 136.923323 211.99254 
C 137.510898 211.99254 138.074487 211.759094 138.489966 211.343616 
C 138.905444 210.928137 139.13889 210.364548 139.13889 209.776973 
C 139.13889 209.189398 138.905444 208.625809 138.489966 208.21033 
C 138.074487 207.794852 137.510898 207.561406 136.923323 207.561406 
C 136.335748 207.561406 135.772159 207.794852 135.35668 208.21033 
C 134.941202 208.625809 134.707756 209.189398 134.707756 209.776973 
C 134.707756 210.364548 134.941202 210.928137 135.35668 211.343616 
C 135.772159 211.759094 136.335748 211.99254 136.923323 211.99254 
z
" style="fill:#5791db;stroke:#5791db;stroke-width:0.886227;"/>
    <path clip-path="url(#p222ce6ef58)" d="M 122.703874 223.76562 
C 123.29145 223.76562 123.855038 223.532174 124.270517 223.116696 
C 124.685995 222.701217 124.919442 222.137628 124.919442 221.550053 
C 124.919442 220.962478 124.685995 220.398889 124.270517 219.98341 
C 123.855038 219.567932 123.29145 219.334486 122.703874 219.334486 
C 122.116299 219.334486 121.55271 219.567932 121.137232 219.98341 
C 120.721753 220.398889 120.488307 220.962478 120.488307 221.550053 
C 120.488307 222.137628 120.721753 222.701217 121.137232 223.116696 
C 121.55271 223.532174 122.116299 223.76562 122.703874 223.76562 
z
" style="fill:#5791db;stroke:#5791db;stroke-width:0.886227;"/>
    <path clip-path="url(#p222ce6ef58)" d="M 227.630202 137.358862 
C 228.217777 137.358862 228.781366 137.125416 229.196844 136.709938 
C 229.612323 136.294459 229.845769 135.73087 229.845769 135.143295 
C 229.845769 134.55572 229.612323 133.992131 229.196844 133.576652 
C 228.781366 133.161174 228.217777 132.927728 227.630202 132.927728 
C 227.042626 132.927728 226.479037 133.161174 226.063559 133.576652 
C 225.64808 133.992131 225.414634 134.55572 225.414634 135.143295 
C 225.414634 135.73087 225.64808 136.294459 226.063559 136.709938 
C 226.479037 137.125416 227.042626 137.358862 227.630202 137.358862 
z
" style="fill:#57d3db;stroke:#57d3db;stroke-width:0.886227;"/>
    <path clip-path="url(#p222ce6ef58)" d="M 151.9878 199.777656 
C 152.575376 199.777656 153.138965 199.54421 153.554443 199.128732 
C 153.969922 198.713253 154.203368 198.149664 154.203368 197.562089 
C 154.203368 196.974514 153.969922 196.410925 153.554443 195.995446 
C 153.138965 195.579968 152.575376 195.346522 151.9878 195.346522 
C 151.400225 195.346522 150.836636 195.579968 150.421158 195.995446 
C 150.005679 196.410925 149.772233 196.974514 149.772233 197.562089 
C 149.772233 198.149664 150.005679 198.713253 150.421158 199.128732 
C 150.836636 199.54421 151.400225 199.777656 151.9878 199.777656 
z
" style="fill:#57d3db;stroke:#57d3db;stroke-width:0.886227;"/>
    <path clip-path="url(#p222ce6ef58)" d="M 110.769242 233.786701 
C 111.356818 233.786701 111.920406 233.553255 112.335885 233.137777 
C 112.751363 232.722298 112.98481 232.158709 112.98481 231.571134 
C 112.98481 230.983559 112.751363 230.41997 112.335885 230.004491 
C 111.920406 229.589013 111.356818 229.355567 110.769242 229.355567 
C 110.181667 229.355567 109.618078 229.589013 109.2026 230.004491 
C 108.787121 230.41997 108.553675 230.983559 108.553675 231.571134 
C 108.553675 232.158709 108.787121 232.722298 109.2026 233.137777 
C 109.618078 233.553255 110.181667 233.786701 110.769242 233.786701 
z
" style="fill:#57d3db;stroke:#57d3db;stroke-width:0.886227;"/>
    <path clip-path="url(#p222ce6ef58)" d="M 241.296397 139.638845 
C 241.883972 139.638845 242.447561 139.405399 242.863039 138.98992 
C 243.278518 138.574442 243.511964 138.010853 243.511964 137.423278 
C 243.511964 136.835703 243.278518 136.272114 242.863039 135.856635 
C 242.447561 135.441157 241.883972 135.207711 241.296397 135.207711 
C 240.708821 135.207711 240.145232 135.441157 239.729754 135.856635 
C 239.314275 136.272114 239.080829 136.835703 239.080829 137.423278 
C 239.080829 138.010853 239.314275 138.574442 239.729754 138.98992 
C 240.145232 139.405399 240.708821 139.638845 241.296397 139.638845 
z
" style="fill:#5f57db;stroke:#5f57db;stroke-width:0.886227;"/>
    <path clip-path="url(#p222ce6ef58)" d="M 154.229505 204.900562 
C 154.817081 204.900562 155.38067 204.667116 155.796148 204.251638 
C 156.211627 203.836159 156.445073 203.27257 156.445073 202.684995 
C 156.445073 202.09742 156.211627 201.533831 155.796148 201.118352 
C 155.38067 200.702874 154.817081 200.469428 154.229505 200.469428 
C 153.64193 200.469428 153.078341 200.702874 152.662863 201.118352 
C 152.247384 201.533831 152.013938 202.09742 152.013938 202.684995 
C 152.013938 203.27257 152.247384 203.836159 152.662863 204.251638 
C 153.078341 204.667116 153.64193 204.900562 154.229505 204.900562 
z
" style="fill:#5f57db;stroke:#5f57db;stroke-width:0.886227;"/>
    <path clip-path="url(#p222ce6ef58)" d="M 94.861342 249.396082 
C 95.448918 249.396082 96.012506 249.162636 96.427985 248.747157 
C 96.843463 248.331679 97.07691 247.76809 97.07691 247.180515 
C 97.07691 246.592939 96.843463 246.02935 96.427985 245.613872 
C 96.012506 245.198393 95.448918 244.964947 94.861342 244.964947 
C 94.273767 244.964947 93.710178 245.198393 93.2947 245.613872 
C 92.879221 246.02935 92.645775 246.592939 92.645775 247.180515 
C 92.645775 247.76809 92.879221 248.331679 93.2947 248.747157 
C 93.710178 249.162636 94.273767 249.396082 94.861342 249.396082 
z
" style="fill:#5f57db;stroke:#5f57db;stroke-width:0.886227;"/>
    <path clip-path="url(#p222ce6ef58)" d="M 242.314417 136.110728 
C 242.901992 136.110728 243.465581 135.877282 243.881059 135.461803 
C 244.296538 135.046325 244.529984 134.482736 244.529984 133.89516 
C 244.529984 133.307585 244.296538 132.743996 243.881059 132.328518 
C 243.465581 131.913039 242.901992 131.679593 242.314417 131.679593 
C 241.726841 131.679593 241.163252 131.913039 240.747774 132.328518 
C 240.332295 132.743996 240.098849 133.307585 240.098849 133.89516 
C 240.098849 134.482736 240.332295 135.046325 240.747774 135.461803 
C 241.163252 135.877282 241.726841 136.110728 242.314417 136.110728 
z
" style="fill:#db57d3;stroke:#db57d3;stroke-width:0.886227;"/>
    <path clip-path="url(#p222ce6ef58)" d="M 142.560713 212.410791 
C 143.148288 212.410791 143.711877 212.177345 144.127356 211.761866 
C 144.542834 211.346388 144.77628 210.782799 144.77628 210.195224 
C 144.77628 209.607648 144.542834 209.04406 144.127356 208.628581 
C 143.711877 208.213103 143.148288 207.979656 142.560713 207.979656 
C 141.973138 207.979656 141.409549 208.213103 140.99407 208.628581 
C 140.578592 209.04406 140.345146 209.607648 140.345146 210.195224 
C 140.345146 210.782799 140.578592 211.346388 140.99407 211.761866 
C 141.409549 212.177345 141.973138 212.410791 142.560713 212.410791 
z
" style="fill:#db57d3;stroke:#db57d3;stroke-width:0.886227;"/>
    <path clip-path="url(#p222ce6ef58)" d="M 105.512115 240.746316 
C 106.09969 240.746316 106.663279 240.51287 107.078757 240.097392 
C 107.494236 239.681913 107.727682 239.118324 107.727682 238.530749 
C 107.727682 237.943174 107.494236 237.379585 107.078757 236.964106 
C 106.663279 236.548628 106.09969 236.315182 105.512115 236.315182 
C 104.924539 236.315182 104.36095 236.548628 103.945472 236.964106 
C 103.529993 237.379585 103.296547 237.943174 103.296547 238.530749 
C 103.296547 239.118324 103.529993 239.681913 103.945472 240.097392 
C 104.36095 240.51287 104.924539 240.746316 105.512115 240.746316 
z
" style="fill:#db57d3;stroke:#db57d3;stroke-width:0.886227;"/>
   </g>
   <g id="line2d_10">
    <path clip-path="url(#p222ce6ef58)" d="M 62.007869 271.8 
L 65.082249 269.604529 
L 68.15663 267.409057 
L 71.23101 265.213586 
L 74.30539 263.018114 
L 77.37977 260.822643 
L 80.45415 258.627171 
L 83.52853 256.4317 
L 86.602911 254.236228 
L 89.677291 252.040757 
L 92.751671 249.845286 
L 95.826051 247.649814 
L 98.900431 245.454343 
L 101.974811 243.258871 
L 105.049192 241.0634 
L 108.123572 238.867928 
L 111.197952 236.672457 
L 114.272332 234.476986 
L 117.346712 232.281514 
L 120.421092 230.086043 
L 123.495473 227.890571 
L 126.569853 225.6951 
L 129.644233 223.499628 
L 132.718613 221.304157 
L 135.792993 219.108685 
L 138.867373 216.913214 
L 141.941754 214.717743 
L 145.016134 212.522271 
L 148.090514 210.3268 
L 151.164894 208.131328 
L 154.239274 205.935857 
L 157.313654 203.740385 
L 160.388035 201.544914 
L 163.462415 199.349442 
L 166.536795 197.153971 
L 169.611175 194.9585 
L 172.685555 192.763028 
L 175.759935 190.567557 
L 178.834316 188.372085 
L 181.908696 186.176614 
L 184.983076 183.981142 
L 188.057456 181.785671 
L 191.131836 179.590199 
L 194.206216 177.394728 
L 197.280597 175.199257 
L 200.354977 173.003785 
L 203.429357 170.808314 
L 206.503737 168.612842 
L 209.578117 166.417371 
L 212.652497 164.221899 
L 215.726878 162.026428 
L 218.801258 159.830957 
L 221.875638 157.635485 
L 224.950018 155.440014 
L 228.024398 153.244542 
L 231.098778 151.049071 
L 234.173159 148.853599 
L 237.247539 146.658128 
L 240.321919 144.462656 
L 243.396299 142.267185 
L 246.470679 140.071714 
L 249.545059 137.876242 
L 252.61944 135.680771 
L 255.69382 133.485299 
L 258.7682 131.289828 
L 261.84258 129.094356 
L 264.91696 126.898885 
L 267.99134 124.703413 
L 271.065721 122.507942 
L 274.140101 120.312471 
L 277.214481 118.116999 
L 280.288861 115.921528 
L 283.363241 113.726056 
L 286.437621 111.530585 
L 289.512002 109.335113 
L 292.586382 107.139642 
L 295.660762 104.94417 
L 298.735142 102.748699 
L 301.809522 100.553228 
L 304.883902 98.357756 
L 307.958283 96.162285 
L 311.032663 93.966813 
L 314.107043 91.771342 
L 317.181423 89.57587 
L 320.255803 87.380399 
L 323.330183 85.184928 
L 326.404564 82.989456 
L 329.478944 80.793985 
L 332.553324 78.598513 
L 335.627704 76.403042 
L 338.702084 74.20757 
L 341.776464 72.012099 
L 344.850845 69.816627 
L 347.925225 67.621156 
L 350.999605 65.425685 
L 354.073985 63.230213 
L 357.148365 61.034742 
L 360.222745 58.83927 
L 363.297126 56.643799 
L 366.371506 54.448327 
" style="fill:none;stroke:#db5f57;stroke-dasharray:3.27904,1.417963;stroke-dashoffset:0;stroke-width:0.886227;"/>
   </g>
   <g id="line2d_11">
    <path clip-path="url(#p222ce6ef58)" d="M 62.007869 271.8 
L 65.082249 269.460024 
L 68.15663 267.120049 
L 71.23101 264.780073 
L 74.30539 262.440098 
L 77.37977 260.100122 
L 80.45415 257.760147 
L 83.52853 255.420171 
L 86.602911 253.080196 
L 89.677291 250.74022 
L 92.751671 248.400245 
L 95.826051 246.060269 
L 98.900431 243.720294 
L 101.974811 241.380318 
L 105.049192 239.040343 
L 108.123572 236.700367 
L 111.197952 234.360392 
L 114.272332 232.020416 
L 117.346712 229.680441 
L 120.421092 227.340465 
L 123.495473 225.00049 
L 126.569853 222.660514 
L 129.644233 220.320539 
L 132.718613 217.980563 
L 135.792993 215.640588 
L 138.867373 213.300612 
L 141.941754 210.960637 
L 145.016134 208.620661 
L 148.090514 206.280686 
L 151.164894 203.94071 
L 154.239274 201.600735 
L 157.313654 199.260759 
L 160.388035 196.920784 
L 163.462415 194.580808 
L 166.536795 192.240833 
L 169.611175 189.900857 
L 172.685555 187.560882 
L 175.759935 185.220906 
L 178.834316 182.880931 
L 181.908696 180.540955 
L 184.983076 178.20098 
L 188.057456 175.861004 
L 191.131836 173.521028 
L 194.206216 171.181053 
L 197.280597 168.841077 
L 200.354977 166.501102 
L 203.429357 164.161126 
L 206.503737 161.821151 
L 209.578117 159.481175 
L 212.652497 157.1412 
L 215.726878 154.801224 
L 218.801258 152.461249 
L 221.875638 150.121273 
L 224.950018 147.781298 
L 228.024398 145.441322 
L 231.098778 143.101347 
L 234.173159 140.761371 
L 237.247539 138.421396 
L 240.321919 136.08142 
L 243.396299 133.741445 
L 246.470679 131.401469 
L 249.545059 129.061494 
L 252.61944 126.721518 
L 255.69382 124.381543 
L 258.7682 122.041567 
L 261.84258 119.701592 
L 264.91696 117.361616 
L 267.99134 115.021641 
L 271.065721 112.681665 
L 274.140101 110.34169 
L 277.214481 108.001714 
L 280.288861 105.661739 
L 283.363241 103.321763 
L 286.437621 100.981788 
L 289.512002 98.641812 
L 292.586382 96.301837 
L 295.660762 93.961861 
L 298.735142 91.621886 
L 301.809522 89.28191 
L 304.883902 86.941935 
L 307.958283 84.601959 
L 311.032663 82.261984 
L 314.107043 79.922008 
L 317.181423 77.582032 
L 320.255803 75.242057 
L 323.330183 72.902081 
L 326.404564 70.562106 
L 329.478944 68.22213 
L 332.553324 65.882155 
L 335.627704 63.542179 
L 338.702084 61.202204 
L 341.776464 58.862228 
L 344.850845 56.522253 
L 347.925225 54.182277 
L 350.999605 51.842302 
L 354.073985 49.502326 
L 357.148365 47.162351 
L 360.222745 44.822375 
L 363.297126 42.4824 
L 366.371506 40.142424 
" style="fill:none;stroke:#dba157;stroke-dasharray:3.27904,1.417963;stroke-dashoffset:0;stroke-width:0.886227;"/>
   </g>
   <g id="line2d_12">
    <path clip-path="url(#p222ce6ef58)" d="M 62.007869 271.8 
L 65.082249 269.388367 
L 68.15663 266.976734 
L 71.23101 264.565101 
L 74.30539 262.153469 
L 77.37977 259.741836 
L 80.45415 257.330203 
L 83.52853 254.91857 
L 86.602911 252.506937 
L 89.677291 250.095304 
L 92.751671 247.683672 
L 95.826051 245.272039 
L 98.900431 242.860406 
L 101.974811 240.448773 
L 105.049192 238.03714 
L 108.123572 235.625507 
L 111.197952 233.213875 
L 114.272332 230.802242 
L 117.346712 228.390609 
L 120.421092 225.978976 
L 123.495473 223.567343 
L 126.569853 221.15571 
L 129.644233 218.744077 
L 132.718613 216.332445 
L 135.792993 213.920812 
L 138.867373 211.509179 
L 141.941754 209.097546 
L 145.016134 206.685913 
L 148.090514 204.27428 
L 151.164894 201.862648 
L 154.239274 199.451015 
L 157.313654 197.039382 
L 160.388035 194.627749 
L 163.462415 192.216116 
L 166.536795 189.804483 
L 169.611175 187.392851 
L 172.685555 184.981218 
L 175.759935 182.569585 
L 178.834316 180.157952 
L 181.908696 177.746319 
L 184.983076 175.334686 
L 188.057456 172.923053 
L 191.131836 170.511421 
L 194.206216 168.099788 
L 197.280597 165.688155 
L 200.354977 163.276522 
L 203.429357 160.864889 
L 206.503737 158.453256 
L 209.578117 156.041624 
L 212.652497 153.629991 
L 215.726878 151.218358 
L 218.801258 148.806725 
L 221.875638 146.395092 
L 224.950018 143.983459 
L 228.024398 141.571827 
L 231.098778 139.160194 
L 234.173159 136.748561 
L 237.247539 134.336928 
L 240.321919 131.925295 
L 243.396299 129.513662 
L 246.470679 127.102029 
L 249.545059 124.690397 
L 252.61944 122.278764 
L 255.69382 119.867131 
L 258.7682 117.455498 
L 261.84258 115.043865 
L 264.91696 112.632232 
L 267.99134 110.2206 
L 271.065721 107.808967 
L 274.140101 105.397334 
L 277.214481 102.985701 
L 280.288861 100.574068 
L 283.363241 98.162435 
L 286.437621 95.750803 
L 289.512002 93.33917 
L 292.586382 90.927537 
L 295.660762 88.515904 
L 298.735142 86.104271 
L 301.809522 83.692638 
L 304.883902 81.281006 
L 307.958283 78.869373 
L 311.032663 76.45774 
L 314.107043 74.046107 
L 317.181423 71.634474 
L 320.255803 69.222841 
L 323.330183 66.811208 
L 326.404564 64.399576 
L 329.478944 61.987943 
L 332.553324 59.57631 
L 335.627704 57.164677 
L 338.702084 54.753044 
L 341.776464 52.341411 
L 344.850845 49.929779 
L 347.925225 47.518146 
L 350.999605 45.106513 
L 354.073985 42.69488 
L 357.148365 40.283247 
L 360.222745 37.871614 
L 363.297126 35.459982 
L 366.371506 33.048349 
" style="fill:none;stroke:#d3db57;stroke-dasharray:3.27904,1.417963;stroke-dashoffset:0;stroke-width:0.886227;"/>
   </g>
   <g id="line2d_13">
    <path clip-path="url(#p222ce6ef58)" d="M 62.007869 271.8 
L 65.082249 269.373934 
L 68.15663 266.947869 
L 71.23101 264.521803 
L 74.30539 262.095737 
L 77.37977 259.669672 
L 80.45415 257.243606 
L 83.52853 254.81754 
L 86.602911 252.391474 
L 89.677291 249.965409 
L 92.751671 247.539343 
L 95.826051 245.113277 
L 98.900431 242.687212 
L 101.974811 240.261146 
L 105.049192 237.83508 
L 108.123572 235.409015 
L 111.197952 232.982949 
L 114.272332 230.556883 
L 117.346712 228.130818 
L 120.421092 225.704752 
L 123.495473 223.278686 
L 126.569853 220.852621 
L 129.644233 218.426555 
L 132.718613 216.000489 
L 135.792993 213.574423 
L 138.867373 211.148358 
L 141.941754 208.722292 
L 145.016134 206.296226 
L 148.090514 203.870161 
L 151.164894 201.444095 
L 154.239274 199.018029 
L 157.313654 196.591964 
L 160.388035 194.165898 
L 163.462415 191.739832 
L 166.536795 189.313767 
L 169.611175 186.887701 
L 172.685555 184.461635 
L 175.759935 182.03557 
L 178.834316 179.609504 
L 181.908696 177.183438 
L 184.983076 174.757372 
L 188.057456 172.331307 
L 191.131836 169.905241 
L 194.206216 167.479175 
L 197.280597 165.05311 
L 200.354977 162.627044 
L 203.429357 160.200978 
L 206.503737 157.774913 
L 209.578117 155.348847 
L 212.652497 152.922781 
L 215.726878 150.496716 
L 218.801258 148.07065 
L 221.875638 145.644584 
L 224.950018 143.218518 
L 228.024398 140.792453 
L 231.098778 138.366387 
L 234.173159 135.940321 
L 237.247539 133.514256 
L 240.321919 131.08819 
L 243.396299 128.662124 
L 246.470679 126.236059 
L 249.545059 123.809993 
L 252.61944 121.383927 
L 255.69382 118.957862 
L 258.7682 116.531796 
L 261.84258 114.10573 
L 264.91696 111.679665 
L 267.99134 109.253599 
L 271.065721 106.827533 
L 274.140101 104.401467 
L 277.214481 101.975402 
L 280.288861 99.549336 
L 283.363241 97.12327 
L 286.437621 94.697205 
L 289.512002 92.271139 
L 292.586382 89.845073 
L 295.660762 87.419008 
L 298.735142 84.992942 
L 301.809522 82.566876 
L 304.883902 80.140811 
L 307.958283 77.714745 
L 311.032663 75.288679 
L 314.107043 72.862613 
L 317.181423 70.436548 
L 320.255803 68.010482 
L 323.330183 65.584416 
L 326.404564 63.158351 
L 329.478944 60.732285 
L 332.553324 58.306219 
L 335.627704 55.880154 
L 338.702084 53.454088 
L 341.776464 51.028022 
L 344.850845 48.601957 
L 347.925225 46.175891 
L 350.999605 43.749825 
L 354.073985 41.32376 
L 357.148365 38.897694 
L 360.222745 36.471628 
L 363.297126 34.045562 
L 366.371506 31.619497 
" style="fill:none;stroke:#91db57;stroke-dasharray:3.27904,1.417963;stroke-dashoffset:0;stroke-width:0.886227;"/>
   </g>
   <g id="line2d_14">
    <path clip-path="url(#p222ce6ef58)" d="M 62.007869 271.8 
L 65.082249 269.371038 
L 68.15663 266.942075 
L 71.23101 264.513113 
L 74.30539 262.084151 
L 77.37977 259.655188 
L 80.45415 257.226226 
L 83.52853 254.797264 
L 86.602911 252.368301 
L 89.677291 249.939339 
L 92.751671 247.510377 
L 95.826051 245.081414 
L 98.900431 242.652452 
L 101.974811 240.223489 
L 105.049192 237.794527 
L 108.123572 235.365565 
L 111.197952 232.936602 
L 114.272332 230.50764 
L 117.346712 228.078678 
L 120.421092 225.649715 
L 123.495473 223.220753 
L 126.569853 220.791791 
L 129.644233 218.362828 
L 132.718613 215.933866 
L 135.792993 213.504904 
L 138.867373 211.075941 
L 141.941754 208.646979 
L 145.016134 206.218017 
L 148.090514 203.789054 
L 151.164894 201.360092 
L 154.239274 198.93113 
L 157.313654 196.502167 
L 160.388035 194.073205 
L 163.462415 191.644243 
L 166.536795 189.21528 
L 169.611175 186.786318 
L 172.685555 184.357355 
L 175.759935 181.928393 
L 178.834316 179.499431 
L 181.908696 177.070468 
L 184.983076 174.641506 
L 188.057456 172.212544 
L 191.131836 169.783581 
L 194.206216 167.354619 
L 197.280597 164.925657 
L 200.354977 162.496694 
L 203.429357 160.067732 
L 206.503737 157.63877 
L 209.578117 155.209807 
L 212.652497 152.780845 
L 215.726878 150.351883 
L 218.801258 147.92292 
L 221.875638 145.493958 
L 224.950018 143.064996 
L 228.024398 140.636033 
L 231.098778 138.207071 
L 234.173159 135.778109 
L 237.247539 133.349146 
L 240.321919 130.920184 
L 243.396299 128.491221 
L 246.470679 126.062259 
L 249.545059 123.633297 
L 252.61944 121.204334 
L 255.69382 118.775372 
L 258.7682 116.34641 
L 261.84258 113.917447 
L 264.91696 111.488485 
L 267.99134 109.059523 
L 271.065721 106.63056 
L 274.140101 104.201598 
L 277.214481 101.772636 
L 280.288861 99.343673 
L 283.363241 96.914711 
L 286.437621 94.485749 
L 289.512002 92.056786 
L 292.586382 89.627824 
L 295.660762 87.198862 
L 298.735142 84.769899 
L 301.809522 82.340937 
L 304.883902 79.911974 
L 307.958283 77.483012 
L 311.032663 75.05405 
L 314.107043 72.625087 
L 317.181423 70.196125 
L 320.255803 67.767163 
L 323.330183 65.3382 
L 326.404564 62.909238 
L 329.478944 60.480276 
L 332.553324 58.051313 
L 335.627704 55.622351 
L 338.702084 53.193389 
L 341.776464 50.764426 
L 344.850845 48.335464 
L 347.925225 45.906502 
L 350.999605 43.477539 
L 354.073985 41.048577 
L 357.148365 38.619615 
L 360.222745 36.190652 
L 363.297126 33.76169 
L 366.371506 31.332728 
" style="fill:none;stroke:#57db5f;stroke-dasharray:3.27904,1.417963;stroke-dashoffset:0;stroke-width:0.886227;"/>
   </g>
   <g id="line2d_15">
    <path clip-path="url(#p222ce6ef58)" d="M 62.007869 271.8 
L 65.082249 269.290335 
L 68.15663 266.78067 
L 71.23101 264.271005 
L 74.30539 261.761339 
L 77.37977 259.251674 
L 80.45415 256.742009 
L 83.52853 254.232344 
L 86.602911 251.722679 
L 89.677291 249.213014 
L 92.751671 246.703349 
L 95.826051 244.193684 
L 98.900431 241.684018 
L 101.974811 239.174353 
L 105.049192 236.664688 
L 108.123572 234.155023 
L 111.197952 231.645358 
L 114.272332 229.135693 
L 117.346712 226.626028 
L 120.421092 224.116363 
L 123.495473 221.606697 
L 126.569853 219.097032 
L 129.644233 216.587367 
L 132.718613 214.077702 
L 135.792993 211.568037 
L 138.867373 209.058372 
L 141.941754 206.548707 
L 145.016134 204.039042 
L 148.090514 201.529376 
L 151.164894 199.019711 
L 154.239274 196.510046 
L 157.313654 194.000381 
L 160.388035 191.490716 
L 163.462415 188.981051 
L 166.536795 186.471386 
L 169.611175 183.96172 
L 172.685555 181.452055 
L 175.759935 178.94239 
L 178.834316 176.432725 
L 181.908696 173.92306 
L 184.983076 171.413395 
L 188.057456 168.90373 
L 191.131836 166.394065 
L 194.206216 163.884399 
L 197.280597 161.374734 
L 200.354977 158.865069 
L 203.429357 156.355404 
L 206.503737 153.845739 
L 209.578117 151.336074 
L 212.652497 148.826409 
L 215.726878 146.316744 
L 218.801258 143.807078 
L 221.875638 141.297413 
L 224.950018 138.787748 
L 228.024398 136.278083 
L 231.098778 133.768418 
L 234.173159 131.258753 
L 237.247539 128.749088 
L 240.321919 126.239423 
L 243.396299 123.729757 
L 246.470679 121.220092 
L 249.545059 118.710427 
L 252.61944 116.200762 
L 255.69382 113.691097 
L 258.7682 111.181432 
L 261.84258 108.671767 
L 264.91696 106.162101 
L 267.99134 103.652436 
L 271.065721 101.142771 
L 274.140101 98.633106 
L 277.214481 96.123441 
L 280.288861 93.613776 
L 283.363241 91.104111 
L 286.437621 88.594446 
L 289.512002 86.08478 
L 292.586382 83.575115 
L 295.660762 81.06545 
L 298.735142 78.555785 
L 301.809522 76.04612 
L 304.883902 73.536455 
L 307.958283 71.02679 
L 311.032663 68.517125 
L 314.107043 66.007459 
L 317.181423 63.497794 
L 320.255803 60.988129 
L 323.330183 58.478464 
L 326.404564 55.968799 
L 329.478944 53.459134 
L 332.553324 50.949469 
L 335.627704 48.439804 
L 338.702084 45.930138 
L 341.776464 43.420473 
L 344.850845 40.910808 
L 347.925225 38.401143 
L 350.999605 35.891478 
L 354.073985 33.381813 
L 357.148365 30.872148 
L 360.222745 28.362482 
L 363.297126 25.852817 
L 366.371506 23.343152 
" style="fill:none;stroke:#57dba1;stroke-dasharray:3.27904,1.417963;stroke-dashoffset:0;stroke-width:0.886227;"/>
   </g>
   <g id="line2d_16">
    <path clip-path="url(#p222ce6ef58)" d="M 62.007869 271.8 
L 65.082249 269.263355 
L 68.15663 266.726711 
L 71.23101 264.190066 
L 74.30539 261.653421 
L 77.37977 259.116776 
L 80.45415 256.580132 
L 83.52853 254.043487 
L 86.602911 251.506842 
L 89.677291 248.970198 
L 92.751671 246.433553 
L 95.826051 243.896908 
L 98.900431 241.360263 
L 101.974811 238.823619 
L 105.049192 236.286974 
L 108.123572 233.750329 
L 111.197952 231.213685 
L 114.272332 228.67704 
L 117.346712 226.140395 
L 120.421092 223.60375 
L 123.495473 221.067106 
L 126.569853 218.530461 
L 129.644233 215.993816 
L 132.718613 213.457172 
L 135.792993 210.920527 
L 138.867373 208.383882 
L 141.941754 205.847237 
L 145.016134 203.310593 
L 148.090514 200.773948 
L 151.164894 198.237303 
L 154.239274 195.700659 
L 157.313654 193.164014 
L 160.388035 190.627369 
L 163.462415 188.090724 
L 166.536795 185.55408 
L 169.611175 183.017435 
L 172.685555 180.48079 
L 175.759935 177.944146 
L 178.834316 175.407501 
L 181.908696 172.870856 
L 184.983076 170.334211 
L 188.057456 167.797567 
L 191.131836 165.260922 
L 194.206216 162.724277 
L 197.280597 160.187633 
L 200.354977 157.650988 
L 203.429357 155.114343 
L 206.503737 152.577698 
L 209.578117 150.041054 
L 212.652497 147.504409 
L 215.726878 144.967764 
L 218.801258 142.43112 
L 221.875638 139.894475 
L 224.950018 137.35783 
L 228.024398 134.821185 
L 231.098778 132.284541 
L 234.173159 129.747896 
L 237.247539 127.211251 
L 240.321919 124.674607 
L 243.396299 122.137962 
L 246.470679 119.601317 
L 249.545059 117.064672 
L 252.61944 114.528028 
L 255.69382 111.991383 
L 258.7682 109.454738 
L 261.84258 106.918094 
L 264.91696 104.381449 
L 267.99134 101.844804 
L 271.065721 99.308159 
L 274.140101 96.771515 
L 277.214481 94.23487 
L 280.288861 91.698225 
L 283.363241 89.161581 
L 286.437621 86.624936 
L 289.512002 84.088291 
L 292.586382 81.551646 
L 295.660762 79.015002 
L 298.735142 76.478357 
L 301.809522 73.941712 
L 304.883902 71.405068 
L 307.958283 68.868423 
L 311.032663 66.331778 
L 314.107043 63.795133 
L 317.181423 61.258489 
L 320.255803 58.721844 
L 323.330183 56.185199 
L 326.404564 53.648555 
L 329.478944 51.11191 
L 332.553324 48.575265 
L 335.627704 46.03862 
L 338.702084 43.501976 
L 341.776464 40.965331 
L 344.850845 38.428686 
L 347.925225 35.892042 
L 350.999605 33.355397 
L 354.073985 30.818752 
L 357.148365 28.282107 
L 360.222745 25.745463 
L 363.297126 23.208818 
L 366.371506 20.672173 
" style="fill:none;stroke:#57d3db;stroke-dasharray:3.27904,1.417963;stroke-dashoffset:0;stroke-width:0.886227;"/>
   </g>
   <g id="line2d_17">
    <path clip-path="url(#p222ce6ef58)" d="M 62.007869 271.8 
L 65.082249 269.254545 
L 68.15663 266.709091 
L 71.23101 264.163636 
L 74.30539 261.618182 
L 77.37977 259.072727 
L 80.45415 256.527273 
L 83.52853 253.981818 
L 86.602911 251.436364 
L 89.677291 248.890909 
L 92.751671 246.345455 
L 95.826051 243.8 
L 98.900431 241.254545 
L 101.974811 238.709091 
L 105.049192 236.163636 
L 108.123572 233.618182 
L 111.197952 231.072727 
L 114.272332 228.527273 
L 117.346712 225.981818 
L 120.421092 223.436364 
L 123.495473 220.890909 
L 126.569853 218.345455 
L 129.644233 215.8 
L 132.718613 213.254545 
L 135.792993 210.709091 
L 138.867373 208.163636 
L 141.941754 205.618182 
L 145.016134 203.072727 
L 148.090514 200.527273 
L 151.164894 197.981818 
L 154.239274 195.436364 
L 157.313654 192.890909 
L 160.388035 190.345455 
L 163.462415 187.8 
L 166.536795 185.254545 
L 169.611175 182.709091 
L 172.685555 180.163636 
L 175.759935 177.618182 
L 178.834316 175.072727 
L 181.908696 172.527273 
L 184.983076 169.981818 
L 188.057456 167.436364 
L 191.131836 164.890909 
L 194.206216 162.345455 
L 197.280597 159.8 
L 200.354977 157.254545 
L 203.429357 154.709091 
L 206.503737 152.163636 
L 209.578117 149.618182 
L 212.652497 147.072727 
L 215.726878 144.527273 
L 218.801258 141.981818 
L 221.875638 139.436364 
L 224.950018 136.890909 
L 228.024398 134.345455 
L 231.098778 131.8 
L 234.173159 129.254545 
L 237.247539 126.709091 
L 240.321919 124.163636 
L 243.396299 121.618182 
L 246.470679 119.072727 
L 249.545059 116.527273 
L 252.61944 113.981818 
L 255.69382 111.436364 
L 258.7682 108.890909 
L 261.84258 106.345455 
L 264.91696 103.8 
L 267.99134 101.254545 
L 271.065721 98.709091 
L 274.140101 96.163636 
L 277.214481 93.618182 
L 280.288861 91.072727 
L 283.363241 88.527273 
L 286.437621 85.981818 
L 289.512002 83.436364 
L 292.586382 80.890909 
L 295.660762 78.345455 
L 298.735142 75.8 
L 301.809522 73.254545 
L 304.883902 70.709091 
L 307.958283 68.163636 
L 311.032663 65.618182 
L 314.107043 63.072727 
L 317.181423 60.527273 
L 320.255803 57.981818 
L 323.330183 55.436364 
L 326.404564 52.890909 
L 329.478944 50.345455 
L 332.553324 47.8 
L 335.627704 45.254545 
L 338.702084 42.709091 
L 341.776464 40.163636 
L 344.850845 37.618182 
L 347.925225 35.072727 
L 350.999605 32.527273 
L 354.073985 29.981818 
L 357.148365 27.436364 
L 360.222745 24.890909 
L 363.297126 22.345455 
L 366.371506 19.8 
" style="fill:none;stroke:#5791db;stroke-dasharray:3.27904,1.417963;stroke-dashoffset:0;stroke-width:0.886227;"/>
   </g>
   <g id="line2d_18">
    <path clip-path="url(#p222ce6ef58)" d="M 62.007869 271.8 
L 65.082249 269.495797 
L 68.15663 267.191595 
L 71.23101 264.887392 
L 74.30539 262.583189 
L 77.37977 260.278987 
L 80.45415 257.974784 
L 83.52853 255.670581 
L 86.602911 253.366379 
L 89.677291 251.062176 
L 92.751671 248.757973 
L 95.826051 246.453771 
L 98.900431 244.149568 
L 101.974811 241.845365 
L 105.049192 239.541163 
L 108.123572 237.23696 
L 111.197952 234.932757 
L 114.272332 232.628555 
L 117.346712 230.324352 
L 120.421092 228.020149 
L 123.495473 225.715947 
L 126.569853 223.411744 
L 129.644233 221.107541 
L 132.718613 218.803338 
L 135.792993 216.499136 
L 138.867373 214.194933 
L 141.941754 211.89073 
L 145.016134 209.586528 
L 148.090514 207.282325 
L 151.164894 204.978122 
L 154.239274 202.67392 
L 157.313654 200.369717 
L 160.388035 198.065514 
L 163.462415 195.761312 
L 166.536795 193.457109 
L 169.611175 191.152906 
L 172.685555 188.848704 
L 175.759935 186.544501 
L 178.834316 184.240298 
L 181.908696 181.936096 
L 184.983076 179.631893 
L 188.057456 177.32769 
L 191.131836 175.023488 
L 194.206216 172.719285 
L 197.280597 170.415082 
L 200.354977 168.11088 
L 203.429357 165.806677 
L 206.503737 163.502474 
L 209.578117 161.198272 
L 212.652497 158.894069 
L 215.726878 156.589866 
L 218.801258 154.285664 
L 221.875638 151.981461 
L 224.950018 149.677258 
L 228.024398 147.373056 
L 231.098778 145.068853 
L 234.173159 142.76465 
L 237.247539 140.460448 
L 240.321919 138.156245 
L 243.396299 135.852042 
L 246.470679 133.54784 
L 249.545059 131.243637 
L 252.61944 128.939434 
L 255.69382 126.635232 
L 258.7682 124.331029 
L 261.84258 122.026826 
L 264.91696 119.722624 
L 267.99134 117.418421 
L 271.065721 115.114218 
L 274.140101 112.810015 
L 277.214481 110.505813 
L 280.288861 108.20161 
L 283.363241 105.897407 
L 286.437621 103.593205 
L 289.512002 101.289002 
L 292.586382 98.984799 
L 295.660762 96.680597 
L 298.735142 94.376394 
L 301.809522 92.072191 
L 304.883902 89.767989 
L 307.958283 87.463786 
L 311.032663 85.159583 
L 314.107043 82.855381 
L 317.181423 80.551178 
L 320.255803 78.246975 
L 323.330183 75.942773 
L 326.404564 73.63857 
L 329.478944 71.334367 
L 332.553324 69.030165 
L 335.627704 66.725962 
L 338.702084 64.421759 
L 341.776464 62.117557 
L 344.850845 59.813354 
L 347.925225 57.509151 
L 350.999605 55.204949 
L 354.073985 52.900746 
L 357.148365 50.596543 
L 360.222745 48.292341 
L 363.297126 45.988138 
L 366.371506 43.683935 
" style="fill:none;stroke:#5f57db;stroke-dasharray:3.27904,1.417963;stroke-dashoffset:0;stroke-width:0.886227;"/>
   </g>
   <g id="line2d_19">
    <path clip-path="url(#p222ce6ef58)" d="M 62.007869 271.8 
L 65.082249 269.406661 
L 68.15663 267.013321 
L 71.23101 264.619982 
L 74.30539 262.226643 
L 77.37977 259.833303 
L 80.45415 257.439964 
L 83.52853 255.046625 
L 86.602911 252.653285 
L 89.677291 250.259946 
L 92.751671 247.866607 
L 95.826051 245.473267 
L 98.900431 243.079928 
L 101.974811 240.686589 
L 105.049192 238.293249 
L 108.123572 235.89991 
L 111.197952 233.506571 
L 114.272332 231.113231 
L 117.346712 228.719892 
L 120.421092 226.326553 
L 123.495473 223.933213 
L 126.569853 221.539874 
L 129.644233 219.146535 
L 132.718613 216.753195 
L 135.792993 214.359856 
L 138.867373 211.966517 
L 141.941754 209.573177 
L 145.016134 207.179838 
L 148.090514 204.786499 
L 151.164894 202.393159 
L 154.239274 199.99982 
L 157.313654 197.606481 
L 160.388035 195.213141 
L 163.462415 192.819802 
L 166.536795 190.426463 
L 169.611175 188.033123 
L 172.685555 185.639784 
L 175.759935 183.246445 
L 178.834316 180.853105 
L 181.908696 178.459766 
L 184.983076 176.066427 
L 188.057456 173.673087 
L 191.131836 171.279748 
L 194.206216 168.886409 
L 197.280597 166.493069 
L 200.354977 164.09973 
L 203.429357 161.706391 
L 206.503737 159.313051 
L 209.578117 156.919712 
L 212.652497 154.526373 
L 215.726878 152.133033 
L 218.801258 149.739694 
L 221.875638 147.346355 
L 224.950018 144.953015 
L 228.024398 142.559676 
L 231.098778 140.166337 
L 234.173159 137.772997 
L 237.247539 135.379658 
L 240.321919 132.986319 
L 243.396299 130.592979 
L 246.470679 128.19964 
L 249.545059 125.806301 
L 252.61944 123.412961 
L 255.69382 121.019622 
L 258.7682 118.626283 
L 261.84258 116.232943 
L 264.91696 113.839604 
L 267.99134 111.446265 
L 271.065721 109.052925 
L 274.140101 106.659586 
L 277.214481 104.266247 
L 280.288861 101.872907 
L 283.363241 99.479568 
L 286.437621 97.086229 
L 289.512002 94.692889 
L 292.586382 92.29955 
L 295.660762 89.906211 
L 298.735142 87.512871 
L 301.809522 85.119532 
L 304.883902 82.726193 
L 307.958283 80.332853 
L 311.032663 77.939514 
L 314.107043 75.546175 
L 317.181423 73.152835 
L 320.255803 70.759496 
L 323.330183 68.366157 
L 326.404564 65.972817 
L 329.478944 63.579478 
L 332.553324 61.186139 
L 335.627704 58.792799 
L 338.702084 56.39946 
L 341.776464 54.006121 
L 344.850845 51.612781 
L 347.925225 49.219442 
L 350.999605 46.826103 
L 354.073985 44.432763 
L 357.148365 42.039424 
L 360.222745 39.646085 
L 363.297126 37.252745 
L 366.371506 34.859406 
" style="fill:none;stroke:#a157db;stroke-dasharray:3.27904,1.417963;stroke-dashoffset:0;stroke-width:0.886227;"/>
   </g>
   <g id="line2d_20">
    <path clip-path="url(#p222ce6ef58)" d="M 62.007869 271.8 
L 65.082249 269.448649 
L 68.15663 267.097298 
L 71.23101 264.745947 
L 74.30539 262.394596 
L 77.37977 260.043244 
L 80.45415 257.691893 
L 83.52853 255.340542 
L 86.602911 252.989191 
L 89.677291 250.63784 
L 92.751671 248.286489 
L 95.826051 245.935138 
L 98.900431 243.583787 
L 101.974811 241.232436 
L 105.049192 238.881084 
L 108.123572 236.529733 
L 111.197952 234.178382 
L 114.272332 231.827031 
L 117.346712 229.47568 
L 120.421092 227.124329 
L 123.495473 224.772978 
L 126.569853 222.421627 
L 129.644233 220.070276 
L 132.718613 217.718924 
L 135.792993 215.367573 
L 138.867373 213.016222 
L 141.941754 210.664871 
L 145.016134 208.31352 
L 148.090514 205.962169 
L 151.164894 203.610818 
L 154.239274 201.259467 
L 157.313654 198.908116 
L 160.388035 196.556764 
L 163.462415 194.205413 
L 166.536795 191.854062 
L 169.611175 189.502711 
L 172.685555 187.15136 
L 175.759935 184.800009 
L 178.834316 182.448658 
L 181.908696 180.097307 
L 184.983076 177.745955 
L 188.057456 175.394604 
L 191.131836 173.043253 
L 194.206216 170.691902 
L 197.280597 168.340551 
L 200.354977 165.9892 
L 203.429357 163.637849 
L 206.503737 161.286498 
L 209.578117 158.935147 
L 212.652497 156.583795 
L 215.726878 154.232444 
L 218.801258 151.881093 
L 221.875638 149.529742 
L 224.950018 147.178391 
L 228.024398 144.82704 
L 231.098778 142.475689 
L 234.173159 140.124338 
L 237.247539 137.772987 
L 240.321919 135.421635 
L 243.396299 133.070284 
L 246.470679 130.718933 
L 249.545059 128.367582 
L 252.61944 126.016231 
L 255.69382 123.66488 
L 258.7682 121.313529 
L 261.84258 118.962178 
L 264.91696 116.610827 
L 267.99134 114.259475 
L 271.065721 111.908124 
L 274.140101 109.556773 
L 277.214481 107.205422 
L 280.288861 104.854071 
L 283.363241 102.50272 
L 286.437621 100.151369 
L 289.512002 97.800018 
L 292.586382 95.448667 
L 295.660762 93.097315 
L 298.735142 90.745964 
L 301.809522 88.394613 
L 304.883902 86.043262 
L 307.958283 83.691911 
L 311.032663 81.34056 
L 314.107043 78.989209 
L 317.181423 76.637858 
L 320.255803 74.286507 
L 323.330183 71.935155 
L 326.404564 69.583804 
L 329.478944 67.232453 
L 332.553324 64.881102 
L 335.627704 62.529751 
L 338.702084 60.1784 
L 341.776464 57.827049 
L 344.850845 55.475698 
L 347.925225 53.124347 
L 350.999605 50.772995 
L 354.073985 48.421644 
L 357.148365 46.070293 
L 360.222745 43.718942 
L 363.297126 41.367591 
L 366.371506 39.01624 
" style="fill:none;stroke:#db57d3;stroke-dasharray:3.27904,1.417963;stroke-dashoffset:0;stroke-width:0.886227;"/>
   </g>
   <g id="line2d_21">
    <path clip-path="url(#p222ce6ef58)" d="M 62.007869 271.8 
L 65.082249 269.477618 
L 68.15663 267.155235 
L 71.23101 264.832853 
L 74.30539 262.51047 
L 77.37977 260.188088 
L 80.45415 257.865706 
L 83.52853 255.543323 
L 86.602911 253.220941 
L 89.677291 250.898558 
L 92.751671 248.576176 
L 95.826051 246.253794 
L 98.900431 243.931411 
L 101.974811 241.609029 
L 105.049192 239.286646 
L 108.123572 236.964264 
L 111.197952 234.641882 
L 114.272332 232.319499 
L 117.346712 229.997117 
L 120.421092 227.674734 
L 123.495473 225.352352 
L 126.569853 223.02997 
L 129.644233 220.707587 
L 132.718613 218.385205 
L 135.792993 216.062822 
L 138.867373 213.74044 
L 141.941754 211.418058 
L 145.016134 209.095675 
L 148.090514 206.773293 
L 151.164894 204.45091 
L 154.239274 202.128528 
L 157.313654 199.806146 
L 160.388035 197.483763 
L 163.462415 195.161381 
L 166.536795 192.838998 
L 169.611175 190.516616 
L 172.685555 188.194234 
L 175.759935 185.871851 
L 178.834316 183.549469 
L 181.908696 181.227086 
L 184.983076 178.904704 
L 188.057456 176.582322 
L 191.131836 174.259939 
L 194.206216 171.937557 
L 197.280597 169.615174 
L 200.354977 167.292792 
L 203.429357 164.97041 
L 206.503737 162.648027 
L 209.578117 160.325645 
L 212.652497 158.003262 
L 215.726878 155.68088 
L 218.801258 153.358498 
L 221.875638 151.036115 
L 224.950018 148.713733 
L 228.024398 146.39135 
L 231.098778 144.068968 
L 234.173159 141.746586 
L 237.247539 139.424203 
L 240.321919 137.101821 
L 243.396299 134.779438 
L 246.470679 132.457056 
L 249.545059 130.134674 
L 252.61944 127.812291 
L 255.69382 125.489909 
L 258.7682 123.167526 
L 261.84258 120.845144 
L 264.91696 118.522762 
L 267.99134 116.200379 
L 271.065721 113.877997 
L 274.140101 111.555614 
L 277.214481 109.233232 
L 280.288861 106.91085 
L 283.363241 104.588467 
L 286.437621 102.266085 
L 289.512002 99.943702 
L 292.586382 97.62132 
L 295.660762 95.298938 
L 298.735142 92.976555 
L 301.809522 90.654173 
L 304.883902 88.33179 
L 307.958283 86.009408 
L 311.032663 83.687026 
L 314.107043 81.364643 
L 317.181423 79.042261 
L 320.255803 76.719878 
L 323.330183 74.397496 
L 326.404564 72.075114 
L 329.478944 69.752731 
L 332.553324 67.430349 
L 335.627704 65.107966 
L 338.702084 62.785584 
L 341.776464 60.463202 
L 344.850845 58.140819 
L 347.925225 55.818437 
L 350.999605 53.496054 
L 354.073985 51.173672 
L 357.148365 48.85129 
L 360.222745 46.528907 
L 363.297126 44.206525 
L 366.371506 41.884142 
" style="fill:none;stroke:#db5791;stroke-dasharray:3.27904,1.417963;stroke-dashoffset:0;stroke-width:0.886227;"/>
   </g>
   <g id="patch_3">
    <path d="M 46.789688 284.4 
L 46.789688 7.2 
" style="fill:none;stroke:#000000;stroke-linecap:square;stroke-linejoin:miter;"/>
   </g>
   <g id="patch_4">
    <path d="M 46.789688 284.4 
L 381.589688 284.4 
" style="fill:none;stroke:#000000;stroke-linecap:square;stroke-linejoin:miter;"/>
   </g>
  </g>
 </g>
 <defs>
  <clipPath id="p222ce6ef58">
   <rect height="277.2" width="334.8" x="46.789688" y="7.2"/>
  </clipPath>
 </defs>
</svg>
