<?xml version="1.0" encoding="utf-8" standalone="no"?>
<!DOCTYPE svg PUBLIC "-//W3C//DTD SVG 1.1//EN"
  "http://www.w3.org/Graphics/SVG/1.1/DTD/svg11.dtd">
<!-- Created with matplotlib (https://matplotlib.org/) -->
<svg height="320.112687pt" version="1.1" viewBox="0 0 388.789688 320.112687" width="388.789688pt" xmlns="http://www.w3.org/2000/svg" xmlns:xlink="http://www.w3.org/1999/xlink">
 <defs>
  <style type="text/css">
*{stroke-linecap:butt;stroke-linejoin:round;}
  </style>
 </defs>
 <g id="figure_1">
  <g id="patch_1">
   <path d="M -0 320.112687 
L 388.789688 320.112687 
L 388.789688 0 
L -0 0 
z
" style="fill:#ffffff;stroke:#ffffff;stroke-linejoin:miter;"/>
  </g>
  <g id="axes_1">
   <g id="patch_2">
    <path d="M 46.789688 284.4 
L 381.589688 284.4 
L 381.589688 7.2 
L 46.789688 7.2 
z
" style="fill:#ffffff;"/>
   </g>
   <g id="matplotlib.axis_1">
    <g id="xtick_1">
     <g id="line2d_1">
      <path d="M 62.007869 284.4 
" style="fill:none;stroke:#333333;stroke-width:1.5;"/>
      <defs>
       <path d="M 0 0 
L 0 2.75 
" id="m0993684706" style="stroke:#333333;"/>
      </defs>
      <g>
       <use style="fill:#333333;stroke:#333333;" x="62.007869" xlink:href="#m0993684706" y="284.4"/>
      </g>
     </g>
     <g id="text_1">
      <!-- 0 -->
      <defs>
       <path d="M 31.78125 66.40625 
Q 24.171875 66.40625 20.328125 58.90625 
Q 16.5 51.421875 16.5 36.375 
Q 16.5 21.390625 20.328125 13.890625 
Q 24.171875 6.390625 31.78125 6.390625 
Q 39.453125 6.390625 43.28125 13.890625 
Q 47.125 21.390625 47.125 36.375 
Q 47.125 51.421875 43.28125 58.90625 
Q 39.453125 66.40625 31.78125 66.40625 
z
M 31.78125 74.21875 
Q 44.046875 74.21875 50.515625 64.515625 
Q 56.984375 54.828125 56.984375 36.375 
Q 56.984375 17.96875 50.515625 8.265625 
Q 44.046875 -1.421875 31.78125 -1.421875 
Q 19.53125 -1.421875 13.0625 8.265625 
Q 6.59375 17.96875 6.59375 36.375 
Q 6.59375 54.828125 13.0625 64.515625 
Q 19.53125 74.21875 31.78125 74.21875 
z
" id="DejaVuSans-48"/>
      </defs>
      <g style="fill:#4d4d4d;" transform="translate(59.208369 296.036625)scale(0.088 -0.088)">
       <use xlink:href="#DejaVuSans-48"/>
      </g>
     </g>
    </g>
    <g id="xtick_2">
     <g id="line2d_2">
      <path d="M 138.098778 284.4 
" style="fill:none;stroke:#333333;stroke-width:1.5;"/>
      <g>
       <use style="fill:#333333;stroke:#333333;" x="138.098778" xlink:href="#m0993684706" y="284.4"/>
      </g>
     </g>
     <g id="text_2">
      <!-- 0.25 -->
      <defs>
       <path d="M 10.6875 12.40625 
L 21 12.40625 
L 21 0 
L 10.6875 0 
z
" id="DejaVuSans-46"/>
       <path d="M 19.1875 8.296875 
L 53.609375 8.296875 
L 53.609375 0 
L 7.328125 0 
L 7.328125 8.296875 
Q 12.9375 14.109375 22.625 23.890625 
Q 32.328125 33.6875 34.8125 36.53125 
Q 39.546875 41.84375 41.421875 45.53125 
Q 43.3125 49.21875 43.3125 52.78125 
Q 43.3125 58.59375 39.234375 62.25 
Q 35.15625 65.921875 28.609375 65.921875 
Q 23.96875 65.921875 18.8125 64.3125 
Q 13.671875 62.703125 7.8125 59.421875 
L 7.8125 69.390625 
Q 13.765625 71.78125 18.9375 73 
Q 24.125 74.21875 28.421875 74.21875 
Q 39.75 74.21875 46.484375 68.546875 
Q 53.21875 62.890625 53.21875 53.421875 
Q 53.21875 48.921875 51.53125 44.890625 
Q 49.859375 40.875 45.40625 35.40625 
Q 44.1875 33.984375 37.640625 27.21875 
Q 31.109375 20.453125 19.1875 8.296875 
z
" id="DejaVuSans-50"/>
       <path d="M 10.796875 72.90625 
L 49.515625 72.90625 
L 49.515625 64.59375 
L 19.828125 64.59375 
L 19.828125 46.734375 
Q 21.96875 47.46875 24.109375 47.828125 
Q 26.265625 48.1875 28.421875 48.1875 
Q 40.625 48.1875 47.75 41.5 
Q 54.890625 34.8125 54.890625 23.390625 
Q 54.890625 11.625 47.5625 5.09375 
Q 40.234375 -1.421875 26.90625 -1.421875 
Q 22.3125 -1.421875 17.546875 -0.640625 
Q 12.796875 0.140625 7.71875 1.703125 
L 7.71875 11.625 
Q 12.109375 9.234375 16.796875 8.0625 
Q 21.484375 6.890625 26.703125 6.890625 
Q 35.15625 6.890625 40.078125 11.328125 
Q 45.015625 15.765625 45.015625 23.390625 
Q 45.015625 31 40.078125 35.4375 
Q 35.15625 39.890625 26.703125 39.890625 
Q 22.75 39.890625 18.8125 39.015625 
Q 14.890625 38.140625 10.796875 36.28125 
z
" id="DejaVuSans-53"/>
      </defs>
      <g style="fill:#4d4d4d;" transform="translate(128.301903 296.036625)scale(0.088 -0.088)">
       <use xlink:href="#DejaVuSans-48"/>
       <use x="63.623047" xlink:href="#DejaVuSans-46"/>
       <use x="95.410156" xlink:href="#DejaVuSans-50"/>
       <use x="159.033203" xlink:href="#DejaVuSans-53"/>
      </g>
     </g>
    </g>
    <g id="xtick_3">
     <g id="line2d_3">
      <path d="M 214.189688 284.4 
" style="fill:none;stroke:#333333;stroke-width:1.5;"/>
      <g>
       <use style="fill:#333333;stroke:#333333;" x="214.189688" xlink:href="#m0993684706" y="284.4"/>
      </g>
     </g>
     <g id="text_3">
      <!-- 0.50 -->
      <g style="fill:#4d4d4d;" transform="translate(204.392813 296.036625)scale(0.088 -0.088)">
       <use xlink:href="#DejaVuSans-48"/>
       <use x="63.623047" xlink:href="#DejaVuSans-46"/>
       <use x="95.410156" xlink:href="#DejaVuSans-53"/>
       <use x="159.033203" xlink:href="#DejaVuSans-48"/>
      </g>
     </g>
    </g>
    <g id="xtick_4">
     <g id="line2d_4">
      <path d="M 290.280597 284.4 
" style="fill:none;stroke:#333333;stroke-width:1.5;"/>
      <g>
       <use style="fill:#333333;stroke:#333333;" x="290.280597" xlink:href="#m0993684706" y="284.4"/>
      </g>
     </g>
     <g id="text_4">
      <!-- 0.75 -->
      <defs>
       <path d="M 8.203125 72.90625 
L 55.078125 72.90625 
L 55.078125 68.703125 
L 28.609375 0 
L 18.3125 0 
L 43.21875 64.59375 
L 8.203125 64.59375 
z
" id="DejaVuSans-55"/>
      </defs>
      <g style="fill:#4d4d4d;" transform="translate(280.483722 296.036625)scale(0.088 -0.088)">
       <use xlink:href="#DejaVuSans-48"/>
       <use x="63.623047" xlink:href="#DejaVuSans-46"/>
       <use x="95.410156" xlink:href="#DejaVuSans-55"/>
       <use x="159.033203" xlink:href="#DejaVuSans-53"/>
      </g>
     </g>
    </g>
    <g id="xtick_5">
     <g id="line2d_5">
      <path d="M 366.371506 284.4 
" style="fill:none;stroke:#333333;stroke-width:1.5;"/>
      <g>
       <use style="fill:#333333;stroke:#333333;" x="366.371506" xlink:href="#m0993684706" y="284.4"/>
      </g>
     </g>
     <g id="text_5">
      <!-- 1 -->
      <defs>
       <path d="M 12.40625 8.296875 
L 28.515625 8.296875 
L 28.515625 63.921875 
L 10.984375 60.40625 
L 10.984375 69.390625 
L 28.421875 72.90625 
L 38.28125 72.90625 
L 38.28125 8.296875 
L 54.390625 8.296875 
L 54.390625 0 
L 12.40625 0 
z
" id="DejaVuSans-49"/>
      </defs>
      <g style="fill:#4d4d4d;" transform="translate(363.572006 296.036625)scale(0.088 -0.088)">
       <use xlink:href="#DejaVuSans-49"/>
      </g>
     </g>
    </g>
    <g id="xtick_6"/>
    <g id="xtick_7"/>
    <g id="xtick_8"/>
    <g id="xtick_9"/>
    <g id="text_6">
     <!-- abundance [%] -->
     <defs>
      <path d="M 34.28125 27.484375 
Q 23.390625 27.484375 19.1875 25 
Q 14.984375 22.515625 14.984375 16.5 
Q 14.984375 11.71875 18.140625 8.90625 
Q 21.296875 6.109375 26.703125 6.109375 
Q 34.1875 6.109375 38.703125 11.40625 
Q 43.21875 16.703125 43.21875 25.484375 
L 43.21875 27.484375 
z
M 52.203125 31.203125 
L 52.203125 0 
L 43.21875 0 
L 43.21875 8.296875 
Q 40.140625 3.328125 35.546875 0.953125 
Q 30.953125 -1.421875 24.3125 -1.421875 
Q 15.921875 -1.421875 10.953125 3.296875 
Q 6 8.015625 6 15.921875 
Q 6 25.140625 12.171875 29.828125 
Q 18.359375 34.515625 30.609375 34.515625 
L 43.21875 34.515625 
L 43.21875 35.40625 
Q 43.21875 41.609375 39.140625 45 
Q 35.0625 48.390625 27.6875 48.390625 
Q 23 48.390625 18.546875 47.265625 
Q 14.109375 46.140625 10.015625 43.890625 
L 10.015625 52.203125 
Q 14.9375 54.109375 19.578125 55.046875 
Q 24.21875 56 28.609375 56 
Q 40.484375 56 46.34375 49.84375 
Q 52.203125 43.703125 52.203125 31.203125 
z
" id="DejaVuSans-97"/>
      <path d="M 48.6875 27.296875 
Q 48.6875 37.203125 44.609375 42.84375 
Q 40.53125 48.484375 33.40625 48.484375 
Q 26.265625 48.484375 22.1875 42.84375 
Q 18.109375 37.203125 18.109375 27.296875 
Q 18.109375 17.390625 22.1875 11.75 
Q 26.265625 6.109375 33.40625 6.109375 
Q 40.53125 6.109375 44.609375 11.75 
Q 48.6875 17.390625 48.6875 27.296875 
z
M 18.109375 46.390625 
Q 20.953125 51.265625 25.265625 53.625 
Q 29.59375 56 35.59375 56 
Q 45.5625 56 51.78125 48.09375 
Q 58.015625 40.1875 58.015625 27.296875 
Q 58.015625 14.40625 51.78125 6.484375 
Q 45.5625 -1.421875 35.59375 -1.421875 
Q 29.59375 -1.421875 25.265625 0.953125 
Q 20.953125 3.328125 18.109375 8.203125 
L 18.109375 0 
L 9.078125 0 
L 9.078125 75.984375 
L 18.109375 75.984375 
z
" id="DejaVuSans-98"/>
      <path d="M 8.5 21.578125 
L 8.5 54.6875 
L 17.484375 54.6875 
L 17.484375 21.921875 
Q 17.484375 14.15625 20.5 10.265625 
Q 23.53125 6.390625 29.59375 6.390625 
Q 36.859375 6.390625 41.078125 11.03125 
Q 45.3125 15.671875 45.3125 23.6875 
L 45.3125 54.6875 
L 54.296875 54.6875 
L 54.296875 0 
L 45.3125 0 
L 45.3125 8.40625 
Q 42.046875 3.421875 37.71875 1 
Q 33.40625 -1.421875 27.6875 -1.421875 
Q 18.265625 -1.421875 13.375 4.4375 
Q 8.5 10.296875 8.5 21.578125 
z
M 31.109375 56 
z
" id="DejaVuSans-117"/>
      <path d="M 54.890625 33.015625 
L 54.890625 0 
L 45.90625 0 
L 45.90625 32.71875 
Q 45.90625 40.484375 42.875 44.328125 
Q 39.84375 48.1875 33.796875 48.1875 
Q 26.515625 48.1875 22.3125 43.546875 
Q 18.109375 38.921875 18.109375 30.90625 
L 18.109375 0 
L 9.078125 0 
L 9.078125 54.6875 
L 18.109375 54.6875 
L 18.109375 46.1875 
Q 21.34375 51.125 25.703125 53.5625 
Q 30.078125 56 35.796875 56 
Q 45.21875 56 50.046875 50.171875 
Q 54.890625 44.34375 54.890625 33.015625 
z
" id="DejaVuSans-110"/>
      <path d="M 45.40625 46.390625 
L 45.40625 75.984375 
L 54.390625 75.984375 
L 54.390625 0 
L 45.40625 0 
L 45.40625 8.203125 
Q 42.578125 3.328125 38.25 0.953125 
Q 33.9375 -1.421875 27.875 -1.421875 
Q 17.96875 -1.421875 11.734375 6.484375 
Q 5.515625 14.40625 5.515625 27.296875 
Q 5.515625 40.1875 11.734375 48.09375 
Q 17.96875 56 27.875 56 
Q 33.9375 56 38.25 53.625 
Q 42.578125 51.265625 45.40625 46.390625 
z
M 14.796875 27.296875 
Q 14.796875 17.390625 18.875 11.75 
Q 22.953125 6.109375 30.078125 6.109375 
Q 37.203125 6.109375 41.296875 11.75 
Q 45.40625 17.390625 45.40625 27.296875 
Q 45.40625 37.203125 41.296875 42.84375 
Q 37.203125 48.484375 30.078125 48.484375 
Q 22.953125 48.484375 18.875 42.84375 
Q 14.796875 37.203125 14.796875 27.296875 
z
" id="DejaVuSans-100"/>
      <path d="M 48.78125 52.59375 
L 48.78125 44.1875 
Q 44.96875 46.296875 41.140625 47.34375 
Q 37.3125 48.390625 33.40625 48.390625 
Q 24.65625 48.390625 19.8125 42.84375 
Q 14.984375 37.3125 14.984375 27.296875 
Q 14.984375 17.28125 19.8125 11.734375 
Q 24.65625 6.203125 33.40625 6.203125 
Q 37.3125 6.203125 41.140625 7.25 
Q 44.96875 8.296875 48.78125 10.40625 
L 48.78125 2.09375 
Q 45.015625 0.34375 40.984375 -0.53125 
Q 36.96875 -1.421875 32.421875 -1.421875 
Q 20.0625 -1.421875 12.78125 6.34375 
Q 5.515625 14.109375 5.515625 27.296875 
Q 5.515625 40.671875 12.859375 48.328125 
Q 20.21875 56 33.015625 56 
Q 37.15625 56 41.109375 55.140625 
Q 45.0625 54.296875 48.78125 52.59375 
z
" id="DejaVuSans-99"/>
      <path d="M 56.203125 29.59375 
L 56.203125 25.203125 
L 14.890625 25.203125 
Q 15.484375 15.921875 20.484375 11.0625 
Q 25.484375 6.203125 34.421875 6.203125 
Q 39.59375 6.203125 44.453125 7.46875 
Q 49.3125 8.734375 54.109375 11.28125 
L 54.109375 2.78125 
Q 49.265625 0.734375 44.1875 -0.34375 
Q 39.109375 -1.421875 33.890625 -1.421875 
Q 20.796875 -1.421875 13.15625 6.1875 
Q 5.515625 13.8125 5.515625 26.8125 
Q 5.515625 40.234375 12.765625 48.109375 
Q 20.015625 56 32.328125 56 
Q 43.359375 56 49.78125 48.890625 
Q 56.203125 41.796875 56.203125 29.59375 
z
M 47.21875 32.234375 
Q 47.125 39.59375 43.09375 43.984375 
Q 39.0625 48.390625 32.421875 48.390625 
Q 24.90625 48.390625 20.390625 44.140625 
Q 15.875 39.890625 15.1875 32.171875 
z
" id="DejaVuSans-101"/>
      <path id="DejaVuSans-32"/>
      <path d="M 8.59375 75.984375 
L 29.296875 75.984375 
L 29.296875 69 
L 17.578125 69 
L 17.578125 -6.203125 
L 29.296875 -6.203125 
L 29.296875 -13.1875 
L 8.59375 -13.1875 
z
" id="DejaVuSans-91"/>
      <path d="M 72.703125 32.078125 
Q 68.453125 32.078125 66.03125 28.46875 
Q 63.625 24.859375 63.625 18.40625 
Q 63.625 12.0625 66.03125 8.421875 
Q 68.453125 4.78125 72.703125 4.78125 
Q 76.859375 4.78125 79.265625 8.421875 
Q 81.6875 12.0625 81.6875 18.40625 
Q 81.6875 24.8125 79.265625 28.4375 
Q 76.859375 32.078125 72.703125 32.078125 
z
M 72.703125 38.28125 
Q 80.421875 38.28125 84.953125 32.90625 
Q 89.5 27.546875 89.5 18.40625 
Q 89.5 9.28125 84.9375 3.921875 
Q 80.375 -1.421875 72.703125 -1.421875 
Q 64.890625 -1.421875 60.34375 3.921875 
Q 55.8125 9.28125 55.8125 18.40625 
Q 55.8125 27.59375 60.375 32.9375 
Q 64.9375 38.28125 72.703125 38.28125 
z
M 22.3125 68.015625 
Q 18.109375 68.015625 15.6875 64.375 
Q 13.28125 60.75 13.28125 54.390625 
Q 13.28125 47.953125 15.671875 44.328125 
Q 18.0625 40.71875 22.3125 40.71875 
Q 26.5625 40.71875 28.96875 44.328125 
Q 31.390625 47.953125 31.390625 54.390625 
Q 31.390625 60.6875 28.953125 64.34375 
Q 26.515625 68.015625 22.3125 68.015625 
z
M 66.40625 74.21875 
L 74.21875 74.21875 
L 28.609375 -1.421875 
L 20.796875 -1.421875 
z
M 22.3125 74.21875 
Q 30.03125 74.21875 34.609375 68.875 
Q 39.203125 63.53125 39.203125 54.390625 
Q 39.203125 45.171875 34.640625 39.84375 
Q 30.078125 34.515625 22.3125 34.515625 
Q 14.546875 34.515625 10.03125 39.859375 
Q 5.515625 45.21875 5.515625 54.390625 
Q 5.515625 63.484375 10.046875 68.84375 
Q 14.59375 74.21875 22.3125 74.21875 
z
" id="DejaVuSans-37"/>
      <path d="M 30.421875 75.984375 
L 30.421875 -13.1875 
L 9.71875 -13.1875 
L 9.71875 -6.203125 
L 21.390625 -6.203125 
L 21.390625 69 
L 9.71875 69 
L 9.71875 75.984375 
z
" id="DejaVuSans-93"/>
     </defs>
     <g transform="translate(166.934688 310.625031)scale(0.11 -0.11)">
      <use xlink:href="#DejaVuSans-97"/>
      <use x="61.279297" xlink:href="#DejaVuSans-98"/>
      <use x="124.755859" xlink:href="#DejaVuSans-117"/>
      <use x="188.134766" xlink:href="#DejaVuSans-110"/>
      <use x="251.513672" xlink:href="#DejaVuSans-100"/>
      <use x="314.990234" xlink:href="#DejaVuSans-97"/>
      <use x="376.269531" xlink:href="#DejaVuSans-110"/>
      <use x="439.648438" xlink:href="#DejaVuSans-99"/>
      <use x="494.628906" xlink:href="#DejaVuSans-101"/>
      <use x="556.152344" xlink:href="#DejaVuSans-32"/>
      <use x="587.939453" xlink:href="#DejaVuSans-91"/>
      <use x="626.953125" xlink:href="#DejaVuSans-37"/>
      <use x="721.972656" xlink:href="#DejaVuSans-93"/>
     </g>
    </g>
   </g>
   <g id="matplotlib.axis_2">
    <g id="ytick_1">
     <g id="line2d_6">
      <path d="M 46.789688 271.8 
" style="fill:none;stroke:#333333;stroke-width:1.5;"/>
      <defs>
       <path d="M 0 0 
L -2.75 0 
" id="mbe70e11385" style="stroke:#333333;"/>
      </defs>
      <g>
       <use style="fill:#333333;stroke:#333333;" x="46.789688" xlink:href="#mbe70e11385" y="271.8"/>
      </g>
     </g>
     <g id="text_7">
      <!-- 0 -->
      <g style="fill:#4d4d4d;" transform="translate(36.240688 274.22825)scale(0.088 -0.088)">
       <use xlink:href="#DejaVuSans-48"/>
      </g>
     </g>
    </g>
    <g id="ytick_2">
     <g id="line2d_7">
      <path d="M 46.789688 207.298996 
" style="fill:none;stroke:#333333;stroke-width:1.5;"/>
      <g>
       <use style="fill:#333333;stroke:#333333;" x="46.789688" xlink:href="#mbe70e11385" y="207.298996"/>
      </g>
     </g>
     <g id="text_8">
      <!-- 0.01 -->
      <g style="fill:#4d4d4d;" transform="translate(22.245938 209.727246)scale(0.088 -0.088)">
       <use xlink:href="#DejaVuSans-48"/>
       <use x="63.623047" xlink:href="#DejaVuSans-46"/>
       <use x="95.410156" xlink:href="#DejaVuSans-48"/>
       <use x="159.033203" xlink:href="#DejaVuSans-49"/>
      </g>
     </g>
    </g>
    <g id="ytick_3">
     <g id="line2d_8">
      <path d="M 46.789688 142.797993 
" style="fill:none;stroke:#333333;stroke-width:1.5;"/>
      <g>
       <use style="fill:#333333;stroke:#333333;" x="46.789688" xlink:href="#mbe70e11385" y="142.797993"/>
      </g>
     </g>
     <g id="text_9">
      <!-- 0.02 -->
      <g style="fill:#4d4d4d;" transform="translate(22.245938 145.226243)scale(0.088 -0.088)">
       <use xlink:href="#DejaVuSans-48"/>
       <use x="63.623047" xlink:href="#DejaVuSans-46"/>
       <use x="95.410156" xlink:href="#DejaVuSans-48"/>
       <use x="159.033203" xlink:href="#DejaVuSans-50"/>
      </g>
     </g>
    </g>
    <g id="ytick_4">
     <g id="line2d_9">
      <path d="M 46.789688 78.296989 
" style="fill:none;stroke:#333333;stroke-width:1.5;"/>
      <g>
       <use style="fill:#333333;stroke:#333333;" x="46.789688" xlink:href="#mbe70e11385" y="78.296989"/>
      </g>
     </g>
     <g id="text_10">
      <!-- 0.03 -->
      <defs>
       <path d="M 40.578125 39.3125 
Q 47.65625 37.796875 51.625 33 
Q 55.609375 28.21875 55.609375 21.1875 
Q 55.609375 10.40625 48.1875 4.484375 
Q 40.765625 -1.421875 27.09375 -1.421875 
Q 22.515625 -1.421875 17.65625 -0.515625 
Q 12.796875 0.390625 7.625 2.203125 
L 7.625 11.71875 
Q 11.71875 9.328125 16.59375 8.109375 
Q 21.484375 6.890625 26.8125 6.890625 
Q 36.078125 6.890625 40.9375 10.546875 
Q 45.796875 14.203125 45.796875 21.1875 
Q 45.796875 27.640625 41.28125 31.265625 
Q 36.765625 34.90625 28.71875 34.90625 
L 20.21875 34.90625 
L 20.21875 43.015625 
L 29.109375 43.015625 
Q 36.375 43.015625 40.234375 45.921875 
Q 44.09375 48.828125 44.09375 54.296875 
Q 44.09375 59.90625 40.109375 62.90625 
Q 36.140625 65.921875 28.71875 65.921875 
Q 24.65625 65.921875 20.015625 65.03125 
Q 15.375 64.15625 9.8125 62.3125 
L 9.8125 71.09375 
Q 15.4375 72.65625 20.34375 73.4375 
Q 25.25 74.21875 29.59375 74.21875 
Q 40.828125 74.21875 47.359375 69.109375 
Q 53.90625 64.015625 53.90625 55.328125 
Q 53.90625 49.265625 50.4375 45.09375 
Q 46.96875 40.921875 40.578125 39.3125 
z
" id="DejaVuSans-51"/>
      </defs>
      <g style="fill:#4d4d4d;" transform="translate(22.245938 80.725239)scale(0.088 -0.088)">
       <use xlink:href="#DejaVuSans-48"/>
       <use x="63.623047" xlink:href="#DejaVuSans-46"/>
       <use x="95.410156" xlink:href="#DejaVuSans-48"/>
       <use x="159.033203" xlink:href="#DejaVuSans-51"/>
      </g>
     </g>
    </g>
    <g id="ytick_5">
     <g id="line2d_10">
      <path d="M 46.789688 13.795986 
" style="fill:none;stroke:#333333;stroke-width:1.5;"/>
      <g>
       <use style="fill:#333333;stroke:#333333;" x="46.789688" xlink:href="#mbe70e11385" y="13.795986"/>
      </g>
     </g>
     <g id="text_11">
      <!-- 0.04 -->
      <defs>
       <path d="M 37.796875 64.3125 
L 12.890625 25.390625 
L 37.796875 25.390625 
z
M 35.203125 72.90625 
L 47.609375 72.90625 
L 47.609375 25.390625 
L 58.015625 25.390625 
L 58.015625 17.1875 
L 47.609375 17.1875 
L 47.609375 0 
L 37.796875 0 
L 37.796875 17.1875 
L 4.890625 17.1875 
L 4.890625 26.703125 
z
" id="DejaVuSans-52"/>
      </defs>
      <g style="fill:#4d4d4d;" transform="translate(22.245938 16.224236)scale(0.088 -0.088)">
       <use xlink:href="#DejaVuSans-48"/>
       <use x="63.623047" xlink:href="#DejaVuSans-46"/>
       <use x="95.410156" xlink:href="#DejaVuSans-48"/>
       <use x="159.033203" xlink:href="#DejaVuSans-52"/>
      </g>
     </g>
    </g>
    <g id="ytick_6"/>
    <g id="ytick_7"/>
    <g id="ytick_8"/>
    <g id="ytick_9"/>
    <g id="text_12">
     <!-- growth rate [1/h] -->
     <defs>
      <path d="M 45.40625 27.984375 
Q 45.40625 37.75 41.375 43.109375 
Q 37.359375 48.484375 30.078125 48.484375 
Q 22.859375 48.484375 18.828125 43.109375 
Q 14.796875 37.75 14.796875 27.984375 
Q 14.796875 18.265625 18.828125 12.890625 
Q 22.859375 7.515625 30.078125 7.515625 
Q 37.359375 7.515625 41.375 12.890625 
Q 45.40625 18.265625 45.40625 27.984375 
z
M 54.390625 6.78125 
Q 54.390625 -7.171875 48.1875 -13.984375 
Q 42 -20.796875 29.203125 -20.796875 
Q 24.46875 -20.796875 20.265625 -20.09375 
Q 16.0625 -19.390625 12.109375 -17.921875 
L 12.109375 -9.1875 
Q 16.0625 -11.328125 19.921875 -12.34375 
Q 23.78125 -13.375 27.78125 -13.375 
Q 36.625 -13.375 41.015625 -8.765625 
Q 45.40625 -4.15625 45.40625 5.171875 
L 45.40625 9.625 
Q 42.625 4.78125 38.28125 2.390625 
Q 33.9375 0 27.875 0 
Q 17.828125 0 11.671875 7.65625 
Q 5.515625 15.328125 5.515625 27.984375 
Q 5.515625 40.671875 11.671875 48.328125 
Q 17.828125 56 27.875 56 
Q 33.9375 56 38.28125 53.609375 
Q 42.625 51.21875 45.40625 46.390625 
L 45.40625 54.6875 
L 54.390625 54.6875 
z
" id="DejaVuSans-103"/>
      <path d="M 41.109375 46.296875 
Q 39.59375 47.171875 37.8125 47.578125 
Q 36.03125 48 33.890625 48 
Q 26.265625 48 22.1875 43.046875 
Q 18.109375 38.09375 18.109375 28.8125 
L 18.109375 0 
L 9.078125 0 
L 9.078125 54.6875 
L 18.109375 54.6875 
L 18.109375 46.1875 
Q 20.953125 51.171875 25.484375 53.578125 
Q 30.03125 56 36.53125 56 
Q 37.453125 56 38.578125 55.875 
Q 39.703125 55.765625 41.0625 55.515625 
z
" id="DejaVuSans-114"/>
      <path d="M 30.609375 48.390625 
Q 23.390625 48.390625 19.1875 42.75 
Q 14.984375 37.109375 14.984375 27.296875 
Q 14.984375 17.484375 19.15625 11.84375 
Q 23.34375 6.203125 30.609375 6.203125 
Q 37.796875 6.203125 41.984375 11.859375 
Q 46.1875 17.53125 46.1875 27.296875 
Q 46.1875 37.015625 41.984375 42.703125 
Q 37.796875 48.390625 30.609375 48.390625 
z
M 30.609375 56 
Q 42.328125 56 49.015625 48.375 
Q 55.71875 40.765625 55.71875 27.296875 
Q 55.71875 13.875 49.015625 6.21875 
Q 42.328125 -1.421875 30.609375 -1.421875 
Q 18.84375 -1.421875 12.171875 6.21875 
Q 5.515625 13.875 5.515625 27.296875 
Q 5.515625 40.765625 12.171875 48.375 
Q 18.84375 56 30.609375 56 
z
" id="DejaVuSans-111"/>
      <path d="M 4.203125 54.6875 
L 13.1875 54.6875 
L 24.421875 12.015625 
L 35.59375 54.6875 
L 46.1875 54.6875 
L 57.421875 12.015625 
L 68.609375 54.6875 
L 77.59375 54.6875 
L 63.28125 0 
L 52.6875 0 
L 40.921875 44.828125 
L 29.109375 0 
L 18.5 0 
z
" id="DejaVuSans-119"/>
      <path d="M 18.3125 70.21875 
L 18.3125 54.6875 
L 36.8125 54.6875 
L 36.8125 47.703125 
L 18.3125 47.703125 
L 18.3125 18.015625 
Q 18.3125 11.328125 20.140625 9.421875 
Q 21.96875 7.515625 27.59375 7.515625 
L 36.8125 7.515625 
L 36.8125 0 
L 27.59375 0 
Q 17.1875 0 13.234375 3.875 
Q 9.28125 7.765625 9.28125 18.015625 
L 9.28125 47.703125 
L 2.6875 47.703125 
L 2.6875 54.6875 
L 9.28125 54.6875 
L 9.28125 70.21875 
z
" id="DejaVuSans-116"/>
      <path d="M 54.890625 33.015625 
L 54.890625 0 
L 45.90625 0 
L 45.90625 32.71875 
Q 45.90625 40.484375 42.875 44.328125 
Q 39.84375 48.1875 33.796875 48.1875 
Q 26.515625 48.1875 22.3125 43.546875 
Q 18.109375 38.921875 18.109375 30.90625 
L 18.109375 0 
L 9.078125 0 
L 9.078125 75.984375 
L 18.109375 75.984375 
L 18.109375 46.1875 
Q 21.34375 51.125 25.703125 53.5625 
Q 30.078125 56 35.796875 56 
Q 45.21875 56 50.046875 50.171875 
Q 54.890625 44.34375 54.890625 33.015625 
z
" id="DejaVuSans-104"/>
      <path d="M 25.390625 72.90625 
L 33.6875 72.90625 
L 8.296875 -9.28125 
L 0 -9.28125 
z
" id="DejaVuSans-47"/>
     </defs>
     <g transform="translate(15.558281 191.053359)rotate(-90)scale(0.11 -0.11)">
      <use xlink:href="#DejaVuSans-103"/>
      <use x="63.476562" xlink:href="#DejaVuSans-114"/>
      <use x="104.558594" xlink:href="#DejaVuSans-111"/>
      <use x="165.740234" xlink:href="#DejaVuSans-119"/>
      <use x="247.527344" xlink:href="#DejaVuSans-116"/>
      <use x="286.736328" xlink:href="#DejaVuSans-104"/>
      <use x="350.115234" xlink:href="#DejaVuSans-32"/>
      <use x="381.902344" xlink:href="#DejaVuSans-114"/>
      <use x="423.015625" xlink:href="#DejaVuSans-97"/>
      <use x="484.294922" xlink:href="#DejaVuSans-116"/>
      <use x="523.503906" xlink:href="#DejaVuSans-101"/>
      <use x="585.027344" xlink:href="#DejaVuSans-32"/>
      <use x="616.814453" xlink:href="#DejaVuSans-91"/>
      <use x="655.828125" xlink:href="#DejaVuSans-49"/>
      <use x="719.451172" xlink:href="#DejaVuSans-47"/>
      <use x="753.142578" xlink:href="#DejaVuSans-104"/>
      <use x="816.521484" xlink:href="#DejaVuSans-93"/>
     </g>
    </g>
   </g>
   <g id="PathCollection_1">
    <path clip-path="url(#pac37ce21ee)" d="M 242.388488 159.337574 
C 242.976064 159.337574 243.539653 159.104128 243.955131 158.688649 
C 244.37061 158.273171 244.604056 157.709582 244.604056 157.122006 
C 244.604056 156.534431 244.37061 155.970842 243.955131 155.555364 
C 243.539653 155.139885 242.976064 154.906439 242.388488 154.906439 
C 241.800913 154.906439 241.237324 155.139885 240.821846 155.555364 
C 240.406367 155.970842 240.172921 156.534431 240.172921 157.122006 
C 240.172921 157.709582 240.406367 158.273171 240.821846 158.688649 
C 241.237324 159.104128 241.800913 159.337574 242.388488 159.337574 
z
" style="fill:#7957db;stroke:#7957db;stroke-width:0.886227;"/>
    <path clip-path="url(#pac37ce21ee)" d="M 105.482538 246.383856 
C 106.070113 246.383856 106.633702 246.150409 107.04918 245.734931 
C 107.464659 245.319452 107.698105 244.755864 107.698105 244.168288 
C 107.698105 243.580713 107.464659 243.017124 107.04918 242.601646 
C 106.633702 242.186167 106.070113 241.952721 105.482538 241.952721 
C 104.894962 241.952721 104.331374 242.186167 103.915895 242.601646 
C 103.500417 243.017124 103.26697 243.580713 103.26697 244.168288 
C 103.26697 244.755864 103.500417 245.319452 103.915895 245.734931 
C 104.331374 246.150409 104.894962 246.383856 105.482538 246.383856 
z
" style="fill:#7957db;stroke:#7957db;stroke-width:0.886227;"/>
    <path clip-path="url(#pac37ce21ee)" d="M 142.516218 222.840425 
C 143.103794 222.840425 143.667382 222.606978 144.082861 222.1915 
C 144.498339 221.776022 144.731786 221.212433 144.731786 220.624857 
C 144.731786 220.037282 144.498339 219.473693 144.082861 219.058215 
C 143.667382 218.642736 143.103794 218.40929 142.516218 218.40929 
C 141.928643 218.40929 141.365054 218.642736 140.949576 219.058215 
C 140.534097 219.473693 140.300651 220.037282 140.300651 220.624857 
C 140.300651 221.212433 140.534097 221.776022 140.949576 222.1915 
C 141.365054 222.606978 141.928643 222.840425 142.516218 222.840425 
z
" style="fill:#7957db;stroke:#7957db;stroke-width:0.886227;"/>
    <path clip-path="url(#pac37ce21ee)" d="M 189.96363 185.610659 
C 190.551206 185.610659 191.114795 185.377213 191.530273 184.961734 
C 191.945752 184.546256 192.179198 183.982667 192.179198 183.395092 
C 192.179198 182.807516 191.945752 182.243927 191.530273 181.828449 
C 191.114795 181.41297 190.551206 181.179524 189.96363 181.179524 
C 189.376055 181.179524 188.812466 181.41297 188.396988 181.828449 
C 187.981509 182.243927 187.748063 182.807516 187.748063 183.395092 
C 187.748063 183.982667 187.981509 184.546256 188.396988 184.961734 
C 188.812466 185.377213 189.376055 185.610659 189.96363 185.610659 
z
" style="fill:#5784db;stroke:#5784db;stroke-width:0.886227;"/>
    <path clip-path="url(#pac37ce21ee)" d="M 96.794816 249.985888 
C 97.382391 249.985888 97.94598 249.752442 98.361458 249.336964 
C 98.776937 248.921485 99.010383 248.357896 99.010383 247.770321 
C 99.010383 247.182746 98.776937 246.619157 98.361458 246.203678 
C 97.94598 245.7882 97.382391 245.554754 96.794816 245.554754 
C 96.20724 245.554754 95.643652 245.7882 95.228173 246.203678 
C 94.812695 246.619157 94.579248 247.182746 94.579248 247.770321 
C 94.579248 248.357896 94.812695 248.921485 95.228173 249.336964 
C 95.643652 249.752442 96.20724 249.985888 96.794816 249.985888 
z
" style="fill:#5784db;stroke:#5784db;stroke-width:0.886227;"/>
    <path clip-path="url(#pac37ce21ee)" d="M 203.628798 176.154631 
C 204.216373 176.154631 204.779962 175.921185 205.195441 175.505706 
C 205.610919 175.090228 205.844365 174.526639 205.844365 173.939063 
C 205.844365 173.351488 205.610919 172.787899 205.195441 172.372421 
C 204.779962 171.956942 204.216373 171.723496 203.628798 171.723496 
C 203.041223 171.723496 202.477634 171.956942 202.062155 172.372421 
C 201.646677 172.787899 201.413231 173.351488 201.413231 173.939063 
C 201.413231 174.526639 201.646677 175.090228 202.062155 175.505706 
C 202.477634 175.921185 203.041223 176.154631 203.628798 176.154631 
z
" style="fill:#5784db;stroke:#5784db;stroke-width:0.886227;"/>
    <path clip-path="url(#pac37ce21ee)" d="M 132.052206 229.345826 
C 132.639781 229.345826 133.20337 229.11238 133.618848 228.696902 
C 134.034327 228.281423 134.267773 227.717834 134.267773 227.130259 
C 134.267773 226.542684 134.034327 225.979095 133.618848 225.563616 
C 133.20337 225.148138 132.639781 224.914692 132.052206 224.914692 
C 131.46463 224.914692 130.901042 225.148138 130.485563 225.563616 
C 130.070085 225.979095 129.836638 226.542684 129.836638 227.130259 
C 129.836638 227.717834 130.070085 228.281423 130.485563 228.696902 
C 130.901042 229.11238 131.46463 229.345826 132.052206 229.345826 
z
" style="fill:#b9db57;stroke:#b9db57;stroke-width:0.886227;"/>
    <path clip-path="url(#pac37ce21ee)" d="M 114.030739 241.697465 
C 114.618315 241.697465 115.181903 241.464019 115.597382 241.04854 
C 116.01286 240.633062 116.246307 240.069473 116.246307 239.481897 
C 116.246307 238.894322 116.01286 238.330733 115.597382 237.915255 
C 115.181903 237.499776 114.618315 237.26633 114.030739 237.26633 
C 113.443164 237.26633 112.879575 237.499776 112.464097 237.915255 
C 112.048618 238.330733 111.815172 238.894322 111.815172 239.481897 
C 111.815172 240.069473 112.048618 240.633062 112.464097 241.04854 
C 112.879575 241.464019 113.443164 241.697465 114.030739 241.697465 
z
" style="fill:#b9db57;stroke:#b9db57;stroke-width:0.886227;"/>
    <path clip-path="url(#pac37ce21ee)" d="M 244.304299 157.738741 
C 244.891875 157.738741 245.455464 157.505294 245.870942 157.089816 
C 246.286421 156.674338 246.519867 156.110749 246.519867 155.523173 
C 246.519867 154.935598 246.286421 154.372009 245.870942 153.956531 
C 245.455464 153.541052 244.891875 153.307606 244.304299 153.307606 
C 243.716724 153.307606 243.153135 153.541052 242.737657 153.956531 
C 242.322178 154.372009 242.088732 154.935598 242.088732 155.523173 
C 242.088732 156.110749 242.322178 156.674338 242.737657 157.089816 
C 243.153135 157.505294 243.716724 157.738741 244.304299 157.738741 
z
" style="fill:#b9db57;stroke:#b9db57;stroke-width:0.886227;"/>
    <path clip-path="url(#pac37ce21ee)" d="M 179.07685 95.747281 
C 179.664425 95.747281 180.228014 95.513834 180.643492 95.098356 
C 181.058971 94.682877 181.292417 94.119289 181.292417 93.531713 
C 181.292417 92.944138 181.058971 92.380549 180.643492 91.965071 
C 180.228014 91.549592 179.664425 91.316146 179.07685 91.316146 
C 178.489274 91.316146 177.925685 91.549592 177.510207 91.965071 
C 177.094728 92.380549 176.861282 92.944138 176.861282 93.531713 
C 176.861282 94.119289 177.094728 94.682877 177.510207 95.098356 
C 177.925685 95.513834 178.489274 95.747281 179.07685 95.747281 
z
" style="fill:#57db94;stroke:#57db94;stroke-width:0.886227;"/>
    <path clip-path="url(#pac37ce21ee)" d="M 202.649906 261.049595 
C 203.237482 261.049595 203.80107 260.816148 204.216549 260.40067 
C 204.632027 259.985191 204.865474 259.421603 204.865474 258.834027 
C 204.865474 258.246452 204.632027 257.682863 204.216549 257.267385 
C 203.80107 256.851906 203.237482 256.61846 202.649906 256.61846 
C 202.062331 256.61846 201.498742 256.851906 201.083264 257.267385 
C 200.667785 257.682863 200.434339 258.246452 200.434339 258.834027 
C 200.434339 259.421603 200.667785 259.985191 201.083264 260.40067 
C 201.498742 260.816148 202.062331 261.049595 202.649906 261.049595 
z
" style="fill:#57db94;stroke:#57db94;stroke-width:0.886227;"/>
    <path clip-path="url(#pac37ce21ee)" d="M 108.660489 202.985346 
C 109.248064 202.985346 109.811653 202.7519 110.227131 202.336421 
C 110.64261 201.920943 110.876056 201.357354 110.876056 200.769778 
C 110.876056 200.182203 110.64261 199.618614 110.227131 199.203136 
C 109.811653 198.787657 109.248064 198.554211 108.660489 198.554211 
C 108.072913 198.554211 107.509324 198.787657 107.093846 199.203136 
C 106.678367 199.618614 106.444921 200.182203 106.444921 200.769778 
C 106.444921 201.357354 106.678367 201.920943 107.093846 202.336421 
C 107.509324 202.7519 108.072913 202.985346 108.660489 202.985346 
z
" style="fill:#57db94;stroke:#57db94;stroke-width:0.886227;"/>
    <path clip-path="url(#pac37ce21ee)" d="M 271.733287 165.172521 
C 272.320862 165.172521 272.884451 164.939075 273.29993 164.523597 
C 273.715408 164.108118 273.948854 163.544529 273.948854 162.956954 
C 273.948854 162.369379 273.715408 161.80579 273.29993 161.390311 
C 272.884451 160.974833 272.320862 160.741387 271.733287 160.741387 
C 271.145712 160.741387 270.582123 160.974833 270.166644 161.390311 
C 269.751166 161.80579 269.51772 162.369379 269.51772 162.956954 
C 269.51772 163.544529 269.751166 164.108118 270.166644 164.523597 
C 270.582123 164.939075 271.145712 165.172521 271.733287 165.172521 
z
" style="fill:#db579e;stroke:#db579e;stroke-width:0.886227;"/>
    <path clip-path="url(#pac37ce21ee)" d="M 80.6019 264.372379 
C 81.189476 264.372379 81.753064 264.138932 82.168543 263.723454 
C 82.584021 263.307975 82.817468 262.744387 82.817468 262.156811 
C 82.817468 261.569236 82.584021 261.005647 82.168543 260.590169 
C 81.753064 260.17469 81.189476 259.941244 80.6019 259.941244 
C 80.014325 259.941244 79.450736 260.17469 79.035258 260.590169 
C 78.619779 261.005647 78.386333 261.569236 78.386333 262.156811 
C 78.386333 262.744387 78.619779 263.307975 79.035258 263.723454 
C 79.450736 264.138932 80.014325 264.372379 80.6019 264.372379 
z
" style="fill:#db579e;stroke:#db579e;stroke-width:0.886227;"/>
    <path clip-path="url(#pac37ce21ee)" d="M 138.052057 234.557796 
C 138.639632 234.557796 139.203221 234.32435 139.6187 233.908872 
C 140.034178 233.493393 140.267624 232.929804 140.267624 232.342229 
C 140.267624 231.754654 140.034178 231.191065 139.6187 230.775586 
C 139.203221 230.360108 138.639632 230.126662 138.052057 230.126662 
C 137.464482 230.126662 136.900893 230.360108 136.485414 230.775586 
C 136.069936 231.191065 135.83649 231.754654 135.83649 232.342229 
C 135.83649 232.929804 136.069936 233.493393 136.485414 233.908872 
C 136.900893 234.32435 137.464482 234.557796 138.052057 234.557796 
z
" style="fill:#db579e;stroke:#db579e;stroke-width:0.886227;"/>
    <path clip-path="url(#pac37ce21ee)" d="M 161.1483 223.366897 
C 161.735875 223.366897 162.299464 223.133451 162.714942 222.717973 
C 163.130421 222.302494 163.363867 221.738905 163.363867 221.15133 
C 163.363867 220.563755 163.130421 220.000166 162.714942 219.584687 
C 162.299464 219.169209 161.735875 218.935763 161.1483 218.935763 
C 160.560724 218.935763 159.997136 219.169209 159.581657 219.584687 
C 159.166179 220.000166 158.932732 220.563755 158.932732 221.15133 
C 158.932732 221.738905 159.166179 222.302494 159.581657 222.717973 
C 159.997136 223.133451 160.560724 223.366897 161.1483 223.366897 
z
" style="fill:#69db57;stroke:#69db57;stroke-width:0.886227;"/>
    <path clip-path="url(#pac37ce21ee)" d="M 64.587427 272.70401 
C 65.175002 272.70401 65.738591 272.470564 66.15407 272.055086 
C 66.569548 271.639607 66.802994 271.076018 66.802994 270.488443 
C 66.802994 269.900868 66.569548 269.337279 66.15407 268.9218 
C 65.738591 268.506322 65.175002 268.272876 64.587427 268.272876 
C 63.999852 268.272876 63.436263 268.506322 63.020784 268.9218 
C 62.605306 269.337279 62.37186 269.900868 62.37186 270.488443 
C 62.37186 271.076018 62.605306 271.639607 63.020784 272.055086 
C 63.436263 272.470564 63.999852 272.70401 64.587427 272.70401 
z
" style="fill:#69db57;stroke:#69db57;stroke-width:0.886227;"/>
    <path clip-path="url(#pac37ce21ee)" d="M 264.651517 170.472825 
C 265.239093 170.472825 265.802682 170.239379 266.21816 169.8239 
C 266.633639 169.408422 266.867085 168.844833 266.867085 168.257258 
C 266.867085 167.669682 266.633639 167.106094 266.21816 166.690615 
C 265.802682 166.275137 265.239093 166.04169 264.651517 166.04169 
C 264.063942 166.04169 263.500353 166.275137 263.084875 166.690615 
C 262.669396 167.106094 262.43595 167.669682 262.43595 168.257258 
C 262.43595 168.844833 262.669396 169.408422 263.084875 169.8239 
C 263.500353 170.239379 264.063942 170.472825 264.651517 170.472825 
z
" style="fill:#69db57;stroke:#69db57;stroke-width:0.886227;"/>
    <path clip-path="url(#pac37ce21ee)" d="M 264.376623 162.868492 
C 264.964198 162.868492 265.527787 162.635046 265.943266 162.219567 
C 266.358744 161.804089 266.59219 161.2405 266.59219 160.652925 
C 266.59219 160.065349 266.358744 159.501761 265.943266 159.086282 
C 265.527787 158.670804 264.964198 158.437357 264.376623 158.437357 
C 263.789048 158.437357 263.225459 158.670804 262.80998 159.086282 
C 262.394502 159.501761 262.161056 160.065349 262.161056 160.652925 
C 262.161056 161.2405 262.394502 161.804089 262.80998 162.219567 
C 263.225459 162.635046 263.789048 162.868492 264.376623 162.868492 
z
" style="fill:#c957db;stroke:#c957db;stroke-width:0.886227;"/>
    <path clip-path="url(#pac37ce21ee)" d="M 88.525723 259.458048 
C 89.113298 259.458048 89.676887 259.224602 90.092365 258.809124 
C 90.507844 258.393645 90.74129 257.830056 90.74129 257.242481 
C 90.74129 256.654906 90.507844 256.091317 90.092365 255.675839 
C 89.676887 255.26036 89.113298 255.026914 88.525723 255.026914 
C 87.938147 255.026914 87.374559 255.26036 86.95908 255.675839 
C 86.543602 256.091317 86.310155 256.654906 86.310155 257.242481 
C 86.310155 257.830056 86.543602 258.393645 86.95908 258.809124 
C 87.374559 259.224602 87.938147 259.458048 88.525723 259.458048 
z
" style="fill:#c957db;stroke:#c957db;stroke-width:0.886227;"/>
    <path clip-path="url(#pac37ce21ee)" d="M 137.484899 232.568997 
C 138.072474 232.568997 138.636063 232.335551 139.051541 231.920073 
C 139.46702 231.504594 139.700466 230.941005 139.700466 230.35343 
C 139.700466 229.765855 139.46702 229.202266 139.051541 228.786787 
C 138.636063 228.371309 138.072474 228.137863 137.484899 228.137863 
C 136.897323 228.137863 136.333734 228.371309 135.918256 228.786787 
C 135.502777 229.202266 135.269331 229.765855 135.269331 230.35343 
C 135.269331 230.941005 135.502777 231.504594 135.918256 231.920073 
C 136.333734 232.335551 136.897323 232.568997 137.484899 232.568997 
z
" style="fill:#c957db;stroke:#c957db;stroke-width:0.886227;"/>
    <path clip-path="url(#pac37ce21ee)" d="M 102.058231 204.717717 
C 102.645806 204.717717 103.209395 204.484271 103.624874 204.068793 
C 104.040352 203.653314 104.273798 203.089725 104.273798 202.50215 
C 104.273798 201.914575 104.040352 201.350986 103.624874 200.935507 
C 103.209395 200.520029 102.645806 200.286583 102.058231 200.286583 
C 101.470656 200.286583 100.907067 200.520029 100.491588 200.935507 
C 100.07611 201.350986 99.842664 201.914575 99.842664 202.50215 
C 99.842664 203.089725 100.07611 203.653314 100.491588 204.068793 
C 100.907067 204.484271 101.470656 204.717717 102.058231 204.717717 
z
" style="fill:#db5f57;stroke:#db5f57;stroke-width:0.886227;"/>
    <path clip-path="url(#pac37ce21ee)" d="M 215.097842 262.102084 
C 215.685417 262.102084 216.249006 261.868638 216.664484 261.45316 
C 217.079963 261.037681 217.313409 260.474092 217.313409 259.886517 
C 217.313409 259.298942 217.079963 258.735353 216.664484 258.319874 
C 216.249006 257.904396 215.685417 257.67095 215.097842 257.67095 
C 214.510266 257.67095 213.946677 257.904396 213.531199 258.319874 
C 213.11572 258.735353 212.882274 259.298942 212.882274 259.886517 
C 212.882274 260.474092 213.11572 261.037681 213.531199 261.45316 
C 213.946677 261.868638 214.510266 262.102084 215.097842 262.102084 
z
" style="fill:#db5f57;stroke:#db5f57;stroke-width:0.886227;"/>
    <path clip-path="url(#pac37ce21ee)" d="M 173.231172 81.540124 
C 173.818747 81.540124 174.382336 81.306678 174.797815 80.891199 
C 175.213293 80.475721 175.446739 79.912132 175.446739 79.324557 
C 175.446739 78.736981 175.213293 78.173392 174.797815 77.757914 
C 174.382336 77.342436 173.818747 77.108989 173.231172 77.108989 
C 172.643597 77.108989 172.080008 77.342436 171.664529 77.757914 
C 171.249051 78.173392 171.015605 78.736981 171.015605 79.324557 
C 171.015605 79.912132 171.249051 80.475721 171.664529 80.891199 
C 172.080008 81.306678 172.643597 81.540124 173.231172 81.540124 
z
" style="fill:#db5f57;stroke:#db5f57;stroke-width:0.886227;"/>
    <path clip-path="url(#pac37ce21ee)" d="M 179.249307 157.070737 
C 179.836883 157.070737 180.400472 156.837291 180.81595 156.421812 
C 181.231429 156.006334 181.464875 155.442745 181.464875 154.855169 
C 181.464875 154.267594 181.231429 153.704005 180.81595 153.288527 
C 180.400472 152.873048 179.836883 152.639602 179.249307 152.639602 
C 178.661732 152.639602 178.098143 152.873048 177.682665 153.288527 
C 177.267186 153.704005 177.03374 154.267594 177.03374 154.855169 
C 177.03374 155.442745 177.267186 156.006334 177.682665 156.421812 
C 178.098143 156.837291 178.661732 157.070737 179.249307 157.070737 
z
" style="fill:#57d3db;stroke:#57d3db;stroke-width:0.886227;"/>
    <path clip-path="url(#pac37ce21ee)" d="M 146.677107 252.469923 
C 147.264682 252.469923 147.828271 252.236477 148.243749 251.820998 
C 148.659228 251.40552 148.892674 250.841931 148.892674 250.254356 
C 148.892674 249.66678 148.659228 249.103191 148.243749 248.687713 
C 147.828271 248.272234 147.264682 248.038788 146.677107 248.038788 
C 146.089531 248.038788 145.525943 248.272234 145.110464 248.687713 
C 144.694986 249.103191 144.461539 249.66678 144.461539 250.254356 
C 144.461539 250.841931 144.694986 251.40552 145.110464 251.820998 
C 145.525943 252.236477 146.089531 252.469923 146.677107 252.469923 
z
" style="fill:#57d3db;stroke:#57d3db;stroke-width:0.886227;"/>
    <path clip-path="url(#pac37ce21ee)" d="M 164.46083 171.803199 
C 165.048406 171.803199 165.611994 171.569752 166.027473 171.154274 
C 166.442951 170.738796 166.676398 170.175207 166.676398 169.587631 
C 166.676398 169.000056 166.442951 168.436467 166.027473 168.020989 
C 165.611994 167.60551 165.048406 167.372064 164.46083 167.372064 
C 163.873255 167.372064 163.309666 167.60551 162.894188 168.020989 
C 162.478709 168.436467 162.245263 169.000056 162.245263 169.587631 
C 162.245263 170.175207 162.478709 170.738796 162.894188 171.154274 
C 163.309666 171.569752 163.873255 171.803199 164.46083 171.803199 
z
" style="fill:#57d3db;stroke:#57d3db;stroke-width:0.886227;"/>
    <path clip-path="url(#pac37ce21ee)" d="M 130.250821 235.884995 
C 130.838396 235.884995 131.401985 235.651548 131.817463 235.23607 
C 132.232942 234.820591 132.466388 234.257003 132.466388 233.669427 
C 132.466388 233.081852 132.232942 232.518263 131.817463 232.102785 
C 131.401985 231.687306 130.838396 231.45386 130.250821 231.45386 
C 129.663246 231.45386 129.099657 231.687306 128.684178 232.102785 
C 128.2687 232.518263 128.035254 233.081852 128.035254 233.669427 
C 128.035254 234.257003 128.2687 234.820591 128.684178 235.23607 
C 129.099657 235.651548 129.663246 235.884995 130.250821 235.884995 
z
" style="fill:#dbae57;stroke:#dbae57;stroke-width:0.886227;"/>
    <path clip-path="url(#pac37ce21ee)" d="M 96.391269 254.807132 
C 96.978844 254.807132 97.542433 254.573686 97.957911 254.158207 
C 98.37339 253.742729 98.606836 253.17914 98.606836 252.591565 
C 98.606836 252.003989 98.37339 251.440401 97.957911 251.024922 
C 97.542433 250.609444 96.978844 250.375998 96.391269 250.375998 
C 95.803693 250.375998 95.240104 250.609444 94.824626 251.024922 
C 94.409147 251.440401 94.175701 252.003989 94.175701 252.591565 
C 94.175701 253.17914 94.409147 253.742729 94.824626 254.158207 
C 95.240104 254.573686 95.803693 254.807132 96.391269 254.807132 
z
" style="fill:#dbae57;stroke:#dbae57;stroke-width:0.886227;"/>
    <path clip-path="url(#pac37ce21ee)" d="M 263.745155 161.272903 
C 264.33273 161.272903 264.896319 161.039457 265.311798 160.623978 
C 265.727276 160.2085 265.960722 159.644911 265.960722 159.057336 
C 265.960722 158.46976 265.727276 157.906171 265.311798 157.490693 
C 264.896319 157.075214 264.33273 156.841768 263.745155 156.841768 
C 263.15758 156.841768 262.593991 157.075214 262.178512 157.490693 
C 261.763034 157.906171 261.529588 158.46976 261.529588 159.057336 
C 261.529588 159.644911 261.763034 160.2085 262.178512 160.623978 
C 262.593991 161.039457 263.15758 161.272903 263.745155 161.272903 
z
" style="fill:#dbae57;stroke:#dbae57;stroke-width:0.886227;"/>
   </g>
   <g id="line2d_11">
    <path clip-path="url(#pac37ce21ee)" d="M 62.007869 271.8 
L 65.082249 269.662795 
L 68.15663 267.52559 
L 71.23101 265.388386 
L 74.30539 263.251181 
L 77.37977 261.113976 
L 80.45415 258.976771 
L 83.52853 256.839566 
L 86.602911 254.702361 
L 89.677291 252.565157 
L 92.751671 250.427952 
L 95.826051 248.290747 
L 98.900431 246.153542 
L 101.974811 244.016337 
L 105.049192 241.879133 
L 108.123572 239.741928 
L 111.197952 237.604723 
L 114.272332 235.467518 
L 117.346712 233.330313 
L 120.421092 231.193109 
L 123.495473 229.055904 
L 126.569853 226.918699 
L 129.644233 224.781494 
L 132.718613 222.644289 
L 135.792993 220.507084 
L 138.867373 218.36988 
L 141.941754 216.232675 
L 145.016134 214.09547 
L 148.090514 211.958265 
L 151.164894 209.82106 
L 154.239274 207.683856 
L 157.313654 205.546651 
L 160.388035 203.409446 
L 163.462415 201.272241 
L 166.536795 199.135036 
L 169.611175 196.997831 
L 172.685555 194.860627 
L 175.759935 192.723422 
L 178.834316 190.586217 
L 181.908696 188.449012 
L 184.983076 186.311807 
L 188.057456 184.174603 
L 191.131836 182.037398 
L 194.206216 179.900193 
L 197.280597 177.762988 
L 200.354977 175.625783 
L 203.429357 173.488579 
L 206.503737 171.351374 
L 209.578117 169.214169 
L 212.652497 167.076964 
L 215.726878 164.939759 
L 218.801258 162.802554 
L 221.875638 160.66535 
L 224.950018 158.528145 
L 228.024398 156.39094 
L 231.098778 154.253735 
L 234.173159 152.11653 
L 237.247539 149.979326 
L 240.321919 147.842121 
L 243.396299 145.704916 
L 246.470679 143.567711 
L 249.545059 141.430506 
L 252.61944 139.293302 
L 255.69382 137.156097 
L 258.7682 135.018892 
L 261.84258 132.881687 
L 264.91696 130.744482 
L 267.99134 128.607277 
L 271.065721 126.470073 
L 274.140101 124.332868 
L 277.214481 122.195663 
L 280.288861 120.058458 
L 283.363241 117.921253 
L 286.437621 115.784049 
L 289.512002 113.646844 
L 292.586382 111.509639 
L 295.660762 109.372434 
L 298.735142 107.235229 
L 301.809522 105.098024 
L 304.883902 102.96082 
L 307.958283 100.823615 
L 311.032663 98.68641 
L 314.107043 96.549205 
L 317.181423 94.412 
L 320.255803 92.274796 
L 323.330183 90.137591 
L 326.404564 88.000386 
L 329.478944 85.863181 
L 332.553324 83.725976 
L 335.627704 81.588772 
L 338.702084 79.451567 
L 341.776464 77.314362 
L 344.850845 75.177157 
L 347.925225 73.039952 
L 350.999605 70.902747 
L 354.073985 68.765543 
L 357.148365 66.628338 
L 360.222745 64.491133 
L 363.297126 62.353928 
L 366.371506 60.216723 
" style="fill:none;stroke:#db5f57;stroke-dasharray:3.27904,1.417963;stroke-dashoffset:0;stroke-width:0.886227;"/>
   </g>
   <g id="line2d_12">
    <path clip-path="url(#pac37ce21ee)" d="M 62.007869 271.8 
L 65.082249 270.081906 
L 68.15663 268.363811 
L 71.23101 266.645717 
L 74.30539 264.927623 
L 77.37977 263.209529 
L 80.45415 261.491434 
L 83.52853 259.77334 
L 86.602911 258.055246 
L 89.677291 256.337152 
L 92.751671 254.619057 
L 95.826051 252.900963 
L 98.900431 251.182869 
L 101.974811 249.464775 
L 105.049192 247.74668 
L 108.123572 246.028586 
L 111.197952 244.310492 
L 114.272332 242.592397 
L 117.346712 240.874303 
L 120.421092 239.156209 
L 123.495473 237.438115 
L 126.569853 235.72002 
L 129.644233 234.001926 
L 132.718613 232.283832 
L 135.792993 230.565738 
L 138.867373 228.847643 
L 141.941754 227.129549 
L 145.016134 225.411455 
L 148.090514 223.69336 
L 151.164894 221.975266 
L 154.239274 220.257172 
L 157.313654 218.539078 
L 160.388035 216.820983 
L 163.462415 215.102889 
L 166.536795 213.384795 
L 169.611175 211.666701 
L 172.685555 209.948606 
L 175.759935 208.230512 
L 178.834316 206.512418 
L 181.908696 204.794324 
L 184.983076 203.076229 
L 188.057456 201.358135 
L 191.131836 199.640041 
L 194.206216 197.921946 
L 197.280597 196.203852 
L 200.354977 194.485758 
L 203.429357 192.767664 
L 206.503737 191.049569 
L 209.578117 189.331475 
L 212.652497 187.613381 
L 215.726878 185.895287 
L 218.801258 184.177192 
L 221.875638 182.459098 
L 224.950018 180.741004 
L 228.024398 179.02291 
L 231.098778 177.304815 
L 234.173159 175.586721 
L 237.247539 173.868627 
L 240.321919 172.150532 
L 243.396299 170.432438 
L 246.470679 168.714344 
L 249.545059 166.99625 
L 252.61944 165.278155 
L 255.69382 163.560061 
L 258.7682 161.841967 
L 261.84258 160.123873 
L 264.91696 158.405778 
L 267.99134 156.687684 
L 271.065721 154.96959 
L 274.140101 153.251496 
L 277.214481 151.533401 
L 280.288861 149.815307 
L 283.363241 148.097213 
L 286.437621 146.379118 
L 289.512002 144.661024 
L 292.586382 142.94293 
L 295.660762 141.224836 
L 298.735142 139.506741 
L 301.809522 137.788647 
L 304.883902 136.070553 
L 307.958283 134.352459 
L 311.032663 132.634364 
L 314.107043 130.91627 
L 317.181423 129.198176 
L 320.255803 127.480081 
L 323.330183 125.761987 
L 326.404564 124.043893 
L 329.478944 122.325799 
L 332.553324 120.607704 
L 335.627704 118.88961 
L 338.702084 117.171516 
L 341.776464 115.453422 
L 344.850845 113.735327 
L 347.925225 112.017233 
L 350.999605 110.299139 
L 354.073985 108.581045 
L 357.148365 106.86295 
L 360.222745 105.144856 
L 363.297126 103.426762 
L 366.371506 101.708667 
" style="fill:none;stroke:#dbae57;stroke-dasharray:3.27904,1.417963;stroke-dashoffset:0;stroke-width:0.886227;"/>
   </g>
   <g id="line2d_13">
    <path clip-path="url(#pac37ce21ee)" d="M 62.007869 271.8 
L 65.082249 269.842448 
L 68.15663 267.884896 
L 71.23101 265.927344 
L 74.30539 263.969792 
L 77.37977 262.01224 
L 80.45415 260.054688 
L 83.52853 258.097136 
L 86.602911 256.139584 
L 89.677291 254.182032 
L 92.751671 252.22448 
L 95.826051 250.266928 
L 98.900431 248.309375 
L 101.974811 246.351823 
L 105.049192 244.394271 
L 108.123572 242.436719 
L 111.197952 240.479167 
L 114.272332 238.521615 
L 117.346712 236.564063 
L 120.421092 234.606511 
L 123.495473 232.648959 
L 126.569853 230.691407 
L 129.644233 228.733855 
L 132.718613 226.776303 
L 135.792993 224.818751 
L 138.867373 222.861199 
L 141.941754 220.903647 
L 145.016134 218.946095 
L 148.090514 216.988543 
L 151.164894 215.030991 
L 154.239274 213.073439 
L 157.313654 211.115887 
L 160.388035 209.158335 
L 163.462415 207.200783 
L 166.536795 205.243231 
L 169.611175 203.285678 
L 172.685555 201.328126 
L 175.759935 199.370574 
L 178.834316 197.413022 
L 181.908696 195.45547 
L 184.983076 193.497918 
L 188.057456 191.540366 
L 191.131836 189.582814 
L 194.206216 187.625262 
L 197.280597 185.66771 
L 200.354977 183.710158 
L 203.429357 181.752606 
L 206.503737 179.795054 
L 209.578117 177.837502 
L 212.652497 175.87995 
L 215.726878 173.922398 
L 218.801258 171.964846 
L 221.875638 170.007294 
L 224.950018 168.049742 
L 228.024398 166.09219 
L 231.098778 164.134638 
L 234.173159 162.177086 
L 237.247539 160.219534 
L 240.321919 158.261981 
L 243.396299 156.304429 
L 246.470679 154.346877 
L 249.545059 152.389325 
L 252.61944 150.431773 
L 255.69382 148.474221 
L 258.7682 146.516669 
L 261.84258 144.559117 
L 264.91696 142.601565 
L 267.99134 140.644013 
L 271.065721 138.686461 
L 274.140101 136.728909 
L 277.214481 134.771357 
L 280.288861 132.813805 
L 283.363241 130.856253 
L 286.437621 128.898701 
L 289.512002 126.941149 
L 292.586382 124.983597 
L 295.660762 123.026045 
L 298.735142 121.068493 
L 301.809522 119.110941 
L 304.883902 117.153389 
L 307.958283 115.195837 
L 311.032663 113.238284 
L 314.107043 111.280732 
L 317.181423 109.32318 
L 320.255803 107.365628 
L 323.330183 105.408076 
L 326.404564 103.450524 
L 329.478944 101.492972 
L 332.553324 99.53542 
L 335.627704 97.577868 
L 338.702084 95.620316 
L 341.776464 93.662764 
L 344.850845 91.705212 
L 347.925225 89.74766 
L 350.999605 87.790108 
L 354.073985 85.832556 
L 357.148365 83.875004 
L 360.222745 81.917452 
L 363.297126 79.9599 
L 366.371506 78.002348 
" style="fill:none;stroke:#b9db57;stroke-dasharray:3.27904,1.417963;stroke-dashoffset:0;stroke-width:0.886227;"/>
   </g>
   <g id="line2d_14">
    <path clip-path="url(#pac37ce21ee)" d="M 62.007869 271.8 
L 65.082249 270.229165 
L 68.15663 268.65833 
L 71.23101 267.087495 
L 74.30539 265.51666 
L 77.37977 263.945825 
L 80.45415 262.37499 
L 83.52853 260.804155 
L 86.602911 259.23332 
L 89.677291 257.662486 
L 92.751671 256.091651 
L 95.826051 254.520816 
L 98.900431 252.949981 
L 101.974811 251.379146 
L 105.049192 249.808311 
L 108.123572 248.237476 
L 111.197952 246.666641 
L 114.272332 245.095806 
L 117.346712 243.524971 
L 120.421092 241.954136 
L 123.495473 240.383301 
L 126.569853 238.812466 
L 129.644233 237.241631 
L 132.718613 235.670796 
L 135.792993 234.099961 
L 138.867373 232.529127 
L 141.941754 230.958292 
L 145.016134 229.387457 
L 148.090514 227.816622 
L 151.164894 226.245787 
L 154.239274 224.674952 
L 157.313654 223.104117 
L 160.388035 221.533282 
L 163.462415 219.962447 
L 166.536795 218.391612 
L 169.611175 216.820777 
L 172.685555 215.249942 
L 175.759935 213.679107 
L 178.834316 212.108272 
L 181.908696 210.537437 
L 184.983076 208.966602 
L 188.057456 207.395767 
L 191.131836 205.824933 
L 194.206216 204.254098 
L 197.280597 202.683263 
L 200.354977 201.112428 
L 203.429357 199.541593 
L 206.503737 197.970758 
L 209.578117 196.399923 
L 212.652497 194.829088 
L 215.726878 193.258253 
L 218.801258 191.687418 
L 221.875638 190.116583 
L 224.950018 188.545748 
L 228.024398 186.974913 
L 231.098778 185.404078 
L 234.173159 183.833243 
L 237.247539 182.262408 
L 240.321919 180.691573 
L 243.396299 179.120739 
L 246.470679 177.549904 
L 249.545059 175.979069 
L 252.61944 174.408234 
L 255.69382 172.837399 
L 258.7682 171.266564 
L 261.84258 169.695729 
L 264.91696 168.124894 
L 267.99134 166.554059 
L 271.065721 164.983224 
L 274.140101 163.412389 
L 277.214481 161.841554 
L 280.288861 160.270719 
L 283.363241 158.699884 
L 286.437621 157.129049 
L 289.512002 155.558214 
L 292.586382 153.98738 
L 295.660762 152.416545 
L 298.735142 150.84571 
L 301.809522 149.274875 
L 304.883902 147.70404 
L 307.958283 146.133205 
L 311.032663 144.56237 
L 314.107043 142.991535 
L 317.181423 141.4207 
L 320.255803 139.849865 
L 323.330183 138.27903 
L 326.404564 136.708195 
L 329.478944 135.13736 
L 332.553324 133.566525 
L 335.627704 131.99569 
L 338.702084 130.424855 
L 341.776464 128.85402 
L 344.850845 127.283186 
L 347.925225 125.712351 
L 350.999605 124.141516 
L 354.073985 122.570681 
L 357.148365 120.999846 
L 360.222745 119.429011 
L 363.297126 117.858176 
L 366.371506 116.287341 
" style="fill:none;stroke:#69db57;stroke-dasharray:3.27904,1.417963;stroke-dashoffset:0;stroke-width:0.886227;"/>
   </g>
   <g id="line2d_15">
    <path clip-path="url(#pac37ce21ee)" d="M 62.007869 271.8 
L 65.082249 269.557954 
L 68.15663 267.315908 
L 71.23101 265.073862 
L 74.30539 262.831816 
L 77.37977 260.58977 
L 80.45415 258.347724 
L 83.52853 256.105678 
L 86.602911 253.863632 
L 89.677291 251.621587 
L 92.751671 249.379541 
L 95.826051 247.137495 
L 98.900431 244.895449 
L 101.974811 242.653403 
L 105.049192 240.411357 
L 108.123572 238.169311 
L 111.197952 235.927265 
L 114.272332 233.685219 
L 117.346712 231.443173 
L 120.421092 229.201127 
L 123.495473 226.959081 
L 126.569853 224.717035 
L 129.644233 222.474989 
L 132.718613 220.232943 
L 135.792993 217.990897 
L 138.867373 215.748851 
L 141.941754 213.506805 
L 145.016134 211.26476 
L 148.090514 209.022714 
L 151.164894 206.780668 
L 154.239274 204.538622 
L 157.313654 202.296576 
L 160.388035 200.05453 
L 163.462415 197.812484 
L 166.536795 195.570438 
L 169.611175 193.328392 
L 172.685555 191.086346 
L 175.759935 188.8443 
L 178.834316 186.602254 
L 181.908696 184.360208 
L 184.983076 182.118162 
L 188.057456 179.876116 
L 191.131836 177.63407 
L 194.206216 175.392024 
L 197.280597 173.149978 
L 200.354977 170.907933 
L 203.429357 168.665887 
L 206.503737 166.423841 
L 209.578117 164.181795 
L 212.652497 161.939749 
L 215.726878 159.697703 
L 218.801258 157.455657 
L 221.875638 155.213611 
L 224.950018 152.971565 
L 228.024398 150.729519 
L 231.098778 148.487473 
L 234.173159 146.245427 
L 237.247539 144.003381 
L 240.321919 141.761335 
L 243.396299 139.519289 
L 246.470679 137.277243 
L 249.545059 135.035197 
L 252.61944 132.793151 
L 255.69382 130.551106 
L 258.7682 128.30906 
L 261.84258 126.067014 
L 264.91696 123.824968 
L 267.99134 121.582922 
L 271.065721 119.340876 
L 274.140101 117.09883 
L 277.214481 114.856784 
L 280.288861 112.614738 
L 283.363241 110.372692 
L 286.437621 108.130646 
L 289.512002 105.8886 
L 292.586382 103.646554 
L 295.660762 101.404508 
L 298.735142 99.162462 
L 301.809522 96.920416 
L 304.883902 94.67837 
L 307.958283 92.436324 
L 311.032663 90.194279 
L 314.107043 87.952233 
L 317.181423 85.710187 
L 320.255803 83.468141 
L 323.330183 81.226095 
L 326.404564 78.984049 
L 329.478944 76.742003 
L 332.553324 74.499957 
L 335.627704 72.257911 
L 338.702084 70.015865 
L 341.776464 67.773819 
L 344.850845 65.531773 
L 347.925225 63.289727 
L 350.999605 61.047681 
L 354.073985 58.805635 
L 357.148365 56.563589 
L 360.222745 54.321543 
L 363.297126 52.079497 
L 366.371506 49.837452 
" style="fill:none;stroke:#57db94;stroke-dasharray:3.27904,1.417963;stroke-dashoffset:0;stroke-width:0.886227;"/>
   </g>
   <g id="line2d_16">
    <path clip-path="url(#pac37ce21ee)" d="M 62.007869 271.8 
L 65.082249 269.254545 
L 68.15663 266.709091 
L 71.23101 264.163636 
L 74.30539 261.618182 
L 77.37977 259.072727 
L 80.45415 256.527273 
L 83.52853 253.981818 
L 86.602911 251.436364 
L 89.677291 248.890909 
L 92.751671 246.345455 
L 95.826051 243.8 
L 98.900431 241.254545 
L 101.974811 238.709091 
L 105.049192 236.163636 
L 108.123572 233.618182 
L 111.197952 231.072727 
L 114.272332 228.527273 
L 117.346712 225.981818 
L 120.421092 223.436364 
L 123.495473 220.890909 
L 126.569853 218.345455 
L 129.644233 215.8 
L 132.718613 213.254545 
L 135.792993 210.709091 
L 138.867373 208.163636 
L 141.941754 205.618182 
L 145.016134 203.072727 
L 148.090514 200.527273 
L 151.164894 197.981818 
L 154.239274 195.436364 
L 157.313654 192.890909 
L 160.388035 190.345455 
L 163.462415 187.8 
L 166.536795 185.254545 
L 169.611175 182.709091 
L 172.685555 180.163636 
L 175.759935 177.618182 
L 178.834316 175.072727 
L 181.908696 172.527273 
L 184.983076 169.981818 
L 188.057456 167.436364 
L 191.131836 164.890909 
L 194.206216 162.345455 
L 197.280597 159.8 
L 200.354977 157.254545 
L 203.429357 154.709091 
L 206.503737 152.163636 
L 209.578117 149.618182 
L 212.652497 147.072727 
L 215.726878 144.527273 
L 218.801258 141.981818 
L 221.875638 139.436364 
L 224.950018 136.890909 
L 228.024398 134.345455 
L 231.098778 131.8 
L 234.173159 129.254545 
L 237.247539 126.709091 
L 240.321919 124.163636 
L 243.396299 121.618182 
L 246.470679 119.072727 
L 249.545059 116.527273 
L 252.61944 113.981818 
L 255.69382 111.436364 
L 258.7682 108.890909 
L 261.84258 106.345455 
L 264.91696 103.8 
L 267.99134 101.254545 
L 271.065721 98.709091 
L 274.140101 96.163636 
L 277.214481 93.618182 
L 280.288861 91.072727 
L 283.363241 88.527273 
L 286.437621 85.981818 
L 289.512002 83.436364 
L 292.586382 80.890909 
L 295.660762 78.345455 
L 298.735142 75.8 
L 301.809522 73.254545 
L 304.883902 70.709091 
L 307.958283 68.163636 
L 311.032663 65.618182 
L 314.107043 63.072727 
L 317.181423 60.527273 
L 320.255803 57.981818 
L 323.330183 55.436364 
L 326.404564 52.890909 
L 329.478944 50.345455 
L 332.553324 47.8 
L 335.627704 45.254545 
L 338.702084 42.709091 
L 341.776464 40.163636 
L 344.850845 37.618182 
L 347.925225 35.072727 
L 350.999605 32.527273 
L 354.073985 29.981818 
L 357.148365 27.436364 
L 360.222745 24.890909 
L 363.297126 22.345455 
L 366.371506 19.8 
" style="fill:none;stroke:#57d3db;stroke-dasharray:3.27904,1.417963;stroke-dashoffset:0;stroke-width:0.886227;"/>
   </g>
   <g id="line2d_17">
    <path clip-path="url(#pac37ce21ee)" d="M 62.007869 271.8 
L 65.082249 269.675747 
L 68.15663 267.551494 
L 71.23101 265.427241 
L 74.30539 263.302988 
L 77.37977 261.178735 
L 80.45415 259.054483 
L 83.52853 256.93023 
L 86.602911 254.805977 
L 89.677291 252.681724 
L 92.751671 250.557471 
L 95.826051 248.433218 
L 98.900431 246.308965 
L 101.974811 244.184712 
L 105.049192 242.060459 
L 108.123572 239.936206 
L 111.197952 237.811953 
L 114.272332 235.6877 
L 117.346712 233.563448 
L 120.421092 231.439195 
L 123.495473 229.314942 
L 126.569853 227.190689 
L 129.644233 225.066436 
L 132.718613 222.942183 
L 135.792993 220.81793 
L 138.867373 218.693677 
L 141.941754 216.569424 
L 145.016134 214.445171 
L 148.090514 212.320918 
L 151.164894 210.196665 
L 154.239274 208.072413 
L 157.313654 205.94816 
L 160.388035 203.823907 
L 163.462415 201.699654 
L 166.536795 199.575401 
L 169.611175 197.451148 
L 172.685555 195.326895 
L 175.759935 193.202642 
L 178.834316 191.078389 
L 181.908696 188.954136 
L 184.983076 186.829883 
L 188.057456 184.70563 
L 191.131836 182.581378 
L 194.206216 180.457125 
L 197.280597 178.332872 
L 200.354977 176.208619 
L 203.429357 174.084366 
L 206.503737 171.960113 
L 209.578117 169.83586 
L 212.652497 167.711607 
L 215.726878 165.587354 
L 218.801258 163.463101 
L 221.875638 161.338848 
L 224.950018 159.214595 
L 228.024398 157.090343 
L 231.098778 154.96609 
L 234.173159 152.841837 
L 237.247539 150.717584 
L 240.321919 148.593331 
L 243.396299 146.469078 
L 246.470679 144.344825 
L 249.545059 142.220572 
L 252.61944 140.096319 
L 255.69382 137.972066 
L 258.7682 135.847813 
L 261.84258 133.723561 
L 264.91696 131.599308 
L 267.99134 129.475055 
L 271.065721 127.350802 
L 274.140101 125.226549 
L 277.214481 123.102296 
L 280.288861 120.978043 
L 283.363241 118.85379 
L 286.437621 116.729537 
L 289.512002 114.605284 
L 292.586382 112.481031 
L 295.660762 110.356778 
L 298.735142 108.232526 
L 301.809522 106.108273 
L 304.883902 103.98402 
L 307.958283 101.859767 
L 311.032663 99.735514 
L 314.107043 97.611261 
L 317.181423 95.487008 
L 320.255803 93.362755 
L 323.330183 91.238502 
L 326.404564 89.114249 
L 329.478944 86.989996 
L 332.553324 84.865743 
L 335.627704 82.741491 
L 338.702084 80.617238 
L 341.776464 78.492985 
L 344.850845 76.368732 
L 347.925225 74.244479 
L 350.999605 72.120226 
L 354.073985 69.995973 
L 357.148365 67.87172 
L 360.222745 65.747467 
L 363.297126 63.623214 
L 366.371506 61.498961 
" style="fill:none;stroke:#5784db;stroke-dasharray:3.27904,1.417963;stroke-dashoffset:0;stroke-width:0.886227;"/>
   </g>
   <g id="line2d_18">
    <path clip-path="url(#pac37ce21ee)" d="M 62.007869 271.8 
L 65.082249 269.845522 
L 68.15663 267.891043 
L 71.23101 265.936565 
L 74.30539 263.982086 
L 77.37977 262.027608 
L 80.45415 260.073129 
L 83.52853 258.118651 
L 86.602911 256.164173 
L 89.677291 254.209694 
L 92.751671 252.255216 
L 95.826051 250.300737 
L 98.900431 248.346259 
L 101.974811 246.39178 
L 105.049192 244.437302 
L 108.123572 242.482824 
L 111.197952 240.528345 
L 114.272332 238.573867 
L 117.346712 236.619388 
L 120.421092 234.66491 
L 123.495473 232.710432 
L 126.569853 230.755953 
L 129.644233 228.801475 
L 132.718613 226.846996 
L 135.792993 224.892518 
L 138.867373 222.938039 
L 141.941754 220.983561 
L 145.016134 219.029083 
L 148.090514 217.074604 
L 151.164894 215.120126 
L 154.239274 213.165647 
L 157.313654 211.211169 
L 160.388035 209.25669 
L 163.462415 207.302212 
L 166.536795 205.347734 
L 169.611175 203.393255 
L 172.685555 201.438777 
L 175.759935 199.484298 
L 178.834316 197.52982 
L 181.908696 195.575341 
L 184.983076 193.620863 
L 188.057456 191.666385 
L 191.131836 189.711906 
L 194.206216 187.757428 
L 197.280597 185.802949 
L 200.354977 183.848471 
L 203.429357 181.893992 
L 206.503737 179.939514 
L 209.578117 177.985036 
L 212.652497 176.030557 
L 215.726878 174.076079 
L 218.801258 172.1216 
L 221.875638 170.167122 
L 224.950018 168.212643 
L 228.024398 166.258165 
L 231.098778 164.303687 
L 234.173159 162.349208 
L 237.247539 160.39473 
L 240.321919 158.440251 
L 243.396299 156.485773 
L 246.470679 154.531295 
L 249.545059 152.576816 
L 252.61944 150.622338 
L 255.69382 148.667859 
L 258.7682 146.713381 
L 261.84258 144.758902 
L 264.91696 142.804424 
L 267.99134 140.849946 
L 271.065721 138.895467 
L 274.140101 136.940989 
L 277.214481 134.98651 
L 280.288861 133.032032 
L 283.363241 131.077553 
L 286.437621 129.123075 
L 289.512002 127.168597 
L 292.586382 125.214118 
L 295.660762 123.25964 
L 298.735142 121.305161 
L 301.809522 119.350683 
L 304.883902 117.396204 
L 307.958283 115.441726 
L 311.032663 113.487248 
L 314.107043 111.532769 
L 317.181423 109.578291 
L 320.255803 107.623812 
L 323.330183 105.669334 
L 326.404564 103.714855 
L 329.478944 101.760377 
L 332.553324 99.805899 
L 335.627704 97.85142 
L 338.702084 95.896942 
L 341.776464 93.942463 
L 344.850845 91.987985 
L 347.925225 90.033506 
L 350.999605 88.079028 
L 354.073985 86.12455 
L 357.148365 84.170071 
L 360.222745 82.215593 
L 363.297126 80.261114 
L 366.371506 78.306636 
" style="fill:none;stroke:#7957db;stroke-dasharray:3.27904,1.417963;stroke-dashoffset:0;stroke-width:0.886227;"/>
   </g>
   <g id="line2d_19">
    <path clip-path="url(#pac37ce21ee)" d="M 62.007869 271.8 
L 65.082249 270.111507 
L 68.15663 268.423013 
L 71.23101 266.73452 
L 74.30539 265.046026 
L 77.37977 263.357533 
L 80.45415 261.669039 
L 83.52853 259.980546 
L 86.602911 258.292052 
L 89.677291 256.603559 
L 92.751671 254.915065 
L 95.826051 253.226572 
L 98.900431 251.538079 
L 101.974811 249.849585 
L 105.049192 248.161092 
L 108.123572 246.472598 
L 111.197952 244.784105 
L 114.272332 243.095611 
L 117.346712 241.407118 
L 120.421092 239.718624 
L 123.495473 238.030131 
L 126.569853 236.341637 
L 129.644233 234.653144 
L 132.718613 232.964651 
L 135.792993 231.276157 
L 138.867373 229.587664 
L 141.941754 227.89917 
L 145.016134 226.210677 
L 148.090514 224.522183 
L 151.164894 222.83369 
L 154.239274 221.145196 
L 157.313654 219.456703 
L 160.388035 217.768209 
L 163.462415 216.079716 
L 166.536795 214.391223 
L 169.611175 212.702729 
L 172.685555 211.014236 
L 175.759935 209.325742 
L 178.834316 207.637249 
L 181.908696 205.948755 
L 184.983076 204.260262 
L 188.057456 202.571768 
L 191.131836 200.883275 
L 194.206216 199.194781 
L 197.280597 197.506288 
L 200.354977 195.817795 
L 203.429357 194.129301 
L 206.503737 192.440808 
L 209.578117 190.752314 
L 212.652497 189.063821 
L 215.726878 187.375327 
L 218.801258 185.686834 
L 221.875638 183.99834 
L 224.950018 182.309847 
L 228.024398 180.621353 
L 231.098778 178.93286 
L 234.173159 177.244367 
L 237.247539 175.555873 
L 240.321919 173.86738 
L 243.396299 172.178886 
L 246.470679 170.490393 
L 249.545059 168.801899 
L 252.61944 167.113406 
L 255.69382 165.424912 
L 258.7682 163.736419 
L 261.84258 162.047925 
L 264.91696 160.359432 
L 267.99134 158.670939 
L 271.065721 156.982445 
L 274.140101 155.293952 
L 277.214481 153.605458 
L 280.288861 151.916965 
L 283.363241 150.228471 
L 286.437621 148.539978 
L 289.512002 146.851484 
L 292.586382 145.162991 
L 295.660762 143.474497 
L 298.735142 141.786004 
L 301.809522 140.097511 
L 304.883902 138.409017 
L 307.958283 136.720524 
L 311.032663 135.03203 
L 314.107043 133.343537 
L 317.181423 131.655043 
L 320.255803 129.96655 
L 323.330183 128.278056 
L 326.404564 126.589563 
L 329.478944 124.901069 
L 332.553324 123.212576 
L 335.627704 121.524083 
L 338.702084 119.835589 
L 341.776464 118.147096 
L 344.850845 116.458602 
L 347.925225 114.770109 
L 350.999605 113.081615 
L 354.073985 111.393122 
L 357.148365 109.704628 
L 360.222745 108.016135 
L 363.297126 106.327641 
L 366.371506 104.639148 
" style="fill:none;stroke:#c957db;stroke-dasharray:3.27904,1.417963;stroke-dashoffset:0;stroke-width:0.886227;"/>
   </g>
   <g id="line2d_20">
    <path clip-path="url(#pac37ce21ee)" d="M 62.007869 271.8 
L 65.082249 270.204505 
L 68.15663 268.60901 
L 71.23101 267.013514 
L 74.30539 265.418019 
L 77.37977 263.822524 
L 80.45415 262.227029 
L 83.52853 260.631533 
L 86.602911 259.036038 
L 89.677291 257.440543 
L 92.751671 255.845048 
L 95.826051 254.249552 
L 98.900431 252.654057 
L 101.974811 251.058562 
L 105.049192 249.463067 
L 108.123572 247.867571 
L 111.197952 246.272076 
L 114.272332 244.676581 
L 117.346712 243.081086 
L 120.421092 241.48559 
L 123.495473 239.890095 
L 126.569853 238.2946 
L 129.644233 236.699105 
L 132.718613 235.103609 
L 135.792993 233.508114 
L 138.867373 231.912619 
L 141.941754 230.317124 
L 145.016134 228.721628 
L 148.090514 227.126133 
L 151.164894 225.530638 
L 154.239274 223.935143 
L 157.313654 222.339647 
L 160.388035 220.744152 
L 163.462415 219.148657 
L 166.536795 217.553162 
L 169.611175 215.957666 
L 172.685555 214.362171 
L 175.759935 212.766676 
L 178.834316 211.171181 
L 181.908696 209.575685 
L 184.983076 207.98019 
L 188.057456 206.384695 
L 191.131836 204.7892 
L 194.206216 203.193704 
L 197.280597 201.598209 
L 200.354977 200.002714 
L 203.429357 198.407219 
L 206.503737 196.811723 
L 209.578117 195.216228 
L 212.652497 193.620733 
L 215.726878 192.025238 
L 218.801258 190.429742 
L 221.875638 188.834247 
L 224.950018 187.238752 
L 228.024398 185.643257 
L 231.098778 184.047761 
L 234.173159 182.452266 
L 237.247539 180.856771 
L 240.321919 179.261276 
L 243.396299 177.66578 
L 246.470679 176.070285 
L 249.545059 174.47479 
L 252.61944 172.879295 
L 255.69382 171.283799 
L 258.7682 169.688304 
L 261.84258 168.092809 
L 264.91696 166.497314 
L 267.99134 164.901818 
L 271.065721 163.306323 
L 274.140101 161.710828 
L 277.214481 160.115333 
L 280.288861 158.519837 
L 283.363241 156.924342 
L 286.437621 155.328847 
L 289.512002 153.733352 
L 292.586382 152.137856 
L 295.660762 150.542361 
L 298.735142 148.946866 
L 301.809522 147.351371 
L 304.883902 145.755875 
L 307.958283 144.16038 
L 311.032663 142.564885 
L 314.107043 140.96939 
L 317.181423 139.373894 
L 320.255803 137.778399 
L 323.330183 136.182904 
L 326.404564 134.587409 
L 329.478944 132.991913 
L 332.553324 131.396418 
L 335.627704 129.800923 
L 338.702084 128.205428 
L 341.776464 126.609933 
L 344.850845 125.014437 
L 347.925225 123.418942 
L 350.999605 121.823447 
L 354.073985 120.227952 
L 357.148365 118.632456 
L 360.222745 117.036961 
L 363.297126 115.441466 
L 366.371506 113.845971 
" style="fill:none;stroke:#db579e;stroke-dasharray:3.27904,1.417963;stroke-dashoffset:0;stroke-width:0.886227;"/>
   </g>
   <g id="patch_3">
    <path d="M 46.789688 284.4 
L 46.789688 7.2 
" style="fill:none;stroke:#000000;stroke-linecap:square;stroke-linejoin:miter;"/>
   </g>
   <g id="patch_4">
    <path d="M 46.789688 284.4 
L 381.589688 284.4 
" style="fill:none;stroke:#000000;stroke-linecap:square;stroke-linejoin:miter;"/>
   </g>
  </g>
 </g>
 <defs>
  <clipPath id="pac37ce21ee">
   <rect height="277.2" width="334.8" x="46.789688" y="7.2"/>
  </clipPath>
 </defs>
</svg>
